SplineFontDB: 3.2
FontName: ZameroSans-ExtraLight
FullName: Zamero Sans ExtraLight
FamilyName: Zamero Sans
Weight: ExtraLight
Copyright: Copyright (c) 2024, Zamero Type Foundry
UComments: "2024-1-17: Created with FontForge (http://fontforge.org)+AAoACgAK-Instead of Charlie and the Alphabet and Charlie and the Numbers, how about Charlie and the Fonts? :)"
Version: 001.000
ItalicAngle: 0
UnderlinePosition: -100
UnderlineWidth: 50
Ascent: 800
Descent: 200
InvalidEm: 0
LayerCount: 2
Layer: 0 0 "Back" 1
Layer: 1 0 "Fore" 0
XUID: [1021 474 1118879153 20760]
StyleMap: 0x0000
FSType: 0
OS2Version: 0
OS2_WeightWidthSlopeOnly: 0
OS2_UseTypoMetrics: 1
CreationTime: 1705525712
ModificationTime: 1727736385
PfmFamily: 33
TTFWeight: 200
TTFWidth: 5
LineGap: 90
VLineGap: 90
OS2TypoAscent: 0
OS2TypoAOffset: 1
OS2TypoDescent: 0
OS2TypoDOffset: 1
OS2TypoLinegap: 90
OS2WinAscent: 0
OS2WinAOffset: 1
OS2WinDescent: 0
OS2WinDOffset: 1
HheadAscent: 0
HheadAOffset: 1
HheadDescent: 0
HheadDOffset: 1
OS2Vendor: 'ZAM '
Lookup: 1 0 0 "'ss15' Style Set 15 lookup 20" { "'ss15' Style Set 15 lookup 20-1" ("ss15") } ['ss15' ('DFLT' <'dflt' > 'grek' <'dflt' > 'latn' <'dflt' > ) ]
Lookup: 1 0 0 "'ss14' Style Set 14 lookup 19" { "'ss14' Style Set 14 lookup 19-1" ("ss14") } ['ss14' ('DFLT' <'dflt' > 'grek' <'dflt' > 'latn' <'dflt' > ) ]
Lookup: 1 0 0 "'onum' Oldstyle Figures lookup 18" { "'onum' Oldstyle Figures lookup 18-1" ("osf") } ['onum' ('DFLT' <'dflt' > 'grek' <'dflt' > 'latn' <'dflt' > ) ]
Lookup: 1 0 0 "'tnum' Tabular Numbers lookup 17" { "'tnum' Tabular Numbers lookup 17-1" ("tf") } ['tnum' ('DFLT' <'dflt' > 'grek' <'dflt' > 'latn' <'dflt' > ) ]
Lookup: 1 0 0 "'dnom' Denominators lookup 0" { "'dnom' Denominators lookup 0 subtable" ("dnom") } ['dnom' ('DFLT' <'dflt' > 'latn' <'dflt' > ) ]
Lookup: 1 0 0 "'numr' Numerators lookup 0" { "'numr' Numerators lookup 0 subtable" ("numr") } ['numr' ('DFLT' <'dflt' > 'latn' <'dflt' > ) ]

StartChar: I
Encoding: 73 73 0
Width: 434
Flags: W
HStem: 0 67.75<46.5 178.5 255.5 387.5> 30 37.75<178.5 255.5> 662.25 68.75<46.5 178.5 255.5 387.5> 662.25 38.75<178.5 255.5>
VStem: 178.5 77<30 701>
LayerCount: 2
Fore
SplineSet
387.5 0 m 1x88
 46.5 0 l 1
 46.5 67.75 l 1
 387.5 67.75 l 1
 387.5 0 l 1x88
387.5 662.25 m 1x28
 46.5 662.25 l 1
 46.5 731 l 1
 387.5 731 l 1
 387.5 662.25 l 1x28
178.5 30 m 1x58
 178.5 701 l 1
 255.5 701 l 1
 255.5 30 l 1
 178.5 30 l 1x58
EndSplineSet
EndChar

StartChar: O
Encoding: 79 79 1
Width: 797
Flags: W
HStem: -9.99805 72.6119<283.525 514.253> 666.509 72.6119<283.525 514.253>
VStem: 51.5 77.8486<227.636 501.487> 668.429 77.8486<227.636 501.487>
LayerCount: 2
Back
SplineSet
104.848632812 364.561523438 m 0
 104.848632812 169.015917071 203.263968617 38.4638671875 398.888671875 38.4638671875 c 4
 594.513375133 38.4638671875 692.928710938 169.015917071 692.928710938 364.561523438 c 0
 692.928710938 560.107129798 594.513375133 690.659179688 398.888671875 690.659179688 c 0
 203.263968617 690.659179688 104.848632812 560.107129798 104.848632812 364.561523438 c 0
55 364.561523438 m 0
 55 591.206054688 185.120861123 739.12109375 398.888671875 739.12109375 c 0
 612.656482627 739.12109375 742.77734375 591.206054688 742.77734375 364.561523438 c 0
 742.77734375 137.916992188 612.656482627 -9.998046875 398.888671875 -9.998046875 c 0
 185.120861123 -9.998046875 55 137.916992188 55 364.561523438 c 0
EndSplineSet
Fore
SplineSet
129.348632812 364.561523438 m 0
 129.348632812 183.4975495 217.874298801 62.6138671877 398.888671875 62.6138671877 c 0
 579.903044949 62.6138671877 668.428710938 183.4975495 668.428710938 364.561523438 c 0
 668.428710938 545.62549737 579.903044949 666.509179688 398.888671875 666.509179688 c 0
 217.874298801 666.509179688 129.348632812 545.62549737 129.348632812 364.561523438 c 0
51.5 364.561523438 m 0
 51.5 591.206054688 182.945193825 739.12109375 398.888671875 739.12109375 c 0
 614.832149925 739.12109375 746.27734375 591.206054688 746.27734375 364.561523438 c 0
 746.27734375 137.916992188 614.832149925 -9.998046875 398.888671875 -9.998046875 c 0
 182.945193825 -9.998046875 51.5 137.916992188 51.5 364.561523438 c 0
EndSplineSet
EndChar

StartChar: H
Encoding: 72 72 2
Width: 719
Flags: W
HStem: 0 21G<71.5 148.5 570.5 647.5> 324.5 67<104 600> 711.008 20G<71.5 148.5 570.5 647.5>
VStem: 71.5 77<0 324.5 391.5 731.008> 104 44.5<324.5 391.5> 570.5 77<0 324.5 391.5 731.008> 570.5 29.5<324.5 391.5>
LayerCount: 2
Fore
SplineSet
600 324.5 m 1xea
 104 324.5 l 1
 104 391.5 l 1
 600 391.5 l 1
 600 324.5 l 1xea
570.5 0 m 1xe4
 570.5 731.0078125 l 1
 647.5 731.0078125 l 1
 647.5 0 l 1
 570.5 0 l 1xe4
71.5 0 m 1xf0
 71.5 731.0078125 l 1
 148.5 731.0078125 l 1
 148.5 0 l 1
 71.5 0 l 1xf0
EndSplineSet
EndChar

StartChar: V
Encoding: 86 86 4
Width: 699
Flags: W
HStem: 0 21G<300.94 407.787> 711.008 20G<21.5 102.2 596.8 677.5>
LayerCount: 2
Fore
SplineSet
308.8 0 m 1
 21.5 731.0078125 l 1
 102.2 731.0078125 l 1
 102.2 731.0078125 353.606445312 76.7443359377 353.606445312 76.7443359377 c 1
 353.606445312 76.7443359377 596.8 731.0078125 596.8 731.0078125 c 1
 677.5 731.0078125 l 1
 400.2 0 l 1
 308.8 0 l 1
EndSplineSet
EndChar

StartChar: D
Encoding: 68 68 5
Width: 727
Flags: W
HStem: 0 69.2016<148.5 429.883> 661.799 69.2084<148.5 429.883>
VStem: 71.5 77<69.2016 661.799> 598.429 77.8486<230.49 498.732>
LayerCount: 2
Fore
SplineSet
71.5 0 m 1
 71.5 731.0078125 l 1
 308.888671875 731.0078125 l 2
 502.189659908 731.0078125 676.27734375 631.206054688 676.27734375 364.561523438 c 0
 676.27734375 97.9169921872 501.058287476 -2.35344342712e-14 308.888671875 0 c 2
 71.5 0 l 1
148.5 661.799414062 m 1
 148.5 69.2015625 l 1
 283.888671875 69.3119140623 l 2
 463.962691362 69.4645423113 598.428710938 135.401844189 598.428710938 364.561523438 c 0
 598.428710938 593.140390066 463.96270083 661.552800424 283.888671875 661.695898438 c 2
 148.5 661.799414062 l 1
EndSplineSet
EndChar

StartChar: U
Encoding: 85 85 6
Width: 719
Flags: W
HStem: -9.99805 73.2619<243.071 472.706> 711.008 20G<71.5 148.5 567.277 644.277>
VStem: 71.5 77<165.108 731.008> 567.277 77<165.108 731.008>
LayerCount: 2
Fore
SplineSet
357.888671875 -9.998046875 m 0
 144.010836456 -9.998046875 71.5 107.509391072 71.5 287.561523438 c 2
 71.5 731.0078125 l 1
 148.5 731.0078125 l 1
 148.5 304.561523438 l 2
 148.5 159.86653529 183.869557443 63.2638671877 357.888671875 63.2638671877 c 0
 531.907786307 63.2638671877 567.27734375 159.86653529 567.27734375 304.561523438 c 2
 567.27734375 731.0078125 l 1
 644.27734375 731.0078125 l 1
 644.27734375 287.561523438 l 2
 644.27734375 107.509391072 571.766507294 -9.998046875 357.888671875 -9.998046875 c 0
EndSplineSet
EndChar

StartChar: L
Encoding: 76 76 7
Width: 568
Flags: W
HStem: 0 68.75<148.5 544> 711.008 20G<71.5 148.5>
VStem: 71.5 77<68.75 731.008>
LayerCount: 2
Fore
SplineSet
148.5 68.75 m 1
 544 68.75 l 1
 544 0 l 1
 71.5 0 l 1
 71.5 731.0078125 l 1
 148.5 731.0078125 l 1
 148.5 68.75 l 1
EndSplineSet
EndChar

StartChar: F
Encoding: 70 70 8
Width: 574
Flags: W
HStem: 0 21G<71.5 148.5> 313.5 69.5<104 461> 662.258 68.75<148.5 521>
VStem: 71.5 77<0 313.5 383 662.258> 104 44.5<313.5 383>
LayerCount: 2
Fore
SplineSet
461 313.5 m 1xe8
 104 313.5 l 1
 104 383 l 1
 461 383 l 1
 461 313.5 l 1xe8
148.5 662.2578125 m 1xf0
 148.5 0 l 1
 71.5 0 l 1
 71.5 731.0078125 l 1
 521 731.0078125 l 1
 521 662.2578125 l 1
 148.5 662.2578125 l 1xf0
EndSplineSet
EndChar

StartChar: C
Encoding: 67 67 9
Width: 667
Flags: W
HStem: -9.99805 70.0119<288.506 552.283> 669.109 70.0119<296.987 536.094>
VStem: 51.5 78.3486<224.684 499.716>
LayerCount: 2
Fore
SplineSet
51.5 360.561523438 m 0
 51.5 589.626439045 179.860785689 739.12109375 405.888671875 739.12109375 c 0
 560.464646301 739.12109375 633.181640625 672.891601562 633.181640625 672.891601562 c 1
 602.45546875 609.638671875 l 1
 602.45546875 609.638671875 535.65408171 669.109179688 419.888671875 669.109179688 c 0
 216.713928958 669.109179688 129.848632812 545.58321058 129.848632812 360.561523438 c 0
 129.848632812 180.337064424 220.617216956 60.0138671877 413.388671875 60.0138671877 c 0
 542.719635559 60.0138671877 611.218554688 108.745703125 611.218554688 108.745703125 c 1
 611.218554688 108.745703125 636.327148438 44.595703125 636.327148438 44.595703125 c 1
 636.327148438 44.595703125 565.937935298 -9.998046875 405.888671875 -9.998046875 c 0
 179.860785689 -9.998046875 51.5 136.337376545 51.5 360.561523438 c 0
EndSplineSet
Substitution2: "'ss12' Style Set 12 lookup 13-1" C.ss12
EndChar

StartChar: E
Encoding: 69 69 10
Width: 579
Flags: W
HStem: 0 68.75<148.5 532.5> 333 70.5<110.5 472.5> 662.258 68.75<148.5 532.5>
VStem: 110.5 38<333 403.5>
LayerCount: 2
Fore
SplineSet
472.5 333 m 1
 110.5 333 l 1
 110.5 403.5 l 1
 472.5 403.5 l 1
 472.5 333 l 1
148.5 662.2578125 m 1
 148.5 68.75 l 1
 532.5 68.75 l 1
 532.5 0 l 1
 71.5 0 l 1
 71.5 731.0078125 l 1
 532.5 731.0078125 l 1
 532.5 662.2578125 l 1
 148.5 662.2578125 l 1
EndSplineSet
EndChar

StartChar: N
Encoding: 78 78 11
Width: 719
Flags: W
HStem: 0 21G<71.5 147.8 551.425 647.5> 711.008 20G<71.5 167.715 571.2 647.5>
VStem: 71.5 76.3<0 606.005> 571.2 76.3<131.1 731.008>
LayerCount: 2
Fore
SplineSet
71.5 0 m 1
 71.5 731.0078125 l 1
 153.8 731.0078125 l 1
 571.2 131.099609375 l 1
 571.2 731.0078125 l 1
 647.5 731.0078125 l 1
 647.5 0 l 1
 565.2 0 l 1
 147.8 606.004882812 l 1
 147.8 0 l 1
 71.5 0 l 1
EndSplineSet
EndChar

StartChar: M
Encoding: 77 77 12
Width: 830
Flags: W
HStem: 0 21G<71.5 148.5 681.5 758.5> 711.008 20G<71.5 179.187 650.813 758.5>
VStem: 71.5 77<0 619.005> 681.5 77<0 619.005>
LayerCount: 2
Fore
SplineSet
71.5 0 m 1
 71.5 731.0078125 l 1
 168.5 731.0078125 l 1
 415 269.699609375 l 1
 661.5 731.0078125 l 1
 758.5 731.0078125 l 1
 758.5 0 l 1
 681.5 0 l 1
 681.5 619.004882812 l 1
 445.5 180 l 1
 384.5 180 l 1
 148.5 619.004882812 l 1
 148.5 0 l 1
 71.5 0 l 1
EndSplineSet
EndChar

StartChar: G
Encoding: 71 71 13
Width: 789
Flags: W
HStem: -9.99805 70.0119<284.909 518.1> 320.5 65.75<412.5 582.019 654.427 747.5> 320.5 23.5957<582.019 654.427> 669.109 70.0119<291.694 538.924>
VStem: 51.5 77.6986<227.046 498.682> 608.831 71.651<141.965 319.532>
LayerCount: 2
Fore
SplineSet
747.5 320.5 m 1xdc
 412.5 320.5 l 1
 412.5 386.25 l 1
 747.5 386.25 l 1
 747.5 320.5 l 1xdc
51.5 364.561523438 m 0
 51.5 591.206054688 186.729001545 739.12109375 408.888671875 739.12109375 c 0
 578.468700359 739.12109375 648.181640625 663.891601562 648.181640625 663.891601562 c 1
 616.35546875 602.088671875 l 1
 616.35546875 602.088671875 550.141753474 669.109179688 415.888671875 669.109179688 c 0
 223.615448712 669.109179688 129.198632812 547.184596513 129.198632812 364.561523438 c 0
 129.198632812 181.938450357 219.588147797 60.0138671877 406.888671875 60.0138671877 c 0
 544.20954114 60.0138671877 608.831445312 128.18299032 608.831445312 230.5 c 0
 608.831445312 303.449175589 582.018554688 344.095703125 582.018554688 344.095703125 c 1
 654.427148438 344.095703125 l 1xbc
 654.427148438 344.095703125 680.482421875 308.997834355 680.482421875 222 c 0
 680.482421875 93.0859042083 590.177483935 -9.998046875 399.888671875 -9.998046875 c 0
 177.982339212 -9.998046875 51.5 137.916992188 51.5 364.561523438 c 0
EndSplineSet
Substitution2: "'ss12' Style Set 12 lookup 13-1" G.ss12
Substitution2: "'ss08' Style Set 8 lookup 9-1" G.ss08
EndChar

StartChar: A
Encoding: 65 65 14
Width: 719
Flags: W
HStem: 0 21G<21.5 110.794 607.948 697.5> 174.5 70.05<142.5 575.5> 711.008 20G<309.402 399.872>
LayerCount: 2
Fore
SplineSet
575.5 174.5 m 1
 142.5 174.5 l 1
 142.5 244.55 l 1
 575.5 244.55 l 1
 575.5 174.5 l 1
391.5 731.0078125 m 1
 697.5 0 l 1
 616.15 0 l 1
 355.393554688 635.813476562 l 1
 102.85 0 l 1
 21.5 0 l 1
 317.5 731.0078125 l 1
 391.5 731.0078125 l 1
EndSplineSet
EndChar

StartChar: P
Encoding: 80 80 15
Width: 665
Flags: W
HStem: 0 21G<71.5 148.5> 250 65.1016<115 448.847> 661.899 69.1084<148.5 444.937>
VStem: 71.5 77<0 250 315.102 661.899> 115 33.5<250 315.102> 541.429 77.8486<395.241 577.923>
LayerCount: 2
Fore
SplineSet
115 250 m 1xec
 115 315.1015625 l 1xec
 316.888671875 315.211914062 l 2
 445.437611932 315.40183208 541.428710938 352.702738193 541.428710938 487.561523438 c 0
 541.428710938 622.719124784 445.437626163 661.618047212 316.888671875 661.795898438 c 2
 148.5 661.899414062 l 1
 148.5 0 l 1
 71.5 0 l 1
 71.5 731.0078125 l 1xf4
 338.888671875 731.0078125 l 2
 486.414742916 731.0078125 619.27734375 664.70514194 619.27734375 487.561523438 c 0
 619.27734375 313.806266814 485.551286751 250 338.888671875 250 c 2
 115 250 l 1xec
EndSplineSet
EndChar

StartChar: R
Encoding: 82 82 16
Width: 660
Flags: W
HStem: 0 21G<71.5 148.5 555.873 643.5> 291.5 71.7016<115 438.498> 661.549 69.4584<148.5 450.292>
VStem: 71.5 77<0 291.5 363.202 661.549> 115 33.5<291.5 363.202> 526.429 77.8486<428.309 592.755>
LayerCount: 2
Back
SplineSet
124 383.3515625 m 1xec
 300.888671875 383.461914062 l 2
 383.403259307 383.509014034 462.928710938 404.697396723 462.928710938 501.561523438 c 0
 462.928710938 596.672668425 383.403268044 618.487535435 300.888671875 618.545898438 c 2
 184 618.649414062 l 1
 184 0 l 1
 55 0 l 1
 55 731.0078125 l 1xf4
 308.888671875 731.0078125 l 2
 457.204101562 731.0078125 590.77734375 670.696715458 590.77734375 509.561523438 c 4
 590.77734375 364.195131811 466.688476562 330.276367188 466.688476562 330.276367188 c 1
 466.688476562 330.276367188 540.174524344 311.767586577 573.702148438 195.399414062 c 2
 630 0 l 1
 492 0 l 1
 447 165 l 2
 420.732434887 256.417062766 391.813913829 266 270 266 c 2
 124 266 l 1
 124 383.3515625 l 1xec
EndSplineSet
Fore
SplineSet
115 363.2015625 m 1xec
 322.888671875 363.311914062 l 2
 439.415041307 363.376296996 526.428710938 394.76409381 526.428710938 509.311523438 c 0
 526.428710938 629.10047419 439.415050603 661.371627169 322.888671875 661.445898438 c 2
 148.5 661.549414062 l 1
 148.5 0 l 1
 71.5 0 l 1
 71.5 731.0078125 l 1xf4
 338.888671875 731.0078125 l 2
 478.522643831 731.0078125 604.27734375 671.282269902 604.27734375 511.711523438 c 0
 604.27734375 360.680351149 471.188476562 328.026367188 471.188476562 328.026367188 c 1
 471.188476562 328.026367188 535.62443649 317.703971411 576.960839844 197.721044922 c 2
 643.5 0 l 1
 562.5 0 l 1
 518.118896485 133.940283203 l 2
 476.322623992 254.153603824 459.933775002 291.5 331.5 291.5 c 2
 115 291.5 l 1
 115 363.2015625 l 1xec
EndSplineSet
Substitution2: "'ss01' Style Set 1 lookup 2-1" R.ss01
EndChar

StartChar: T
Encoding: 84 84 17
Width: 614
Flags: W
HStem: 0 21G<268.5 345.5> 662.25 68.75<40 268.5 345.5 574> 662.25 38.75<268.5 345.5>
VStem: 268.5 77<0 701>
LayerCount: 2
Fore
SplineSet
574 662.25 m 1xd0
 40 662.25 l 1
 40 731 l 1
 574 731 l 1
 574 662.25 l 1xd0
268.5 0 m 1
 268.5 701 l 1
 345.5 701 l 1xb0
 345.5 0 l 1
 268.5 0 l 1
EndSplineSet
EndChar

StartChar: Q
Encoding: 81 81 18
Width: 866
Flags: W
HStem: -9.99805 79.1119<284.58 605.549 613.738 685.45> 666.509 72.6119<286.077 522.023>
VStem: 51.5 77.8486<229.112 501.487> 678.429 79.8486<237.625 501.679>
LayerCount: 2
Fore
SplineSet
51.5 364.561523438 m 0
 51.5 591.206054687 184.837097685 739.12109375 403.888671875 739.12109375 c 0
 624.183484521 739.12109375 758.27734375 589.104132899 758.27734375 384.561523438 c 0
 758.27734375 136.231374514 613.738476562 68.6986328123 613.738476562 68.6986328123 c 1
 704.158182785 70.3656839427 816.638671875 89.001953125 816.638671875 89.001953125 c 1
 825.388671875 19.001953125 l 1
 825.388671875 19.001953125 718.833550861 -9.998046875 444 -9.998046875 c 0
 172.270347176 -9.998046875 51.5 137.916992188 51.5 364.561523438 c 0
129.348632812 364.561523438 m 0
 129.348632812 187.395297359 216.953851252 69.1138671877 403.888671875 69.1138671877 c 0
 590.823492498 69.1138671877 678.428710938 187.395297359 678.428710938 364.561523438 c 0
 678.428710938 545.62549737 590.823492498 666.509179688 403.888671875 666.509179688 c 0
 216.953851252 666.509179688 129.348632812 545.62549737 129.348632812 364.561523438 c 0
EndSplineSet
Substitution2: "'ss10' Style Set 10 lookup 11-1" Q.ss10
Substitution2: "'ss09' Style Set 9 lookup 10-1" Q.ss09
EndChar

StartChar: B
Encoding: 66 66 19
Width: 640
Flags: W
HStem: 0 67.91<143.5 452.323> 334.156 62.6953<115 425.558> 663.199 67.8084<143.5 424.6>
VStem: 115 28.5<334.156 396.852> 497.429 72.8486<455.223 602.725> 520.429 72.8486<126.718 274.52>
LayerCount: 2
Fore
SplineSet
454.812109375 371.2375 m 1xf8
 454.812109375 371.2375 593.27734375 343.856058287 593.27734375 199.946289062 c 0xf4
 593.27734375 54.4554323846 468.697709119 -1.64950098305e-14 329.388671875 0 c 2
 71.5 0 l 1
 71.5 731.0078125 l 1
 308.388671875 731.0078125 l 2
 446.1809962 731.0078125 570.27734375 676.375352419 570.27734375 530.411523438 c 0
 570.27734375 399.025000727 454.812109375 371.2375 454.812109375 371.2375 c 1xf8
143.5 67.9099609377 m 1
 326.388671875 67.9119140623 l 2
 437.356644356 67.9130836016 520.428710938 93.1594248948 520.428710938 202.946289062 c 0xf4
 520.428710938 310.47239019 428.926237037 333.951869978 306.388671875 334.045898438 c 2
 115 334.15625 l 1
 115 396.8515625 l 1
 284.388671875 396.961914062 l 2
 406.353462632 397.085717884 497.428710938 420.688263971 497.428710938 528.911523438 c 0xf8
 497.428710938 638.007312946 406.353948858 663.019435488 284.388671875 663.095898438 c 2
 143.5 663.199414062 l 1
 143.5 67.9099609377 l 1
EndSplineSet
EndChar

StartChar: J
Encoding: 74 74 20
Width: 432
Flags: W
HStem: -10 67.4<26.0529 222.601> 662.258 68.75<56.5 273.5>
VStem: 273.5 77<109.867 662.258>
LayerCount: 2
Fore
SplineSet
134.5 57.4 m 0
 232.363330079 57.4 273.5 103.615199079 273.5 212 c 2
 273.5 662.2578125 l 1
 56.5 662.2578125 l 1
 56.5 731.0078125 l 1
 350.5 731.0078125 l 1
 350.5 201 l 2
 350.5 74.4647758463 292.905172414 -10 154 -10 c 0
 72.7188125239 -10 16.5 13.9 16.5 13.9 c 1
 29.85 77.6 l 1
 29.85 77.6 73.4597351074 57.4 134.5 57.4 c 0
EndSplineSet
EndChar

StartChar: K
Encoding: 75 75 21
Width: 669
Flags: W
HStem: 0 21G<71.5 148.5 522.745 645.75> 324 64<96 273.85> 711.008 20G<71.5 148.5 519.525 635.75>
VStem: 71.5 77<0 324 388 731.008> 96 52.5<324 388> 210.1 63.75<338.95 376.95>
LayerCount: 2
Fore
SplineSet
96 388 m 1xec
 273.85 388 l 1
 273.85 324 l 1
 96 324 l 1
 96 388 l 1xec
542.35 0 m 1
 210.1 338.95 l 1
 210.1 376.95 l 1
 538.05 731.0078125 l 1
 635.75 731.0078125 l 1
 292.4 363.55 l 1
 645.75 0 l 1
 542.35 0 l 1
71.5 0 m 1xf4
 71.5 731.0078125 l 1
 148.5 731.0078125 l 1
 148.5 0 l 1
 71.5 0 l 1xf4
EndSplineSet
EndChar

StartChar: S
Encoding: 83 83 22
Width: 591
Flags: W
HStem: -10 70.2119<144.531 394.833> 667.909 71.2119<207.307 446.331>
VStem: 66.127 77.3115<471.427 610.232> 462.988 77.0316<120.208 261.963>
LayerCount: 2
Fore
SplineSet
283.3828125 333.490625 m 0
 116.975407968 376.461499744 66.126953125 436.023205193 66.126953125 534.05 c 0
 66.126953125 658.793798204 161.897565284 739.12109375 319.233398438 739.12109375 c 0
 451.446622478 739.12109375 515.745117188 688.891601562 515.745117188 688.891601562 c 1
 488.97109375 625.388671875 l 1
 488.97109375 625.388671875 426.774477975 667.909179688 329.21328125 667.909179688 c 0
 201.065571499 667.909179688 143.438476562 622.99407887 143.438476562 538.2 c 0
 143.438476562 471.055124963 181.07680785 434.248934935 321.997070312 398.731054688 c 0
 481.536010849 358.20334984 540.01953125 298.193004995 540.01953125 197.5 c 0
 540.01953125 69.6207132425 450.816836993 -10 283.8046875 -10 c 0
 144.265519656 -10 55.81640625 42.2294921875 55.81640625 42.2294921875 c 1
 79.97265625 108.732421875 l 1
 79.97265625 108.732421875 165.46363896 60.2119140623 275.146289062 60.2119140623 c 0
 397.120682045 60.2119140623 462.987890625 104.651398627 462.987890625 190.85 c 0
 462.987890625 263.191769461 433.664333992 294.811524421 283.3828125 333.490625 c 0
EndSplineSet
EndChar

StartChar: W
Encoding: 87 87 23
Width: 949
Flags: W
HStem: 0 21G<214.569 316.689 623.803 732.388> 711.008 20G<21.5 102.726 841.487 927.5>
LayerCount: 2
Fore
SplineSet
220 0 m 1
 21.5 731.0078125 l 1
 97.45 731.0078125 l 1
 266.756445312 89.1943359377 l 1
 426.7 671.0078125 l 1
 516.3 671.0078125 l 1
 677.856445312 89.1943359377 l 1
 846.75 731.0078125 l 1
 927.5 731.0078125 l 1
 726.9 0 l 1
 629.4 0 l 1
 471.5 564.271484375 l 1
 311 0 l 1
 220 0 l 1
EndSplineSet
EndChar

StartChar: X
Encoding: 88 88 24
Width: 689
Flags: W
HStem: 0 21G<28.45 137.343 551.657 660.55> 711.008 20G<38.45 146.007 542.993 650.55>
VStem: 334.4 20.2<324 401>
LayerCount: 2
Fore
SplineSet
123.05 0 m 1
 28.45 0 l 1
 293.05 369.4 l 1
 38.45 731.0078125 l 1
 132.55 731.0078125 l 1
 354.6 401 l 1
 354.6 324 l 1
 123.05 0 l 1
565.95 0 m 1
 334.4 324 l 1
 334.4 401 l 1
 556.45 731.0078125 l 1
 650.55 731.0078125 l 1
 395.95 369.4 l 1
 660.55 0 l 1
 565.95 0 l 1
EndSplineSet
EndChar

StartChar: Y
Encoding: 89 89 25
Width: 689
Flags: W
HStem: 0 21G<306 383> 282 46<312 377> 711.008 20G<36.5 134.27 554.73 652.5>
VStem: 306 77<0 328>
LayerCount: 2
Fore
SplineSet
312 282 m 1
 36.5 731.0078125 l 1
 122.2 731.0078125 l 1
 344.5 362.666015625 l 1
 566.8 731.0078125 l 1
 652.5 731.0078125 l 1
 377 282 l 1
 312 282 l 1
306 0 m 1
 306 328 l 1
 383 328 l 1
 383 0 l 1
 306 0 l 1
EndSplineSet
EndChar

StartChar: Z
Encoding: 90 90 26
Width: 594
Flags: W
HStem: 0 68.75<141.5 554> 662.25 68.75<50 452.5>
LayerCount: 2
Fore
SplineSet
554 0 m 1
 40 0 l 1
 40 53.75 l 1
 452.5 662.25 l 1
 50 662.25 l 1
 50 731 l 1
 544 731 l 1
 544 667.25 l 1
 141.5 68.75 l 1
 554 68.75 l 1
 554 0 l 1
EndSplineSet
EndChar

StartChar: ampersand
Encoding: 38 38 27
Width: 754
Flags: W
HStem: -10 64.2428<183.166 368.838 551.562 728.828> 677.062 61.9305<311.059 491.89>
VStem: 51.5 70.7869<109.279 252.466> 178.051 71.376<419.138 616.426> 605.6 69.4381<373.794 421.725>
LayerCount: 2
Fore
SplineSet
261.767578125 406.321289062 m 1
 282.741796875 354.213867188 l 0
 282.741796875 354.213867188 122.286914062 305.912385244 122.286914062 179.95 c 0
 122.286914062 99.6928410938 183.614838718 54.2427734375 277.215136719 54.2427734375 c 0
 389.638486163 54.2427734375 533.576158323 145.73029704 605.6 438.855078125 c 1
 675.038085938 419.8046875 l 1
 585.15356046 106.417214756 434.669343588 -10 265.928710938 -10 c 0
 130.185831027 -10 51.5 65.6420844784 51.5 175.185546875 c 0
 51.5 344.402992364 261.767578125 406.321289062 261.767578125 406.321289062 c 1
735.951171875 4.5546875 m 1
 735.951171875 4.5546875 708.886754975 -10 636 -10 c 0
 504.101137904 -10 419.400252187 72.086745829 344.5 162.5 c 0
 237.967542359 291.060951345 178.05078125 418.877565374 178.05078125 523.95 c 0
 178.05078125 664.580651163 257.975901282 738.9921875 390.522460938 738.9921875 c 0
 474.126634714 738.9921875 525.200390625 704.949414062 525.200390625 704.949414062 c 1
 507.1203125 648.148632812 l 1
 507.1203125 648.148632812 457.233475422 677.06171875 397.5 677.06171875 c 0
 300.014250766 677.06171875 249.426757812 623.668952075 249.426757812 522.95 c 0
 249.426757812 436.552317889 299.660292605 332.227833282 387.4375 222 c 0
 451.001902637 142.213845462 524.972667558 56.0546875 641.51171875 56.0546875 c 0
 695.522259228 56.0546875 726.42890625 65.9546875 726.42890625 65.9546875 c 1
 735.951171875 4.5546875 l 1
EndSplineSet
EndChar

StartChar: i
Encoding: 105 105 28
Width: 269
Flags: W
HStem: 0 21G<99.05 169.95> 481.011 20G<99.05 169.95> 603.051 107.449<90.3924 178.607>
VStem: 81.3867 106.227<612.16 701.39> 99.05 70.9<0 501.011>
LayerCount: 2
Fore
SplineSet
99.05 0 m 1xe8
 99.05 501.010742188 l 1
 169.95 501.010742188 l 1
 169.95 0 l 1
 99.05 0 l 1xe8
81.38671875 656.775390625 m 0xf0
 81.38671875 689.3226276 102.32223492 710.5 134.499023438 710.5 c 0
 166.67687132 710.5 187.61328125 689.3226276 187.61328125 656.775390625 c 0
 187.61328125 624.227565634 166.67687132 603.05078125 134.499023438 603.05078125 c 0
 102.32223492 603.05078125 81.38671875 624.227565634 81.38671875 656.775390625 c 0xf0
EndSplineSet
EndChar

StartChar: o
Encoding: 111 111 29
Width: 589
Flags: W
HStem: -9.99805 62.8119<209.644 381.739> 447.934 62.9994<203.601 385.141>
VStem: 51.5 69.9986<145.172 358.958> 468.279 69.9986<145.172 358.958>
LayerCount: 2
Fore
SplineSet
121.498632812 253.561523438 m 0
 121.498632812 133.182485394 179.765978734 52.8138671875 293.888671875 52.8138671875 c 0
 409.413816584 52.8138671875 468.278710938 133.182485394 468.278710938 253.561523438 c 0
 468.278710938 370.11777031 409.447079351 447.934179688 294 447.934179688 c 0
 179.799239907 447.934179688 121.498632812 370.11777031 121.498632812 253.561523438 c 0
51.5 253.561523438 m 0
 51.5 409.296356709 143.215212772 510.93359375 293.888671875 510.93359375 c 0
 445.805369434 510.93359375 538.27734375 409.296356709 538.27734375 253.561523438 c 0
 538.27734375 94.0826581123 445.805369434 -9.998046875 293.888671875 -9.998046875 c 0
 143.215212772 -9.998046875 51.5 94.0826581123 51.5 253.561523438 c 0
EndSplineSet
EndChar

StartChar: n
Encoding: 110 110 30
Width: 595
Flags: W
HStem: 0 21G<72.8 143.7 458.577 529.477> 447.784 63.1494<224.808 400.837> 481.011 20G<72.8 143.7>
VStem: 72.8 70.9<0 501.011> 458.577 70.9<0 386.615>
LayerCount: 2
Fore
SplineSet
143.7 284 m 1xd8
 101.7 293.561523438 l 1
 126.892844473 444 200.183778107 510.93359375 335.5 510.93359375 c 0
 463.60014878 510.93359375 529.47734375 439.87366718 529.47734375 291.561523438 c 2
 529.47734375 0 l 1
 458.57734375 0 l 1
 458.57734375 274.561523438 l 2
 458.57734375 397.292316764 414.878114593 447.784179688 312 447.784179688 c 0
 207.800053296 447.784179688 143.7 382.213759332 143.7 284 c 1xd8
72.8 0 m 1
 72.8 501.010742188 l 1
 143.7 501.010742188 l 1xb8
 143.7 0 l 1
 72.8 0 l 1
EndSplineSet
EndChar

StartChar: m
Encoding: 109 109 31
Width: 882
Flags: W
HStem: 0 21G<72.8 143.7 405.827 476.727 745.355 816.255> 447.784 63.1494<205.341 358.742 538.895 699.942> 481.011 20G<72.8 143.7>
VStem: 72.8 70.9<0 501.011> 405.827 70.9<0 399.223> 745.355 70.9<0 400.881>
LayerCount: 2
Fore
SplineSet
476.72734375 284 m 1xdc
 425.77734375 306.561523438 l 1
 449.267677775 448.002983076 511.46839543 510.93359375 643.77734375 510.93359375 c 0
 751.179168409 510.93359375 816.2546875 447.323924219 816.2546875 314.561523438 c 2
 816.2546875 0 l 1
 745.3546875 0 l 1
 745.3546875 297.561523438 l 2
 745.3546875 399.222581482 709.555926063 447.784179688 625.27734375 447.784179688 c 0
 521.217200336 447.784179688 476.72734375 382.21375933 476.72734375 284 c 1xdc
143.7 284 m 1
 94.7 293.561523438 l 1
 116.929614263 444 176.140889732 510.93359375 301 510.93359375 c 0
 410.620799106 510.93359375 476.72734375 447.323924219 476.72734375 314.561523438 c 2
 476.72734375 0 l 1
 405.82734375 0 l 1
 405.82734375 297.561523438 l 2
 405.82734375 399.222581482 369.059657027 447.784179688 282.5 447.784179688 c 0
 191.769788584 447.784179688 143.7 382.213759332 143.7 284 c 1
72.8 0 m 1
 72.8 501.010742188 l 1
 143.7 501.010742188 l 1xbc
 143.7 0 l 1
 72.8 0 l 1
EndSplineSet
EndChar

StartChar: p
Encoding: 112 112 32
Width: 602
Flags: W
HStem: -9.99805 62.4619<224.42 404.498> 449.284 61.6494<224.082 407.552> 481.011 20G<72.8 143.7>
VStem: 72.8 70.9<-180 501.011> 108.351 35.3486<66.4394 183.562 283.562 425.747> 483.08 69.3486<138.028 366.194>
LayerCount: 2
Fore
SplineSet
72.8 -180 m 1xb4
 72.8 501.010742188 l 1
 143.7 501.010742188 l 1
 143.7 -180 l 1
 72.8 -180 l 1xb4
143.7 213.561523438 m 1
 143.7 135.075695392 195.91382252 52.4638671875 318.040039062 52.4638671875 c 0
 433.651551237 52.4638671875 483.080078125 132.972606662 483.080078125 253.561523438 c 0
 483.080078125 370.927302557 433.68489336 449.284179688 318.151367188 449.284179688 c 0
 208.947164643 449.284179688 143.7 382.937697055 143.7 283.561523438 c 1xd4
 107.351367188 283.561523438 l 1
 107.351367188 425.746590474 194.413122698 510.93359375 328.5 510.93359375 c 0
 470.740588621 510.93359375 552.428710938 409.296356709 552.428710938 253.561523438 c 0
 552.428710938 94.0826581123 466.956780901 -9.998046875 326.540039062 -9.998046875 c 0
 190.90976528 -9.998046875 108.351367188 66.4393843715 108.351367188 183.561523438 c 1xcc
 143.7 213.561523438 l 1
EndSplineSet
EndChar

StartChar: j
Encoding: 106 106 33
Width: 269
Flags: W
HStem: -190 61.65<-70.8363 71.9971> 481.011 20G<99.05 169.95> 603.051 107.449<90.3924 178.607>
VStem: 81.3867 106.227<612.16 701.39> 99.05 70.9<-98.7532 501.011>
LayerCount: 2
Fore
SplineSet
99.05 -15.1 m 2xe8
 99.05 -15.1 99.05 501.010742188 99.05 501.010742188 c 1
 169.95 501.010742188 l 1
 169.95 -15.5 l 2
 169.95 -120.530805687 127.479310345 -190 25.05 -190 c 0
 -36.9010432546 -190 -79.75 -171.35 -79.75 -171.35 c 1
 -67.05 -111.8 l 1
 -67.05 -111.8 -36.1918931227 -128.35 7 -128.35 c 0
 71.8080541992 -128.35 99.05 -94.2385542167 99.05 -15.1 c 2xe8
81.38671875 656.775390625 m 0xf0
 81.38671875 689.3226276 102.32223492 710.5 134.499023438 710.5 c 0
 166.67687132 710.5 187.61328125 689.3226276 187.61328125 656.775390625 c 0
 187.61328125 624.227565634 166.67687132 603.05078125 134.499023438 603.05078125 c 0
 102.32223492 603.05078125 81.38671875 624.227565634 81.38671875 656.775390625 c 0xf0
EndSplineSet
EndChar

StartChar: k
Encoding: 107 107 34
Width: 555
Flags: W
HStem: 0 21G<72.8 143.7 421.808 535> 228.8 54.4<86.8 215.7> 481.011 20G<412.774 525> 731.002 20G<72.8 143.7>
VStem: 72.8 70.9<0 228.8 283.2 751.002> 86.8 56.9<228.8 283.2>
LayerCount: 2
Fore
SplineSet
215.7 283.2 m 1xf4
 215.7 228.8 l 1
 86.8 228.8 l 1
 86.8 283.2 l 1
 215.7 283.2 l 1xf4
441.55 0 m 1
 215.7 228.8 l 1
 215.7 283.2 l 1
 432.7 501.010742188 l 1
 525 501.010742188 l 1
 285 258.5 l 1
 535 0 l 1
 441.55 0 l 1
72.8 0 m 1xf8
 72.8 751.001953125 l 1
 143.7 751.001953125 l 1
 143.7 0 l 1
 72.8 0 l 1xf8
EndSplineSet
EndChar

StartChar: l
Encoding: 108 108 35
Width: 371
Flags: W
HStem: -10.0088 65<180.668 314.456> 731.002 20G<76.3 147.2>
VStem: 76.3 70.9<88.4062 751.002>
LayerCount: 2
Fore
SplineSet
147.2 178.991210938 m 2
 147.2 92.3406085269 177.001889647 54.9912109375 247.9 54.9912109375 c 0
 285.229927886 54.9912109375 311.9 68.5912109377 311.9 68.5912109377 c 1
 322 5.9912109375 l 1
 322 5.9912109375 285.938187167 -10.0087890625 233.8 -10.0087890625 c 0
 122.463793103 -10.0087890625 76.3 52.2170403211 76.3 160.991210938 c 2
 76.3 751.001953125 l 1
 147.2 751.001953125 l 1
 147.2 178.991210938 l 2
EndSplineSet
EndChar

StartChar: h
Encoding: 104 104 36
Width: 595
Flags: W
HStem: 0 21G<72.8 143.7 458.577 529.477> 447.784 63.1494<224.531 400.837> 731.002 20G<72.8 143.7>
VStem: 72.8 70.9<0 751.002> 458.577 70.9<0 386.615>
LayerCount: 2
Fore
SplineSet
72.8 0 m 1
 72.8 751.001953125 l 1
 143.7 751.001953125 l 1
 143.7 0 l 1
 72.8 0 l 1
143.7 284 m 9
 101.7 293.561523438 l 17
 126.892844473 444 199.630586618 510.93359375 335.5 510.93359375 c 0
 463.60014878 510.93359375 529.47734375 439.87366718 529.47734375 291.561523438 c 2
 529.47734375 0 l 1
 458.57734375 0 l 1
 458.57734375 274.561523438 l 2
 458.57734375 397.292316764 414.878114593 447.784179688 312 447.784179688 c 0
 207.10486613 447.784179688 143.7 382.213759332 143.7 284 c 9
EndSplineSet
EndChar

StartChar: q
Encoding: 113 113 37
Width: 602
Flags: W
HStem: -9.99805 62.4619<207.02 388.269> 447.984 62.9494<203.84 392.011> 481.011 20G<463.3 534.2>
VStem: 54.5713 69.3486<140.036 360.952> 463.3 70.9<-180 501.011> 463.3 42.4986<66.4394 183.562 283.562 425.747>
LayerCount: 2
Fore
SplineSet
534.2 -180 m 1xb8
 463.3 -180 l 1
 463.3 501.010742188 l 1
 534.2 501.010742188 l 1
 534.2 -180 l 1xb8
463.3 205.561523438 m 1
 505.798632812 183.561523438 l 1xd4
 505.798632812 66.4393843713 422.99428722 -9.998046875 286.959960938 -9.998046875 c 0
 142.502694114 -9.998046875 54.5712890625 94.0826581121 54.5712890625 253.561523438 c 0
 54.5712890625 409.296356709 138.630580278 510.93359375 285 510.93359375 c 0
 423.919496826 510.93359375 503.398632812 425.746590474 503.398632812 283.561523438 c 1
 463.3 275.561523438 l 1
 463.3 378.955375617 414.047776898 447.984179688 298.848632812 447.984179688 c 0xd8
 176.310048181 447.984179688 123.919921875 370.147752984 123.919921875 253.561523438 c 0
 123.919921875 132.972606662 176.343390303 52.4638671875 298.959960938 52.4638671875 c 0
 414.08111902 52.4638671875 463.3 130.973248213 463.3 205.561523438 c 1
EndSplineSet
EndChar

StartChar: g
Encoding: 103 103 38
Width: 602
Flags: W
HStem: -190 63.25<154.941 393.665> 20.002 60.0619<203.027 388.228> 449.734 61.1994<203.765 390.163> 481.011 20G<463.3 534.2>
VStem: 54.5713 69.3486<161.703 369.048> 463.3 70.9<-59.6486 33.8 223.562 501.011> 463.3 45.0986<100.388 429.493>
LayerCount: 2
Fore
SplineSet
463.3 33.8 m 2xdc
 463.3 501.010742188 l 1
 534.2 501.010742188 l 1
 534.2 31 l 2
 534.2 -102.018957346 464.089655173 -190 295 -190 c 0
 170.565891173 -190 84.5 -146 84.5 -146 c 1
 102.65 -82.1 l 1
 102.65 -82.1 177.180349966 -126.75 281.5 -126.75 c 0
 409.496787109 -126.75 463.3 -78.3915662652 463.3 33.8 c 2xdc
463.3 235.561523438 m 1
 508.398632812 223.561523438 l 1xea
 508.398632812 100.388423477 433.17311864 20.001953125 286.959960938 20.001953125 c 0
 131.738411309 20.001953125 54.5712890625 115.39477208 54.5712890625 261.561523438 c 0
 54.5712890625 412.455587994 127.859295306 510.93359375 285 510.93359375 c 0
 425.990508751 510.93359375 503.398632812 429.493180948 503.398632812 293.561523438 c 1
 463.3 285.561523438 l 1
 463.3 384.008234105 409.417318963 449.734179688 294.848632812 449.734179688 c 0xec
 175.112071564 449.734179688 123.919921875 375.600957955 123.919921875 264.561523438 c 0
 123.919921875 153.926855039 176.343390303 80.0638671877 298.959960938 80.0638671877 c 0
 414.081119021 80.0638671877 463.3 159.803982366 463.3 235.561523438 c 1
EndSplineSet
Substitution2: "'ss14' Style Set 14 lookup 19-1" g.ss14
EndChar

StartChar: f
Encoding: 102 102 39
Width: 398
Flags: W
HStem: 0 21G<139.05 209.95> 441.15 59.8607<30.5 365.5> 702.411 58.6<244.765 388.42>
VStem: 139.05 70.9<0 667.572>
LayerCount: 2
Fore
SplineSet
30.5 501.010742188 m 1
 365.5 501.010742188 l 1
 365.5 441.15 l 1
 30.5 441.15 l 1
 30.5 501.010742188 l 1
209.95 576.510742188 m 2
 209.95 0 l 1
 139.05 0 l 1
 139.05 589.510742188 l 2
 139.05 692.735706908 185.785208548 761.010742188 298.5 761.010742188 c 0
 355.840174279 761.010742188 395.5 745.010742188 395.5 745.010742188 c 1
 385.4 688.810742188 l 1
 385.4 688.810742188 356.06265625 702.410742188 315 702.410742188 c 0
 241.03967615 702.410742188 209.95 664.488487264 209.95 576.510742188 c 2
EndSplineSet
EndChar

StartChar: c
Encoding: 99 99 40
Width: 492
Flags: W
HStem: -9.99805 61.0619<211.6 420.613> 448.984 61.9494<207.215 404.952>
VStem: 51.5 69.4486<144.7 359.242>
LayerCount: 2
Fore
SplineSet
51.5 253.561523438 m 0
 51.5 409.296356709 140.26273146 510.93359375 294.238671875 510.93359375 c 0
 412.121138402 510.93359375 460.581640625 458.604101562 460.581640625 458.604101562 c 1
 436.95546875 408.651171875 l 1
 436.95546875 408.651171875 391.702882086 448.984179688 299.95 448.984179688 c 0
 181.058495857 448.984179688 120.948632812 370.747406501 120.948632812 253.561523438 c 0
 120.948632812 132.133091738 182.283029181 51.0638671875 304.038671875 51.0638671875 c 0
 389.633869518 51.0638671875 434.968554688 79.495703125 434.968554688 79.495703125 c 1
 454.777148438 25.345703125 l 1
 454.777148438 25.345703125 397.017937231 -9.998046875 296.688671875 -9.998046875 c 0
 141.334819365 -9.998046875 51.5 94.0826581128 51.5 253.561523438 c 0
EndSplineSet
Substitution2: "'ss12' Style Set 12 lookup 13-1" c.ss12
EndChar

StartChar: t
Encoding: 116 116 41
Width: 412
Flags: W
HStem: -10 62.25<237.029 362.973> 441.5 59.5107<30.5 365.5>
VStem: 139.05 70.9<80.824 655.611>
LayerCount: 2
Fore
SplineSet
30.5 501.010742188 m 1
 365.5 501.010742188 l 1
 365.5 441.5 l 1
 30.5 441.5 l 1
 30.5 501.010742188 l 1
209.95 166.5 m 2
 209.95 86.663166202 235.564578494 52.25 296.5 52.25 c 0
 333.800523681 52.25 360.45 63.25 360.45 63.25 c 1
 370.5 4 l 1
 370.5 4 334.315519832 -10 282 -10 c 0
 165.6602457 -10 139.05 60.7939836593 139.05 151.5 c 2
 139.05 655.610742188 l 1
 209.95 664.760742188 l 1
 209.95 166.5 l 2
EndSplineSet
Substitution2: "'ss11' Style Set 11 lookup 12-1" t.ss11
EndChar

StartChar: r
Encoding: 114 114 42
Width: 420
Flags: W
HStem: 0 21G<72.8 143.7> 450.284 60.6494<207.69 380.545> 481.011 20G<72.8 143.7>
VStem: 72.8 70.9<0 501.011>
LayerCount: 2
Fore
SplineSet
72.8 0 m 1xb0
 72.8 501.010742188 l 1
 143.7 501.010742188 l 1
 143.7 0 l 1
 72.8 0 l 1xb0
294.45 510.93359375 m 0xd0
 364.884528775 510.93359375 392 484.93359375 392 484.93359375 c 1
 374.45 428.93359375 l 1
 374.45 428.93359375 342.392900509 450.284179688 288.25 450.284179688 c 0
 199.387324118 450.284179688 143.7 393.994436026 143.7 284 c 1
 103 293.561523438 l 1
 123.528345097 444 175.150278022 510.93359375 294.45 510.93359375 c 0xd0
EndSplineSet
EndChar

StartChar: e
Encoding: 101 101 43
Width: 551
Flags: W
HStem: -9.99805 61.0119<215.332 452.542> 222.55 57.4<91.75 441.3> 449.684 61.2494<200.134 371.932>
VStem: 91.75 30.1486<222.55 279.95> 441.25 68.7158<279.954 378.102>
LayerCount: 2
Fore
SplineSet
51.5 253.561523438 m 0
 51.5 409.296356709 140.944928142 510.93359375 287.888671875 510.93359375 c 0
 456.969184329 510.93359375 509.965820312 378.19821507 509.965820312 283.1609375 c 0
 509.965820312 245.742243441 505.5 222.55 505.5 222.55 c 1
 91.75 222.55 l 1
 91.75 279.95 l 1
 441.3 279.95 l 1
 441.3 279.95 441.822675846 285.271679066 441.25 296 c 0
 438.574716981 376.130750404 394.753786699 449.684179688 285.25 449.684179688 c 0
 170.821412347 449.684179688 121.898632812 370.366470997 121.898632812 251.561523438 c 0
 121.898632812 120.511802072 184.195672153 51.0138671875 325.15 51.0138671875 c 0
 415.329181272 51.0138671875 466.718554688 79.145703125 466.718554688 79.145703125 c 1
 480.327148438 18.595703125 l 1
 480.327148438 18.595703125 423.170781287 -9.998046875 323.888671875 -9.998046875 c 0
 135.708944481 -9.998046875 51.5 94.0826581128 51.5 253.561523438 c 0
EndSplineSet
Substitution2: "'ss03' Style Set 3 lookup 4-1" e.ss03
EndChar

StartChar: d
Encoding: 100 100 44
Width: 602
Flags: W
HStem: -9.99805 62.2994<205.8 385.875> 0 21G<463.3 534.2> 447.822 63.1119<208.908 385.926> 731.002 20G<463.3 534.2>
VStem: 54.5713 69.3486<141.789 355.683> 463.3 70.9<217.374 751.002> 463.3 36.3486<75.1885 217.374 317.374 434.496>
LayerCount: 2
Fore
SplineSet
534.2 0 m 1x7c
 463.3 0 l 1x7a
 463.3 751.001953125 l 1
 534.2 751.001953125 l 1
 534.2 0 l 1x7c
463.3 295.374023438 m 1xbc
 463.3 369.646048762 412.584331531 447.821679688 293.959960938 447.821679688 c 0
 181.346588639 447.821679688 123.919921875 367.573618393 123.919921875 247.374023438 c 0
 123.919921875 130.398352357 181.311903174 52.3013671875 293.848632812 52.3013671875 c 0
 412.54948162 52.3013671875 463.3 121.590766818 463.3 225.374023438 c 1xbc
 499.648632812 217.374023438 l 1xba
 499.648632812 75.1884765622 413.767740225 -9.998046875 281.5 -9.998046875 c 0
 137.354156017 -9.998046875 54.5712890625 91.639648437 54.5712890625 247.374023438 c 0
 54.5712890625 406.852539062 141.178107741 510.93359375 283.459960938 510.93359375 c 0
 414.738754474 510.93359375 494.648632812 434.49609375 494.648632812 317.374023438 c 1
 463.3 295.374023438 l 1xbc
EndSplineSet
Substitution2: "'ss05' Style Set 5 lookup 6-1" d.ss05
EndChar

StartChar: b
Encoding: 98 98 45
Width: 602
Flags: W
HStem: -9.99805 62.2994<217.911 404.823> 0 21G<72.8 143.7> 447.822 63.1119<223.743 401.723> 731.002 20G<72.8 143.7>
VStem: 72.8 70.9<197.374 751.002> 113.851 29.8486<55.1885 197.374 297.374 424.496> 483.08 69.3486<136.879 360.717>
LayerCount: 2
Fore
SplineSet
72.8 0 m 1x7a
 72.8 751.001953125 l 1
 143.7 751.001953125 l 1x7a
 143.7 0 l 1x76
 72.8 0 l 1x7a
143.7 295.374023438 m 1
 108.851367188 297.374023438 l 1
 108.851367188 424.49609375 192.545060142 510.93359375 330.040039062 510.93359375 c 0
 468.281360072 510.93359375 552.428710938 406.852539062 552.428710938 247.374023438 c 0
 552.428710938 91.639648437 472.017023165 -9.998046875 332 -9.998046875 c 0
 199.732259775 -9.998046875 113.851367188 55.1884765622 113.851367188 197.374023438 c 1xb6
 143.7 225.374023438 l 1
 143.7 121.590766818 194.45051838 52.3013671875 313.151367188 52.3013671875 c 0xba
 432.188096826 52.3013671875 483.080078125 130.398352357 483.080078125 247.374023438 c 0
 483.080078125 367.573618393 432.153411361 447.821679688 313.040039062 447.821679688 c 0
 194.415668469 447.821679688 143.7 369.646048762 143.7 295.374023438 c 1
EndSplineSet
EndChar

StartChar: a
Encoding: 97 97 46
Width: 566
Flags: W
HStem: -9.99805 61.6619<147.218 319.284 457.93 532.853> 239.284 57.6494<184.796 397.027> 449.761 61.25<133.603 330.868>
VStem: 41.5 73.7486<81.2134 190.606> 381.179 69.5<55.5539 239.284 296.934 398.716> 381.179 31.8486<57.3566 160.562>
LayerCount: 2
Back
SplineSet
357.928710938 177.561523438 m 5x7c
 407.77734375 180.561523438 l 5x7a
 407.77734375 65.2546726394 343.443566636 -9.998046875 207.888671875 -9.998046875 c 4
 103.525845263 -9.998046875 40 50 40 141 c 4
 40 286.71747631 179.159368499 309.798279039 373.928710938 309.93359375 c 5
 373.77734375 224.284179688 l 5x79
 214.9215174 224.170106541 164.848632812 210.544945242 164.848632812 148.561523438 c 4
 164.848632812 111.324445486 189.419144912 86.4638671875 246.888671875 86.4638671875 c 4
 313.711369303 86.4638671875 357.928710938 123.027306191 357.928710938 177.561523438 c 5x7c
357.928710938 299.010742188 m 6xbc
 357.928710938 377.97408765 325.670027448 412.010742188 248.928710938 412.010742188 c 4
 170.769677734 412.010742188 114.928710938 368.010742188 114.928710938 368.010742188 c 5
 79.9287109375 467.010742188 l 5
 79.9287109375 467.010742188 159.657226562 511.010742188 274.928710938 511.010742188 c 4
 417.721987032 511.010742188 476.928710938 427.01055301 476.928710938 300.010742188 c 6
 476.928710938 118 l 6
 476.928710938 93.251950046 485.36431245 84 507.928710938 84 c 4
 525.694039812 84 536.928710938 91 536.928710938 91 c 5
 545.928710938 13 l 5
 545.928710938 13 520.8653569 -9.998046875 467.928710938 -9.998046875 c 4
 394.082557091 -9.998046875 357.928710938 33 357.928710938 125 c 6
 357.928710938 299.010742188 l 6xbc
EndSplineSet
Fore
SplineSet
381.178710938 177.561523438 m 1xf8
 413.02734375 160.561523438 l 1xf4
 413.02734375 57.3565944281 350.222344822 -9.998046875 217.888671875 -9.998046875 c 0
 108.242081825 -9.998046875 41.5 47.9338153691 41.5 132.55 c 0
 41.5 274.789410625 200.875622986 296.80192356 397.178710938 296.93359375 c 1
 397.02734375 239.284179688 l 1
 218.644784177 239.127903081 115.248632812 221.235708954 115.248632812 135.546533203 c 0
 115.248632812 86.9534713755 149.80727495 51.6638671875 230.638671875 51.6638671875 c 0
 321.232043113 51.6638671875 381.178710938 102.194818965 381.178710938 177.561523438 c 1xf8
381.178710938 302.010742188 m 2xf8
 381.178710938 405.257063355 340.707380964 449.760742188 244.428710938 449.760742188 c 0
 157.957989501 449.760742188 96.1787109377 410.760742188 96.1787109377 410.760742188 c 1
 74.9287109375 467.010742188 l 1
 74.9287109375 467.010742188 148.31983173 511.010742188 254.428710938 511.010742188 c 0
 393.157326944 511.010742188 450.678710938 432.185920115 450.678710938 313.010742188 c 2
 450.678710938 119.5 l 2
 450.678710938 68.1114021543 462.665428569 48.9 494.728710938 48.9 c 0
 516.598443379 48.9 530.428710938 57.55 530.428710938 57.55 c 1
 530.428710938 57.55 539.428710938 6.15 539.428710938 6.15 c 1
 539.428710938 6.15 516.913692364 -9.998046875 477.075048828 -9.998046875 c 0
 410.007147107 -9.998046875 381.178710938 30.9296937166 381.178710938 118.5 c 2
 381.178710938 302.010742188 l 2xf8
EndSplineSet
Substitution2: "'ss15' Style Set 15 lookup 20-1" a.ss15
Substitution2: "'ss02' Style Set 2 lookup 3-1" a.ss02
EndChar

StartChar: plus
Encoding: 43 43 47
Width: 450
Flags: W
HStem: 328.2 59.6<30 420>
VStem: 195.2 59.6<163 553>
LayerCount: 2
Fore
SplineSet
254.8 553 m 1
 254.8 163 l 1
 195.2 163 l 1
 195.2 553 l 1
 254.8 553 l 1
420 328.2 m 1
 30 328.2 l 1
 30 387.8 l 1
 420 387.8 l 1
 420 328.2 l 1
EndSplineSet
EndChar

StartChar: s
Encoding: 115 115 48
Width: 476
Flags: W
HStem: -9.99805 60.4795<99.7687 322.921> 451.004 59.9293<162.282 375.7>
VStem: 55.7041 70.5576<316.359 417.987> 356.521 68.6689<81.7805 181.387>
LayerCount: 2
Fore
SplineSet
219.786962891 223.317919922 m 0
 88.7305840522 248.545919215 55.7041015625 292.757220593 55.7041015625 361.5 c 0
 55.7041015625 454.586916816 131.499051459 510.93359375 256.017578125 510.93359375 c 0
 360.851312061 510.93359375 411.834960938 473.225585938 411.834960938 473.225585938 c 1
 393.294921875 421.244335938 l 1
 393.294921875 421.244335938 340.706683648 451.004296875 263.193164062 451.004296875 c 0
 168.739654661 451.004296875 126.26171875 418.092397446 126.26171875 365.018554688 c 0
 126.26171875 319.071613982 153.611828061 297.490049441 251.529248047 278.930468749 c 0
 381.143059463 253.694530626 425.189453125 209.217466389 425.189453125 136.90234375 c 0
 425.189453125 46.3693122123 356.486247076 -9.998046875 227.856445312 -9.998046875 c 0
 118.082448768 -9.998046875 48.5 26.5625 48.5 26.5625 c 1
 65.314453125 86.361328125 l 1
 65.314453125 86.361328125 132.554998645 50.4814453125 214.993164062 50.4814453125 c 0
 310.873105045 50.4814453125 356.520507812 78.1563940621 356.520507812 131.836914062 c 0
 356.520507812 173.76890595 334.422907589 201.569009777 219.786962891 223.317919922 c 0
EndSplineSet
EndChar

StartChar: y
Encoding: 121 121 49
Width: 539
Flags: W
HStem: 481.011 20G<21.5 106.348 433.265 517.5>
LayerCount: 2
Fore
SplineSet
235.05 21.05 m 1
 235.05 21.05 21.5 501.010742188 21.5 501.010742188 c 1
 97.4 501.010742188 l 1
 275.606445312 102.694335938 l 1
 441.6 501.010742188 l 1
 517.5 501.010742188 l 1
 230.65 -179.994140625 l 1
 151.35 -179.994140625 l 1
 151.35 -179.994140625 235.05 21.05 235.05 21.05 c 1
EndSplineSet
Substitution2: "'ss04' Style Set 4 lookup 5-1" y.ss04
EndChar

StartChar: u
Encoding: 117 117 50
Width: 595
Flags: W
HStem: -9.92285 63.1494<201.44 377.747> 0 21G<458.577 529.477> 481.011 20G<72.8 143.7 458.577 529.477>
VStem: 72.8 70.9<114.396 501.011> 458.577 70.9<207.449 501.011>
LayerCount: 2
Fore
SplineSet
458.57734375 217.010742188 m 9xb8
 500.57734375 207.44921875 l 17
 475.384499277 57.0107421877 402.646757132 -9.9228515625 266.77734375 -9.9228515625 c 0
 138.67719497 -9.9228515625 72.8 61.1370750081 72.8 209.44921875 c 2
 72.8 501.010742188 l 1
 143.7 501.010742188 l 1
 143.7 226.44921875 l 2
 143.7 103.718425422 187.399229157 53.2265625 290.27734375 53.2265625 c 0
 395.17247762 53.2265625 458.57734375 118.796982856 458.57734375 217.010742188 c 9xb8
529.47734375 501.010742188 m 1
 529.47734375 0 l 1
 458.57734375 0 l 1x78
 458.57734375 501.010742188 l 1
 529.47734375 501.010742188 l 1
EndSplineSet
Substitution2: "'ss05' Style Set 5 lookup 6-1" u.ss05
EndChar

StartChar: backslash
Encoding: 92 92 51
Width: 434
Flags: W
LayerCount: 2
Fore
SplineSet
321.45 -171.469726562 m 1
 46.45 761.403320312 l 1
 112.55 761.403320312 l 1
 387.55 -171.469726562 l 1
 321.45 -171.469726562 l 1
EndSplineSet
EndChar

StartChar: equal
Encoding: 61 61 52
Width: 450
Flags: W
HStem: 245.6 56.75<30 420> 413.65 56.75<30 420>
LayerCount: 2
Back
SplineSet
420 285 m 5xea
 30 285 l 5
 30 431 l 5
 420 431 l 5
 420 285 l 5xea
EndSplineSet
Fore
SplineSet
420 245.6 m 1
 30 245.6 l 1
 30 302.35 l 1
 420 302.35 l 1
 420 245.6 l 1
420 413.65 m 1
 30 413.65 l 1
 30 470.4 l 1
 420 470.4 l 1
 420 413.65 l 1
EndSplineSet
EndChar

StartChar: v
Encoding: 118 118 53
Width: 539
Flags: W
HStem: 0 21G<222.637 325.964> 481.011 20G<21.5 105.552 433.828 517.5>
LayerCount: 2
Fore
SplineSet
231 0 m 1
 21.5 501.010742188 l 1
 97.4 501.010742188 l 1
 273.606445312 68.6943359377 l 1
 441.6 501.010742188 l 1
 517.5 501.010742188 l 1
 318 0 l 1
 231 0 l 1
EndSplineSet
EndChar

StartChar: w
Encoding: 119 119 54
Width: 735
Flags: W
HStem: 0 21G<159.8 257.531 476.522 574.24> 481.011 20G<21.5 97.8202 637.18 713.5>
LayerCount: 2
Fore
SplineSet
165.55 0 m 1
 21.5 501.010742188 l 1
 92.3 501.010742188 l 1
 210.106445312 74.1943359377 l 1
 322.4 451.010742188 l 1
 411.95 451.010742188 l 1
 524.893554688 74.1943359377 l 1
 642.7 501.010742188 l 1
 713.5 501.010742188 l 1
 568.45 0 l 1
 482.65 0 l 1
 367.5 375.841796875 l 1
 251.35 0 l 1
 165.55 0 l 1
EndSplineSet
EndChar

StartChar: x
Encoding: 120 120 55
Width: 528
Flags: W
HStem: 0 21G<21.5 127.156 403.789 506.5> 481.011 20G<31.5 131.058 396.942 496.5>
VStem: 255.3 17.4<212.7 288.4>
LayerCount: 2
Fore
SplineSet
112.05 0 m 1
 21.5 0 l 1
 219.7 252.65 l 1
 31.5 501.010742188 l 1
 116.35 501.010742188 l 1
 272.7 288.4 l 1
 272.7 212.7 l 1
 112.05 0 l 1
419.2 0 m 1
 255.3 212.7 l 1
 255.3 288.4 l 1
 411.65 501.010742188 l 1
 496.5 501.010742188 l 1
 308.3 252.65 l 1
 506.5 0 l 1
 419.2 0 l 1
EndSplineSet
EndChar

StartChar: z
Encoding: 122 122 56
Width: 478
Flags: W
HStem: 0 64.25<127.3 438> 436.761 64.25<50 340.7>
LayerCount: 2
Fore
SplineSet
438 0 m 1
 40 0 l 1
 40 63.5 l 1
 340.7 436.760742188 l 1
 50 436.760742188 l 1
 50 501.010742188 l 1
 428 501.010742188 l 1
 428 440.760742188 l 1
 127.3 64.25 l 1
 438 64.25 l 1
 438 0 l 1
EndSplineSet
EndChar

StartChar: period
Encoding: 46 46 57
Width: 245
Flags: W
HStem: -10 107.449<78.5058 166.72>
VStem: 69.5 106.227<-0.890432 88.3395>
LayerCount: 2
Fore
SplineSet
69.5 43.724609375 m 0
 69.5 76.2716082791 90.4357744906 97.44921875 122.612304688 97.44921875 c 0
 154.789899596 97.44921875 175.7265625 76.2716082791 175.7265625 43.724609375 c 0
 175.7265625 11.1770476857 154.789899596 -10 122.612304688 -10 c 0
 90.4357744908 -10 69.5 11.1770476857 69.5 43.724609375 c 0
EndSplineSet
EndChar

StartChar: two
Encoding: 50 50 58
Width: 608
Flags: W
HStem: 0 68.05<132.163 568.549> 671.749 67.2436<172.045 404.365>
VStem: 54.5 77.6635<68.05 147.882> 482.126 72.1359<447.71 601.862>
LayerCount: 2
Fore
SplineSet
482.12578125 523.15 m 0
 482.12578125 605.114483224 433.243549897 671.748632812 289.828125 671.748632812 c 0
 180.660833666 671.748632812 102.488085938 615.954882812 102.488085938 615.954882812 c 1
 76.172265625 678.396875 l 1
 76.172265625 678.396875 164.555212283 738.9921875 293.19140625 738.9921875 c 0
 455.985786082 738.9921875 554.26171875 665.793426828 554.26171875 521.33359375 c 0
 554.26171875 395.05715991 465.296438795 341.745882849 349.374023438 287.7234375 c 0
 157.557296278 200.207309924 132.908766257 141.526097215 132.163476562 68.05 c 1
 568.548828125 68.05 l 1
 568.548828125 0 l 1
 54.5 0 l 1
 54.5 54 l 2
 54.5 192.449899868 146.782464065 273.302436207 314.821289062 350.576953125 c 0
 419.573537831 397.806574275 482.12578125 433.693110725 482.12578125 523.15 c 0
EndSplineSet
Substitution2: "'onum' Oldstyle Figures lookup 18-1" two.osf
Substitution2: "'tnum' Tabular Numbers lookup 17-1" two.tf
Substitution2: "'numr' Numerators lookup 0 subtable" two.numr
Substitution2: "'dnom' Denominators lookup 0 subtable" two.dnom
Substitution2: "'sups' Superscript lookup 0 subtable" two.superior
Substitution2: "'sinf' Scientific Inferiors lookup 0 subtable" two.inferior
Substitution2: "'sups' Superscript lookup 0 subtable" two.superior
EndChar

StartChar: three
Encoding: 51 51 59
Width: 579
Flags: W
HStem: -9.99805 65.6875<109.86 372.082> 340.5 64.4814<164.139 378.886> 672.099 66.8936<122.965 369.24>
VStem: 440.434 72.1359<460.028 609.409> 453.227 75.184<123.675 276.386>
LayerCount: 2
Fore
SplineSet
265.138671875 404.981445312 m 2xe8
 384.147872316 404.981445312 440.434375 447.63879942 440.434375 532.50859375 c 0
 440.434375 611.859791477 394.364053119 672.098632812 249.422851562 672.098632812 c 0
 132.936840375 672.098632812 64.9466796875 622.304882812 64.9466796875 622.304882812 c 1
 41.130859375 684.796875 l 1
 41.130859375 684.796875 118.989319603 738.9921875 253.95 738.9921875 c 0
 416.019126755 738.9921875 512.5703125 669.427657009 512.5703125 537.418164062 c 0xf0
 512.5703125 405.012228841 390.663085938 373.747265625 390.663085938 373.747265625 c 1
 390.663085938 373.747265625 528.411132812 346.628019628 528.411132812 199.384814453 c 0
 528.411132812 52.8844062768 417.114765774 -9.998046875 250 -9.998046875 c 0
 107.010162165 -9.998046875 21.951171875 40.9091796875 21.951171875 40.9091796875 c 1
 45.5244140625 106.062695312 l 1
 45.5244140625 106.062695312 121.175063286 55.689453125 246.5 55.689453125 c 0
 387.448284985 55.689453125 453.227148438 106.675575996 453.227148438 198.6 c 0
 453.227148438 296.45021918 388.552770845 339.910600251 265.138671875 340.237304688 c 2
 164 340.5 l 1
 164.138671875 404.981445312 l 1
 265.138671875 404.981445312 l 2xe8
EndSplineSet
Substitution2: "'onum' Oldstyle Figures lookup 18-1" three.osf
Substitution2: "'tnum' Tabular Numbers lookup 17-1" three.tf
Substitution2: "'numr' Numerators lookup 0 subtable" three.numr
Substitution2: "'dnom' Denominators lookup 0 subtable" three.dnom
Substitution2: "'sups' Superscript lookup 0 subtable" three.superior
Substitution2: "'sinf' Scientific Inferiors lookup 0 subtable" three.inferior
Substitution2: "'sups' Superscript lookup 0 subtable" three.superior
EndChar

StartChar: comma
Encoding: 44 44 61
Width: 252
Flags: W
HStem: -11.3992 108.848<80.1772 124.198>
VStem: 69.5 113.227<0.623465 85.0677>
LayerCount: 2
Fore
SplineSet
69.5 43.724609375 m 0
 69.5 76.2716082791 90.4357744906 97.44921875 122.612304688 97.44921875 c 0
 159.030628426 97.44921875 182.7265625 73.6232115407 182.7265625 30.5 c 0
 182.7265625 -42.8033331108 102.8 -100.4 102.8 -100.4 c 1
 70.45 -66.5 l 1
 70.45 -66.5 108.10953547 -43.6918269555 124.198242188 -11.39921875 c 1
 90.7846869707 -8.55966275019 69.5 12.5191937219 69.5 43.724609375 c 0
EndSplineSet
EndChar

StartChar: zero
Encoding: 48 48 63
Width: 683
Flags: W
HStem: -9.99805 67.8619<246.817 436.96> 671.259 67.8619<246.817 436.96>
VStem: 51.5 73.4486<207.933 521.19> 558.829 73.4486<207.933 521.19>
LayerCount: 2
Fore
SplineSet
124.948632812 364.561523438 m 0
 124.948632812 180.649195295 189.920906297 57.8638671875 341.888671875 57.8638671875 c 0
 493.856437453 57.8638671875 558.828710938 180.649195295 558.828710938 364.561523438 c 0
 558.828710938 548.473851575 493.856437453 671.259179688 341.888671875 671.259179688 c 0
 189.920906297 671.259179688 124.948632812 548.473851575 124.948632812 364.561523438 c 0
51.5 364.561523438 m 0
 51.5 591.206054688 151.91514408 739.12109375 341.888671875 739.12109375 c 0
 531.86219967 739.12109375 632.27734375 591.206054688 632.27734375 364.561523438 c 0
 632.27734375 137.916992188 531.86219967 -9.998046875 341.888671875 -9.998046875 c 0
 151.91514408 -9.998046875 51.5 137.916992188 51.5 364.561523438 c 0
EndSplineSet
Substitution2: "'onum' Oldstyle Figures lookup 18-1" zero.osf
Substitution2: "'tnum' Tabular Numbers lookup 17-1" zero.tf
Substitution2: "'numr' Numerators lookup 0 subtable" zero.numr
Substitution2: "'dnom' Denominators lookup 0 subtable" zero.dnom
Substitution2: "'sups' Superscript lookup 0 subtable" zero.superior
Substitution2: "'sinf' Scientific Inferiors lookup 0 subtable" zero.inferior
Substitution2: "'sups' Superscript lookup 0 subtable" zero.superior
EndChar

StartChar: one
Encoding: 49 49 64
Width: 415
Flags: W
HStem: 0 21G<260 337> 711 20G<238.382 337>
VStem: 260 77<0 645.45>
LayerCount: 2
Fore
SplineSet
337 731 m 1
 337 0 l 1
 260 0 l 1
 260 645.45 l 1
 68 547.45 l 1
 39.5 608 l 1
 277 731 l 1
 337 731 l 1
EndSplineSet
Substitution2: "'onum' Oldstyle Figures lookup 18-1" one.osf
Substitution2: "'tnum' Tabular Numbers lookup 17-1" one.tf
Substitution2: "'numr' Numerators lookup 0 subtable" one.numr
Substitution2: "'dnom' Denominators lookup 0 subtable" one.dnom
Substitution2: "'sups' Superscript lookup 0 subtable" one.superior
Substitution2: "'sinf' Scientific Inferiors lookup 0 subtable" one.inferior
Substitution2: "'sups' Superscript lookup 0 subtable" one.superior
EndChar

StartChar: four
Encoding: 52 52 65
Width: 660
Flags: W
HStem: 0 21G<419.7 493.3> 195.2 65.05<146 613.5> 711 20G<406.455 493.3>
VStem: 419.7 73.6<0 622.5>
LayerCount: 2
Fore
SplineSet
493.3 731 m 1
 493.3 0 l 1
 419.7 0 l 1
 419.7 622.5 l 1
 146 260.25 l 1
 613.5 260.25 l 1
 613.5 195.2 l 1
 72.5 195.2 l 1
 56 251.25 l 1
 421.7 731 l 1
 493.3 731 l 1
EndSplineSet
Substitution2: "'onum' Oldstyle Figures lookup 18-1" four.osf
Substitution2: "'tnum' Tabular Numbers lookup 17-1" four.tf
Substitution2: "'numr' Numerators lookup 0 subtable" four.numr
Substitution2: "'dnom' Denominators lookup 0 subtable" four.dnom
Substitution2: "'sups' Superscript lookup 0 subtable" four.superior
Substitution2: "'sinf' Scientific Inferiors lookup 0 subtable" four.inferior
Substitution2: "'sups' Superscript lookup 0 subtable" four.superior
EndChar

StartChar: exclam
Encoding: 33 33 66
Width: 274
Flags: W
HStem: -10 107.449<92.8925 181.107> 711.008 20G<100.4 177.6>
VStem: 83.8867 106.227<-0.890432 88.3395> 100.4 77.2<347.107 731.008> 109.9 58.2<210 593.9>
LayerCount: 2
Fore
SplineSet
109.9 210 m 1xc8
 100.4 731.0078125 l 1
 177.6 731.0078125 l 1xd0
 168.1 210 l 1
 109.9 210 l 1xc8
83.88671875 43.724609375 m 0xe0
 83.88671875 76.2716082791 104.822493241 97.44921875 136.999023438 97.44921875 c 0
 169.176618346 97.44921875 190.11328125 76.2716082791 190.11328125 43.724609375 c 0
 190.11328125 11.1770476857 169.176618346 -10 136.999023438 -10 c 0
 104.822493241 -10 83.88671875 11.1770476857 83.88671875 43.724609375 c 0xe0
EndSplineSet
EndChar

StartChar: five
Encoding: 53 53 67
Width: 594
Flags: W
HStem: -9.99805 67.7426<123.29 371.682> 410.386 63.8346<205.279 394.708> 663.091 67.917<162.055 504.672>
VStem: 470.295 73.0324<145.709 333.53>
LayerCount: 2
Fore
SplineSet
267 -9.998046875 m 0
 119.621063247 -9.998046875 31.951171875 40.9091796875 31.951171875 40.9091796875 c 1
 54.5244140625 106.812695312 l 1
 54.5244140625 106.812695312 140.942579109 57.74453125 252 57.74453125 c 0
 405.743683578 57.74453125 470.294726562 126.987433673 470.294726562 239.076171875 c 0
 470.294726562 346.369512384 411.80837318 410.385546875 297.5 410.385546875 c 0
 172.727456527 410.385546875 133.8 315.9 133.8 315.9 c 1
 65.197265625 334.578515625 l 1
 101.25 731.0078125 l 1
 504.671875 731.0078125 l 1
 504.671875 663.090820312 l 1
 162.0546875 663.090820312 l 1
 137.570703125 401.472265625 l 1
 137.570703125 401.472265625 179.564802744 474.220117188 314.815429688 474.220117188 c 0
 456.076259654 474.220117188 543.327148438 386.802974595 543.327148438 240.997070312 c 0
 543.327148438 85.427045197 443.757972166 -9.998046875 267 -9.998046875 c 0
EndSplineSet
Substitution2: "'onum' Oldstyle Figures lookup 18-1" five.osf
Substitution2: "'tnum' Tabular Numbers lookup 17-1" five.tf
Substitution2: "'numr' Numerators lookup 0 subtable" five.numr
Substitution2: "'dnom' Denominators lookup 0 subtable" five.dnom
Substitution2: "'sups' Superscript lookup 0 subtable" five.superior
Substitution2: "'sinf' Scientific Inferiors lookup 0 subtable" five.inferior
Substitution2: "'sups' Superscript lookup 0 subtable" five.superior
EndChar

StartChar: six
Encoding: 54 54 68
Width: 640
Flags: W
HStem: -9.99805 68.2387<231.111 432.354> 415.541 61.059<230.681 433.111> 672.72 66.2727<252.811 486.677>
VStem: 51.5 66.3037<352.992 507.359> 519.348 69.3166<143.317 330.824>
LayerCount: 2
Back
SplineSet
188.3984375 236.890625 m 4
 188.3984375 160.019065367 229.88147703 103.890625 330.3984375 103.890625 c 4
 431.623435844 103.890625 473.3984375 160.019065367 473.3984375 236.890625 c 4
 473.3984375 314.340166284 431.623435844 370.890625 330.3984375 370.890625 c 4
 229.88147703 370.890625 188.3984375 314.340166284 188.3984375 236.890625 c 4
173.303710938 405.747070312 m 5
 173.303710938 405.747070312 214.094697864 475.599609375 341.263671875 475.599609375 c 4
 515.711185917 475.599609375 595.165039062 379.238029036 595.165039062 239 c 4
 595.165039062 79.095703125 494.937095781 -9.998046875 331.297851562 -9.998046875 c 4
 151.540405276 -9.998046875 45 99.6728515624 45 365.331054688 c 4
 45 605.528320312 159.046377502 738.9921875 364.297851562 738.9921875 c 4
 505.428880973 738.9921875 576.923828125 678.860351562 576.923828125 678.860351562 c 5
 532.619140625 573.388671875 l 5
 532.619140625 573.388671875 473.487673927 622.51953125 364.778320312 622.51953125 c 4
 242.266224145 622.51953125 180.301516454 546.295339891 173.303710938 405.747070312 c 5
EndSplineSet
Fore
SplineSet
139.8484375 236.890625 m 0
 139.8484375 133.634202982 201.924724921 58.240625 330.3984375 58.240625 c 0
 461.586378666 58.240625 519.3484375 133.634202982 519.3484375 236.890625 c 0
 519.3484375 340.147047018 464.149930068 415.540625 330.3984375 415.540625 c 0
 201.924724921 415.540625 139.8484375 340.147047018 139.8484375 236.890625 c 0
117.803710938 351.247070312 m 1
 117.803710938 351.247070312 152.742563626 476.599609375 340.363671875 476.599609375 c 0
 494.95737821 476.599609375 588.665039062 379.830752031 588.665039062 239 c 0
 588.665039062 79.095703125 490.90607132 -9.998046875 331.297851562 -9.998046875 c 0
 149.771551516 -9.998046875 51.5 99.6728515623 51.5 365.331054688 c 0
 51.5 605.528320312 159.652929676 738.9921875 354.297851562 738.9921875 c 0
 493.437623389 738.9921875 563.923828125 683.410351562 563.923828125 683.410351562 c 1
 539.619140625 624.888671875 l 1
 539.619140625 624.888671875 476.295222696 672.71953125 359.878320312 672.71953125 c 0
 204.990589139 672.71953125 120.368065638 580.454590462 117.803710938 351.247070312 c 1
EndSplineSet
Substitution2: "'onum' Oldstyle Figures lookup 18-1" six.osf
Substitution2: "'tnum' Tabular Numbers lookup 17-1" six.tf
Substitution2: "'numr' Numerators lookup 0 subtable" six.numr
Substitution2: "'dnom' Denominators lookup 0 subtable" six.dnom
Substitution2: "'ss07' Style Set 7 lookup 8-1" six.ss07
Substitution2: "'sups' Superscript lookup 0 subtable" six.superior
Substitution2: "'sinf' Scientific Inferiors lookup 0 subtable" six.inferior
Substitution2: "'sups' Superscript lookup 0 subtable" six.superior
EndChar

StartChar: parenright
Encoding: 41 41 69
Width: 402
Flags: W
HStem: -171.47 64.8254<46.5 141.838> 694.644 64.8254<46.5 141.838>
VStem: 285.098 70.5287<88.8455 499.154>
LayerCount: 2
Fore
SplineSet
46.5 -106.644335938 m 1
 199.906118496 -106.644335938 285.098242188 4.3591477669 285.098242188 294 c 0
 285.098242188 583.640852232 199.906118496 694.644335938 46.5 694.644335938 c 1
 46.5 759.469726562 l 1
 247.515751937 759.469726562 355.626953125 611.823242188 355.626953125 294 c 0
 355.626953125 -23.823242188 247.515751937 -171.469726562 46.5 -171.469726562 c 1
 46.5 -106.644335938 l 1
EndSplineSet
EndChar

StartChar: seven
Encoding: 55 55 70
Width: 604
Flags: W
HStem: 0 21G<206.3 284.93> 662.6 68.4<50 471.3>
VStem: 206.3 76.7<0 172.615>
LayerCount: 2
Fore
SplineSet
283 0 m 1
 206.3 0 l 1
 219.782526932 390.713162393 471.3 662.6 471.3 662.6 c 1
 50 662.6 l 1
 50 731 l 1
 554 731 l 1
 554 666.6 l 1
 554 666.6 286.860232436 386.19536 283 0 c 1
EndSplineSet
Substitution2: "'onum' Oldstyle Figures lookup 18-1" seven.osf
Substitution2: "'tnum' Tabular Numbers lookup 17-1" seven.tf
Substitution2: "'numr' Numerators lookup 0 subtable" seven.numr
Substitution2: "'dnom' Denominators lookup 0 subtable" seven.dnom
Substitution2: "'sups' Superscript lookup 0 subtable" seven.superior
Substitution2: "'sinf' Scientific Inferiors lookup 0 subtable" seven.inferior
Substitution2: "'sups' Superscript lookup 0 subtable" seven.superior
EndChar

StartChar: eight
Encoding: 56 56 71
Width: 647
Flags: W
HStem: -9.99805 63.7637<205.266 441.734> 351.897 58.3141<220.25 430.831> 366.073 35.2568<169.424 480.83> 674.648 64.2367<223.927 425.607>
VStem: 51.5 70.4176<126.616 276.822> 86.7598 68.5885<469.146 612.746> 496.652 68.5885<470.484 612.746> 525.082 70.4176<126.616 276.822>
LayerCount: 2
Fore
SplineSet
324.8 410.211523438 m 0xd6
 430.830529974 410.211523438 496.651757812 459.981041169 496.651757812 539.019140625 c 0
 496.651757812 624.295221212 432.928500821 674.648046875 323.5 674.648046875 c 0
 217.231844324 674.648046875 155.348242188 624.295221212 155.348242188 539.019140625 c 0
 155.348242188 459.981041169 220.250275836 410.211523438 324.8 410.211523438 c 0xd6
323.5 738.884765625 m 0
 474.17623843 738.884765625 565.240234375 665.090820312 565.240234375 543.655273438 c 0
 565.240234375 433.825105603 480.829614693 366.073242188 323.5 366.073242188 c 0xb6
 169.424308094 366.073242188 86.759765625 433.825105603 86.759765625 543.655273438 c 0
 86.759765625 665.090820312 175.9399958 738.884765625 323.5 738.884765625 c 0
323.5 53.765625 m 0
 447.28507983 53.765625 525.082421875 106.920491877 525.082421875 202.970507812 c 0
 525.082421875 294.052310387 447.313039849 351.897460938 323.5 351.897460938 c 0
 199.686960151 351.897460938 121.917578125 294.052310387 121.917578125 202.970507812 c 0xd9
 121.917578125 106.920491877 199.71492017 53.765625 323.5 53.765625 c 0
323.5 401.330078125 m 0xb9
 498.963639267 401.330078125 595.5 329.171488596 595.5 198.631835938 c 0
 595.5 72.3246491128 488.497923765 -9.998046875 323.5 -9.998046875 c 0
 158.502076235 -9.998046875 51.5 72.324649113 51.5 198.631835938 c 0
 51.5 329.171488596 148.036360733 401.330078125 323.5 401.330078125 c 0xb9
EndSplineSet
Substitution2: "'onum' Oldstyle Figures lookup 18-1" eight.osf
Substitution2: "'tnum' Tabular Numbers lookup 17-1" eight.tf
Substitution2: "'numr' Numerators lookup 0 subtable" eight.numr
Substitution2: "'dnom' Denominators lookup 0 subtable" eight.dnom
Substitution2: "'sups' Superscript lookup 0 subtable" eight.superior
Substitution2: "'sinf' Scientific Inferiors lookup 0 subtable" eight.inferior
Substitution2: "'sups' Superscript lookup 0 subtable" eight.superior
EndChar

StartChar: nine
Encoding: 57 57 72
Width: 640
Flags: W
HStem: -9.99805 66.2727<153.488 387.354> 252.395 62.359<207.404 412.692> 670.754 68.2387<208.046 410.448>
VStem: 51.5 70.0166<398.515 585.677> 522.361 66.3037<221.636 376.002>
LayerCount: 2
Fore
SplineSet
501.016601562 492.103515625 m 0
 501.016601562 595.359937643 438.940314143 670.753515625 310.466601562 670.753515625 c 0
 179.919548248 670.753515625 121.516601562 595.359937643 121.516601562 492.103515625 c 0
 121.516601562 389.598469754 176.715108996 314.753515625 310.466601562 314.753515625 c 0
 438.940314143 314.753515625 501.016601562 389.598469754 501.016601562 492.103515625 c 0
522.361328125 377.747070312 m 1
 522.361328125 377.747070312 487.574184978 252.39453125 299.801367188 252.39453125 c 0
 145.207660853 252.39453125 51.5 349.164169963 51.5 489.994140625 c 0
 51.5 649.8984375 149.258967745 738.9921875 308.8671875 738.9921875 c 0
 491.043487546 738.9921875 588.665039062 629.321289062 588.665039062 363.663085938 c 0
 588.665039062 123.465820312 480.512109386 -9.998046875 285.8671875 -9.998046875 c 0
 146.727415673 -9.998046875 76.2412109375 45.5837890625 76.2412109375 45.5837890625 c 1
 100.545898438 104.10546875 l 1
 100.545898438 104.10546875 163.869816366 56.274609375 280.28671875 56.274609375 c 0
 435.174449924 56.274609375 519.796973424 148.540722842 522.361328125 377.747070312 c 1
EndSplineSet
Substitution2: "'onum' Oldstyle Figures lookup 18-1" nine.osf
Substitution2: "'tnum' Tabular Numbers lookup 17-1" nine.tf
Substitution2: "'numr' Numerators lookup 0 subtable" nine.numr
Substitution2: "'dnom' Denominators lookup 0 subtable" nine.dnom
Substitution2: "'ss07' Style Set 7 lookup 8-1" nine.ss07
Substitution2: "'sups' Superscript lookup 0 subtable" nine.superior
Substitution2: "'sinf' Scientific Inferiors lookup 0 subtable" nine.inferior
Substitution2: "'sups' Superscript lookup 0 subtable" nine.superior
EndChar

StartChar: question
Encoding: 63 63 73
Width: 562
Flags: W
HStem: -10 107.449<180.892 269.107> 299.594 59.9551<226.041 379.85> 672.429 66.5637<116.78 351.616>
VStem: 171.887 106.227<-0.890432 88.3395> 191.923 67.9561<210 301.953> 443.596 71.7744<419.382 590.64>
LayerCount: 2
Back
SplineSet
152.38671875 63.224609375 m 0xf4
 152.38671875 107.584937143 181.008990842 136.44921875 224.999023438 136.44921875 c 0
 268.990077228 136.44921875 297.61328125 107.584937143 297.61328125 63.224609375 c 0
 297.61328125 18.8635145521 268.990077228 -10 224.999023438 -10 c 0
 181.008990842 -10 152.38671875 18.8635145521 152.38671875 63.224609375 c 0xf4
280.88671875 300.653320312 m 1
 282.37890625 210 l 1
 169.422851562 210 l 1xec
 171.15625 399.46875 l 1
 171.15625 399.46875 208.949224154 395.048828125 256.3984375 395.048828125 c 0
 348.180522211 395.048828125 392.095703125 431.389934102 392.095703125 499.145507812 c 0
 392.095703125 585.201602829 327.571533338 623.228515625 232.89453125 623.228515625 c 0
 138.66274719 623.228515625 76.923828125 573.958007812 76.923828125 573.958007812 c 1
 30.2412109375 685.311523438 l 1
 30.2412109375 685.311523438 107.390463661 738.9921875 239.89453125 738.9921875 c 0
 405.150107971 738.9921875 521.870117188 670 521.870117188 501.010742188 c 0
 521.870117188 365.685958308 421.37343496 300.59375 309 300.59375 c 0
 290.63582236 300.59375 280.88671875 300.653320312 280.88671875 300.653320312 c 1
EndSplineSet
Fore
SplineSet
171.88671875 43.724609375 m 0xf4
 171.88671875 76.2716082791 192.822493241 97.44921875 224.999023438 97.44921875 c 0
 257.176618346 97.44921875 278.11328125 76.2716082791 278.11328125 43.724609375 c 0
 278.11328125 11.1770476857 257.176618346 -10 224.999023438 -10 c 0
 192.822493241 -10 171.88671875 11.1770476857 171.88671875 43.724609375 c 0xf4
258.38671875 301.953320312 m 1
 259.87890625 210 l 1
 191.922851562 210 l 1xec
 193.65625 365.26875 l 1
 193.65625 365.26875 230.78418419 359.548828125 277.3984375 359.548828125 c 0
 389.809925249 359.548828125 443.595703125 409.679746519 443.595703125 503.145507812 c 0
 443.595703125 620.549452654 359.819802782 672.428515625 236.89453125 672.428515625 c 0
 125.89721395 672.428515625 53.173828125 619.458007812 53.173828125 619.458007812 c 1
 26.7412109375 685.311523438 l 1
 26.7412109375 685.311523438 105.178410755 738.9921875 239.89453125 738.9921875 c 0
 401.34069573 738.9921875 515.370117188 661.327703299 515.370117188 505.010742188 c 0
 515.370117188 366.309877707 417.637636868 299.59375 304.2 299.59375 c 0
 274.27381573 299.59375 258.38671875 301.953320312 258.38671875 301.953320312 c 1
EndSplineSet
EndChar

StartChar: hyphen
Encoding: 45 45 74
Width: 354
Flags: W
HStem: 247.5 64<46.5 307.5>
VStem: 46.5 261<247.5 311.5>
LayerCount: 2
Fore
SplineSet
307.5 247.5 m 1
 46.5 247.5 l 1
 46.5 311.5 l 1
 307.5 311.5 l 1
 307.5 247.5 l 1
EndSplineSet
EndChar

StartChar: quotesingle
Encoding: 39 39 75
Width: 266
Flags: W
HStem: 456 275.008<109 161>
VStem: 99.5 71<528.37 731.008> 109 52<456 658.637>
LayerCount: 2
Fore
SplineSet
109 456 m 1xa0
 99.5 731.0078125 l 1
 170.5 731.0078125 l 1xc0
 161 456 l 1
 109 456 l 1xa0
EndSplineSet
EndChar

StartChar: parenleft
Encoding: 40 40 77
Width: 402
Flags: W
HStem: -171.47 64.8254<260.289 355.627> 694.644 64.8254<260.289 355.627>
VStem: 46.5 70.5287<88.8455 499.154>
LayerCount: 2
Fore
SplineSet
355.626953125 -106.644335938 m 1
 355.626953125 -171.469726562 l 1
 154.611201188 -171.469726562 46.5 -23.823242188 46.5 294 c 0
 46.5 611.823242188 154.611201188 759.469726562 355.626953125 759.469726562 c 1
 355.626953125 694.644335938 l 1
 202.220834629 694.644335938 117.028710938 583.640852232 117.028710938 294 c 0
 117.028710938 4.3591477669 202.220834629 -106.644335938 355.626953125 -106.644335938 c 1
EndSplineSet
EndChar

StartChar: asterisk
Encoding: 42 42 78
Width: 400
Flags: W
HStem: 718.992 20G<166.384 234.055>
VStem: 172.843 54.7535<581.601 738.992>
LayerCount: 2
Fore
SplineSet
234.055273438 738.9921875 m 1
 227.596484375 581.601367188 l 1
 373.390429688 638.349804688 l 1
 395.440429688 574.119140625 l 1
 246.646484375 534.267578125 l 1
 348.655273438 415.506835938 l 1
 297.00390625 372.116992188 l 1
 200.219726562 505.675195312 l 1
 103.435546875 372.116992188 l 1
 51.7841796875 415.506835938 l 1
 153.79296875 534.267578125 l 1
 5 574.119140625 l 1
 5 574.119140625 27.05 638.349804688 27.05 638.349804688 c 1
 27.05 638.349804688 172.84296875 581.601367188 172.84296875 581.601367188 c 1
 166.384179688 738.9921875 l 1
 234.055273438 738.9921875 l 1
EndSplineSet
Substitution2: "'ss13' Style Set 13 lookup 14-1" asterisk.ss13
EndChar

StartChar: less
Encoding: 60 60 79
Width: 450
Flags: W
LayerCount: 2
Fore
SplineSet
420 168 m 1
 30 324.5 l 1
 30 391.5 l 1
 420 548 l 1
 420 486 l 1
 420 486 106.954101562 358 106.954101562 358 c 1
 106.954101562 358 420 230 420 230 c 1
 420 168 l 1
EndSplineSet
EndChar

StartChar: greater
Encoding: 62 62 80
Width: 450
Flags: W
LayerCount: 2
Fore
SplineSet
30 548 m 1
 420 391.5 l 1
 420 324.5 l 1
 30 168 l 1
 30 230 l 1
 339.545898438 358 l 1
 30 486 l 1
 30 548 l 1
EndSplineSet
EndChar

StartChar: slash
Encoding: 47 47 81
Width: 434
Flags: W
LayerCount: 2
Fore
SplineSet
46.45 -171.469726562 m 1
 321.45 761.403320312 l 1
 387.55 761.403320312 l 1
 112.55 -171.469726562 l 1
 46.45 -171.469726562 l 1
EndSplineSet
EndChar

StartChar: bar
Encoding: 124 124 82
Width: 249
Flags: W
VStem: 92.75 63.5<-171.47 759.47>
LayerCount: 2
Fore
SplineSet
92.75 -171.469726562 m 1
 92.75 759.469726562 l 1
 156.25 759.469726562 l 1
 156.25 -171.469726562 l 1
 92.75 -171.469726562 l 1
EndSplineSet
EndChar

StartChar: bracketleft
Encoding: 91 91 83
Width: 375
Flags: W
HStem: -171.47 60.75<143.7 318.5> 699.72 59.75<143.7 318.5>
VStem: 76.3 67.4<-110.72 699.72>
LayerCount: 2
Fore
SplineSet
76.3 759.469726562 m 1
 318.5 759.469726562 l 1
 318.5 699.719726562 l 1
 143.7 699.719726562 l 1
 143.7 -110.719726562 l 1
 318.5 -110.719726562 l 1
 318.5 -171.469726562 l 1
 76.3 -171.469726562 l 1
 76.3 759.469726562 l 1
EndSplineSet
EndChar

StartChar: bracketright
Encoding: 93 93 84
Width: 375
Flags: W
HStem: -171.47 60.75<56.5 231.3> 699.37 60.1<56.5 231.3>
VStem: 231.3 67.4<-110.72 699.37>
LayerCount: 2
Fore
SplineSet
298.7 -171.469726562 m 1
 56.5 -171.469726562 l 1
 56.5 -110.719726562 l 1
 231.3 -110.719726562 l 1
 231.3 699.369726562 l 1
 56.5 699.369726562 l 1
 56.5 759.469726562 l 1
 298.7 759.469726562 l 1
 298.7 -171.469726562 l 1
EndSplineSet
EndChar

StartChar: asciicircum
Encoding: 94 94 85
Width: 449
Flags: W
HStem: 440 291.008
LayerCount: 2
Fore
SplineSet
264.5 731.0078125 m 1
 427.5 440 l 1
 359.5 440 l 1
 225.393554688 681.813476562 l 1
 90.5 440 l 1
 21.5 440 l 1
 184.5 731.0078125 l 1
 264.5 731.0078125 l 1
EndSplineSet
EndChar

StartChar: braceleft
Encoding: 123 123 86
Width: 433
Flags: W
HStem: -171.47 58.7461<240.337 377.718> 281.032 67<50 142.419> 700.724 58.7461<240.244 377.816>
VStem: 153 70<-93.9766 272.132 358.274 681.976>
LayerCount: 2
Fore
SplineSet
175.65 314.532226562 m 1
 175.65 314.532226562 223 291.07984561 223 216.032226562 c 2
 223 -37.4736328125 l 2
 223 -95.2512376571 254.274809966 -112.723632812 310 -112.723632812 c 0
 364.099277712 -112.723632812 376 -104.473632812 376 -104.473632812 c 1
 383 -159.519726562 l 1
 383 -159.519726562 348.479381444 -171.469726562 292.5 -171.469726562 c 0
 189.796875 -171.469726562 153 -121.782421875 153 -37.4697265625 c 2
 153 206.032226562 l 2
 153 263.283990675 134.501953125 281.032226562 98 281.032226562 c 2
 50 281.032226562 l 1
 50 348.032226562 l 1
 98 348.032226562 l 2
 134.501953125 348.032226562 153 365.781643776 153 423.032226562 c 2
 153 625.469726562 l 2
 153 709.780112593 189.796875 759.469726562 292.5 759.469726562 c 0
 343.581185567 759.469726562 383 747.519726562 383 747.519726562 c 1
 376 692.473632812 l 1
 376 692.473632812 355.131564669 700.723632812 309 700.723632812 c 0
 253.915453767 700.723632812 223 683.250217014 223 625.473632812 c 2
 223 413.032226562 l 2
 223 336.111165365 175.65 314.532226562 175.65 314.532226562 c 1
EndSplineSet
EndChar

StartChar: grave
Encoding: 96 96 87
Width: 242
Flags: W
HStem: 536 205.008
VStem: 24 194
LayerCount: 2
Fore
SplineSet
170.5 536 m 1
 24 711.0078125 l 1
 91 741.0078125 l 1
 218 556 l 1
 170.5 536 l 1
EndSplineSet
EndChar

StartChar: underscore
Encoding: 95 95 88
Width: 564
Flags: W
HStem: -58.5 58.5<40 524>
LayerCount: 2
Fore
SplineSet
524 -58.5 m 1
 40 -58.5 l 1
 40 0 l 1
 524 0 l 1
 524 -58.5 l 1
EndSplineSet
EndChar

StartChar: dollar
Encoding: 36 36 89
Width: 591
Flags: W
HStem: -105 141.97<261.25 327.75> -10 70.2119<144.531 394.833> 667.909 71.2119<207.307 446.331> 694 135.47<261.25 327.75>
VStem: 66.127 77.3115<471.427 610.232> 261.25 66.5<-105 36.9697 694 829.47> 462.988 77.0316<120.208 261.963>
LayerCount: 2
Fore
SplineSet
261.25 -105 m 1x8e
 261.25 36.9697265625 l 1
 327.75 36.9697265625 l 1
 327.75 -105 l 1
 261.25 -105 l 1x8e
261.25 694 m 1x1e
 261.25 829.469726562 l 1
 327.75 829.469726562 l 1
 327.75 694 l 1
 261.25 694 l 1x1e
EndSplineSet
Refer: 22 83 N 1 0 0 1 0 0 2
EndChar

StartChar: percent
Encoding: 37 37 90
Width: 953
Flags: W
HStem: -9.99805 58.6303<654.624 790.336> 0 21G<220.5 302.675> 303.222 58.6293<650.316 794.672> 367.143 58.6293<162.861 300.418> 680.362 58.6303<159.633 303.672> 711.008 20G<653.325 735.5>
VStem: 51.5 65.2602<473.022 634.226> 348.31 63.1498<473.022 634.226> 542.5 64.2602<95.8817 257.086> 839.31 63.1498<95.8817 257.086>
LayerCount: 2
Fore
SplineSet
606.76015625 176.481445312 m 0xb3c0
 606.76015625 84.7627590098 661.987925349 48.6322265625 722.48046875 48.6322265625 c 0
 782.014826941 48.6322265625 839.31015625 84.7627590098 839.31015625 176.481445312 c 0
 839.31015625 269.425359939 782.014826941 303.222265625 722.48046875 303.222265625 c 0
 661.987925349 303.222265625 606.76015625 269.425359939 606.76015625 176.481445312 c 0xb3c0
542.5 176.481445312 m 0
 542.5 278.624023438 608.16842204 361.8515625 722.48046875 361.8515625 c 0
 836.791551316 361.8515625 902.459960938 278.624023438 902.459960938 176.481445312 c 0
 902.459960938 74.4218750004 836.791551316 -9.998046875 722.48046875 -9.998046875 c 0
 608.16842204 -9.998046875 542.5 74.4218750004 542.5 176.481445312 c 0
116.76015625 553.622070312 m 0
 116.76015625 461.903836187 171.537221082 425.771875 231.48046875 425.771875 c 0
 291.014826941 425.771875 348.31015625 461.903836187 348.31015625 553.622070312 c 0
 348.31015625 646.564837864 291.014826941 680.361914062 231.48046875 680.361914062 c 0x3bc0
 171.537221082 680.361914062 116.76015625 646.564837864 116.76015625 553.622070312 c 0
51.5 553.622070312 m 0
 51.5 655.764648438 117.16842204 738.9921875 231.48046875 738.9921875 c 0
 345.791551316 738.9921875 411.459960938 655.764648438 411.459960938 553.622070312 c 0
 411.459960938 451.5625 345.791551316 367.142578125 231.48046875 367.142578125 c 0
 117.16842204 367.142578125 51.5 451.5625 51.5 553.622070312 c 0
EndSplineSet
Refer: 138 8260 N 1 0 0 1 301 0 2
EndChar

StartChar: at
Encoding: 64 64 91
Width: 924
Flags: W
HStem: -159.727 59.2578<346.521 650.56> 71.9697 58.8539<370.046 513.436 660.889 779.444> 422.203 56.8734<387.432 530.945> 650.238 57.4883<341.945 614.19>
VStem: 41.5 60.4248<132.636 406.178> 258.092 70.4666<172.879 358.576> 573.383 69.5023<191.51 331.945> 576.733 45.6217<154.179 350.156> 827.467 55.3201<193.273 448.241>
LayerCount: 2
Fore
SplineSet
328.558398438 261.0546875 m 0xfe80
 328.558398438 175.836374386 367.331427906 130.823632812 440.744335938 130.823632812 c 0
 524.509926714 130.823632812 573.382617188 191.510107425 573.382617188 295.529296875 c 0
 573.382617188 377.338960163 530.724596467 422.202734375 461.434960938 422.202734375 c 0
 377.428707941 422.202734375 328.558398438 362.934399548 328.558398438 261.0546875 c 0xfe80
423.392578125 71.9697265625 m 0
 324.434441995 71.9697265625 258.091796875 146.245237785 258.091796875 257.037109375 c 0
 258.091796875 388.627283766 339.080906946 479.076171875 451 479.076171875 c 0
 565.99720151 479.076171875 622.354882812 397.667942314 622.354882812 271.12734375 c 0xfd80
 622.354882812 154.178659737 540.2280188 71.9697265625 423.392578125 71.9697265625 c 0
487.713867188 -159.7265625 m 0
 211.422203215 -159.7265625 41.5 14.611328125 41.5 268.08984375 c 0
 41.5 524.041992188 219.669157232 707.7265625 476.420898438 707.7265625 c 0
 713.664852705 707.7265625 882.787109375 561.379882812 882.787109375 321.901367188 c 0
 882.787109375 171.18359375 817.346575413 72.708984375 703.126953125 72.708984375 c 0
 623.884147753 72.708984375 576.733203125 120.982421875 576.733203125 228.081054688 c 0xfd80
 576.733203125 350.15625 615.763476562 476.46484375 615.763476562 476.46484375 c 1
 684.17890625 476.46484375 l 1
 684.17890625 476.46484375 642.884960938 331.944544316 642.884960938 227.827148438 c 0xfe80
 642.884960938 161.687955531 663.965043935 126.784765625 714.5 126.784765625 c 0
 770.870095161 126.784765625 827.466992188 169.049023895 827.466992188 328.072265625 c 0
 827.466992188 533.972016525 680.324575081 650.23828125 474.934375 650.23828125 c 0
 259.605312912 650.23828125 101.924804688 502.741428122 101.924804688 267.489257812 c 0
 101.924804688 38.8450725448 247.897570027 -100.46875 497.6796875 -100.46875 c 0
 671.595261527 -100.46875 780.31328125 -20.0423828125 780.31328125 -20.0423828125 c 1
 805.250976562 -72.2255859375 l 1
 805.250976562 -72.2255859375 701.004882812 -159.7265625 487.713867188 -159.7265625 c 0
EndSplineSet
EndChar

StartChar: numbersign
Encoding: 35 35 92
Width: 767
Flags: W
HStem: 0 21G<132.1 201.164 402.1 471.164> 198.3 62.4<61.5 670.5> 453.3 62.4<96.5 705.5> 711.008 20G<292.586 361.65 562.586 631.65>
LayerCount: 2
Fore
SplineSet
96.5 515.7 m 1
 705.5 515.7 l 1
 705.5 453.3 l 1
 96.5 453.3 l 1
 96.5 515.7 l 1
61.5 260.7 m 1
 670.5 260.7 l 1
 670.5 198.3 l 1
 61.5 198.3 l 1
 61.5 260.7 l 1
402.1 0 m 1
 567.1 731.0078125 l 1
 631.65 731.0078125 l 1
 466.65 0 l 1
 402.1 0 l 1
132.1 0 m 1
 297.1 731.0078125 l 1
 361.65 731.0078125 l 1
 196.65 0 l 1
 132.1 0 l 1
EndSplineSet
EndChar

StartChar: braceright
Encoding: 125 125 93
Width: 433
Flags: W
HStem: -171.47 58.7461<48.2818 187.778> 281.032 67<290.581 383> 700.724 58.7461<48.1839 187.892>
VStem: 210 70<-90.0468 272.132 358.274 678.046>
LayerCount: 2
Fore
SplineSet
258 314.532226562 m 1
 258 314.532226562 210 336.111165365 210 413.032226562 c 2
 210 612.873632812 l 2
 210 680.324435764 176.568172089 700.723632812 117 700.723632812 c 0
 70.8684353299 700.723632812 50 692.473632812 50 692.473632812 c 1
 43 747.519726562 l 1
 43 747.519726562 82.418814433 759.469726562 133.5 759.469726562 c 0
 241.356686828 759.469726562 280 705.107805607 280 612.869726562 c 2
 280 423.032226562 l 2
 280 365.781643776 298.498046875 348.032226562 335 348.032226562 c 2
 383 348.032226562 l 1
 383 281.032226562 l 1
 335 281.032226562 l 2
 298.498046875 281.032226562 280 263.283990675 280 206.032226562 c 2
 280 206.032226562 280 -24.8697265625 280 -24.8697265625 c 2
 280 -117.110332031 241.356686828 -171.469726562 133.5 -171.469726562 c 0
 77.5206185567 -171.469726562 43 -159.519726562 43 -159.519726562 c 1
 50 -104.473632812 l 1
 50 -104.473632812 61.9007222877 -112.723632812 116 -112.723632812 c 0
 176.208826014 -112.723632812 210 -92.3256273056 210 -24.8736328125 c 2
 210 216.032226562 l 2
 210 291.07984561 258 314.532226562 258 314.532226562 c 1
EndSplineSet
EndChar

StartChar: asciitilde
Encoding: 126 126 94
Width: 436
VWidth: 999
Flags: W
HStem: 306.1 57.5<242.494 362.679> 368.1 56.5<74.2557 195.984>
LayerCount: 2
Fore
SplineSet
421 360.85 m 1
 421 360.85 374.278688525 306.1 302.25 306.1 c 0
 221.561538462 306.1 194.665384615 368.1 135.75 368.1 c 0
 86.8731884058 368.1 47 324.1 47 324.1 c 1
 15 374.6 l 1
 15 374.6 66.5881147541 424.6 133.75 424.6 c 0
 213.157692308 424.6 246.457692308 363.6 300.25 363.6 c 0
 356.315384615 363.6 385 406.85 385 406.85 c 1
 421 360.85 l 1
EndSplineSet
EndChar

StartChar: cent
Encoding: 162 162 95
Width: 492
Flags: W
HStem: 105.002 61.0619<211.6 420.613> 563.984 61.9494<207.215 404.952>
VStem: 51.5 69.4486<259.7 474.242> 264.25 58.5<-5 151.97 589.5 729.47>
LayerCount: 2
Fore
SplineSet
264.25 -5 m 1
 264.25 151.969726562 l 1
 322.75 151.969726562 l 1
 322.75 -5 l 1
 264.25 -5 l 1
264.25 589.5 m 1
 264.25 729.469726562 l 1
 322.75 729.469726562 l 1
 322.75 589.5 l 1
 264.25 589.5 l 1
EndSplineSet
Refer: 40 99 N 1 0 0 1 0 115 2
EndChar

StartChar: sterling
Encoding: 163 163 96
Width: 553
Flags: W
HStem: 0 68.05<128.319 523> 312.5 63<50 434> 669.871 69.5908<214.098 429.213>
VStem: 75.8516 81.9785<443.49 617.069> 153.324 72.1572<192.638 311.753>
LayerCount: 2
Fore
SplineSet
434 312.5 m 1xe0
 50 312.5 l 1
 50 375.5 l 1
 434 375.5 l 1
 434 312.5 l 1xe0
523 0 m 1
 30 0 l 1
 30 64.05 l 1
 30 64.05 153.32421875 156.334942234 153.32421875 289.379882812 c 0xe8
 153.32421875 391.588284089 75.8515625 418.167846584 75.8515625 547.185546875 c 0
 75.8515625 671.3984375 166.665664127 739.461914062 302.80859375 739.461914062 c 0
 434.589737357 739.461914062 493.45703125 695.605273438 493.45703125 695.605273438 c 1
 474.9375 628.524414062 l 1
 474.9375 628.524414062 400.626330913 669.87109375 318.30859375 669.87109375 c 0
 229.111600814 669.87109375 157.830078125 644.93316749 157.830078125 536.408544922 c 0xf0
 157.830078125 431.149773149 225.481445312 409.727135385 225.481445312 290.158203125 c 0xe8
 225.481445312 152.529676439 128.319335938 68.05 128.319335938 68.05 c 1
 523 68.05 l 1
 523 0 l 1
EndSplineSet
EndChar

StartChar: yen
Encoding: 165 165 97
Width: 649
Flags: W
HStem: 0 21G<286 363> 188 60<99.5 549.5> 318 60<99.5 286 363 549.5> 328.5 49.5<292 357> 711.008 20G<36.5 139.15 509.85 612.5>
VStem: 286 77<0 384.5>
LayerCount: 2
Fore
SplineSet
292 328.5 m 1xdc
 36.5 731.0078125 l 1
 127 731.0078125 l 1
 324.5 405.916015625 l 1
 522 731.0078125 l 1
 612.5 731.0078125 l 1
 357 328.5 l 1
 292 328.5 l 1xdc
286 0 m 1
 286 384.5 l 1
 363 384.5 l 1
 363 0 l 1
 286 0 l 1
549.5 188 m 1
 99.5 188 l 1
 99.5 248 l 1
 549.5 248 l 1
 549.5 188 l 1
549.5 318 m 1xec
 99.5 318 l 1
 99.5 378 l 1
 549.5 378 l 1
 549.5 318 l 1xec
EndSplineSet
EndChar

StartChar: currency
Encoding: 164 164 98
Width: 513
Flags: W
HStem: 156.724 67.3619<177.005 335.014> 490.106 67.5494<177.026 335.035>
VStem: 59.1113 69.2486<274.515 441.795> 384.64 69.2486<274.515 441.795>
LayerCount: 2
Fore
SplineSet
347.739257812 219.936523438 m 1
 397.389648438 246.325195312 l 1
 491.759765625 111.765625 l 1
 422.080078125 72.6455078125 l 1
 347.739257812 219.936523438 l 1
165.520507812 219.936523438 m 1
 91.1796875 72.6455078125 l 1
 21.5 111.765625 l 1
 115.870117188 246.325195312 l 1
 165.520507812 219.936523438 l 1
347.739257812 491.24609375 m 1
 422.080078125 638.536132812 l 1
 491.759765625 599.416015625 l 1
 397.389648438 464.856445312 l 1
 347.739257812 491.24609375 l 1
165.520507812 491.24609375 m 1
 115.870117188 464.856445312 l 1
 21.5 599.416015625 l 1
 91.1796875 638.536132812 l 1
 165.520507812 491.24609375 l 1
128.359960938 359.283203125 m 0
 128.359960938 278.212411522 166.438286759 224.085546875 255.5 224.085546875 c 0
 345.963388723 224.085546875 384.640039062 278.212411522 384.640039062 359.283203125 c 0
 384.640039062 437.731243462 345.996474401 490.105859375 255.611328125 490.105859375 c 0
 166.471368871 490.105859375 128.359960938 437.731243462 128.359960938 359.283203125 c 0
59.111328125 359.283203125 m 0
 59.111328125 479.317382812 133.420427581 557.655273438 255.5 557.655273438 c 0
 378.822739035 557.655273438 453.888671875 479.317382812 453.888671875 359.283203125 c 0
 453.888671875 236.715820312 378.822739035 156.723632812 255.5 156.723632812 c 0
 133.420427581 156.723632812 59.111328125 236.715820312 59.111328125 359.283203125 c 0
EndSplineSet
EndChar

StartChar: brokenbar
Encoding: 166 166 99
Width: 249
Flags: W
VStem: 91 67<-171.47 239 339 759.47>
LayerCount: 2
Fore
SplineSet
91 -171.469726562 m 1
 91 239 l 1
 158 239 l 1
 158 -171.469726562 l 1
 91 -171.469726562 l 1
91 339 m 1
 91 759.469726562 l 1
 158 759.469726562 l 1
 158 339 l 1
 91 339 l 1
EndSplineSet
EndChar

StartChar: section
Encoding: 167 167 100
Width: 593
Flags: W
HStem: -19.6709 61.8906<166.98 362.894> 692.712 61.8906<230.192 423.767>
VStem: 46.1328 68.3594<335.862 424.84> 122.033 71.1324<545.23 658.764> 397.234 73.7324<75.5909 208.201> 478.508 68.3594<311.277 398.5>
LayerCount: 2
Fore
SplineSet
192.71484375 513.853320312 m 1
 231.5234375 471.651171875 l 1
 231.5234375 471.651171875 114.4921875 453.330153062 114.4921875 375.893554688 c 0
 114.4921875 339.81150888 148.613235432 310.062405816 292.860351562 297.17578125 c 0
 424.764994958 285.407397007 470.966796875 217.623403558 470.966796875 138.870117188 c 0
 470.966796875 40.1096143415 402.6059695 -19.6708984375 290.30078125 -19.6708984375 c 0
 177.5859375 -19.6708984375 122.76953125 19.734375 122.76953125 19.734375 c 1
 144.396484375 75.3251953123 l 1
 144.396484375 75.3251953123 197.51414045 42.2197265625 275.8046875 42.2197265625 c 0
 359.565967533 42.2197265625 397.234375 77.6163386209 397.234375 134.693359375 c 0
 397.234375 188.932882673 371.47331685 227.560506206 247.696289062 238.877929688 c 0
 88.8317887894 252.661503519 46.1328125 309.469096341 46.1328125 368.809570312 c 0
 46.1328125 480.926743198 192.71484375 513.853320312 192.71484375 513.853320312 c 1
380.28515625 219.278320312 m 1
 348.4765625 268.48046875 l 1
 348.4765625 268.48046875 478.5078125 280.951867319 478.5078125 358 c 0
 478.5078125 401.585630501 435.642403903 424.691059124 292.208007812 443.951171875 c 0
 167.205111049 460.583002759 122.033203125 520.390257045 122.033203125 596.061523438 c 0
 122.033203125 694.822026283 190.3940305 754.602539062 302.69921875 754.602539062 c 0
 415.4140625 754.602539062 470.23046875 715.197265625 470.23046875 715.197265625 c 1
 448.603515625 658.306445312 l 1
 448.603515625 658.306445312 395.48688693 692.711914062 317.1953125 692.711914062 c 0
 231.640572132 692.711914062 193.165625 656.071282648 193.165625 596.98828125 c 0
 193.165625 552.560565721 217.584927586 517.175860345 352.260742188 500.03125 c 0
 500.754194577 481.167771254 546.8671875 425.920874084 546.8671875 363.622070312 c 0
 546.8671875 246.967216706 380.28515625 219.278320312 380.28515625 219.278320312 c 1
EndSplineSet
EndChar

StartChar: dieresis
Encoding: 168 168 101
Width: 459
Flags: W
HStem: 631.543 107.449<80.3924 168.607 290.392 378.607>
VStem: 71.3867 106.227<640.652 729.883> 281.387 106.227<640.652 729.883>
LayerCount: 2
Fore
SplineSet
281.38671875 685.267578125 m 0
 281.38671875 717.814815101 302.32223492 738.9921875 334.499023438 738.9921875 c 0
 366.67687132 738.9921875 387.61328125 717.814815101 387.61328125 685.267578125 c 0
 387.61328125 652.719753133 366.67687132 631.54296875 334.499023438 631.54296875 c 0
 302.322234919 631.54296875 281.38671875 652.719753133 281.38671875 685.267578125 c 0
71.38671875 685.267578125 m 0
 71.38671875 717.814815101 92.32223492 738.9921875 124.499023438 738.9921875 c 0
 156.67687132 738.9921875 177.61328125 717.814815101 177.61328125 685.267578125 c 0
 177.61328125 652.719753133 156.67687132 631.54296875 124.499023438 631.54296875 c 0
 92.3222349197 631.54296875 71.38671875 652.719753133 71.38671875 685.267578125 c 0
EndSplineSet
EndChar

StartChar: copyright
Encoding: 169 169 102
Width: 797
Flags: W
HStem: -9.99805 59.9574<277.204 520.574> 177.281 55.2314<348.097 517.253> 496.61 55.2314<348.097 507.86> 679.164 59.9574<275.939 521.838>
VStem: 41.5 60.3965<228.27 500.854> 238.457 63.0238<278.513 450.611> 695.881 60.3965<228.27 500.854>
LayerCount: 2
Fore
SplineSet
238.45703125 364.561523438 m 0
 238.45703125 477.88408452 299.998994084 551.841796875 418.401367188 551.841796875 c 0
 496.860733183 551.841796875 534.797851562 518.7265625 534.797851562 518.7265625 c 1
 513.234765625 470.199609375 l 1
 513.234765625 470.199609375 489.379471255 496.610351562 427.401367188 496.610351562 c 0
 335.7477066 496.610351562 301.480859375 443.745634075 301.480859375 364.561523438 c 0
 301.480859375 285.377412803 335.7477066 232.512695312 427.401367188 232.512695312 c 0
 491.80907774 232.512695312 519.465820312 255.578125 519.465820312 255.578125 c 1
 536.370117188 204.578125 l 1
 536.370117188 204.578125 496.385730419 177.28125 418.401367188 177.28125 c 0
 299.998994084 177.28125 238.45703125 251.238962356 238.45703125 364.561523438 c 0
101.896484375 364.561523438 m 0
 101.896484375 175.909336225 203.844151573 49.959375 398.888671875 49.959375 c 0
 593.933192177 49.959375 695.880859375 175.909336225 695.880859375 364.561523438 c 0
 695.880859375 553.21371065 593.933192177 679.163671875 398.888671875 679.163671875 c 0
 203.844151573 679.163671875 101.896484375 553.21371065 101.896484375 364.561523438 c 0
41.5 364.561523438 m 0
 41.5 591.206054688 176.729001545 739.12109375 398.888671875 739.12109375 c 0
 621.048342205 739.12109375 756.27734375 591.206054688 756.27734375 364.561523438 c 0
 756.27734375 137.916992188 621.048342205 -9.998046875 398.888671875 -9.998046875 c 0
 176.729001545 -9.998046875 41.5 137.916992188 41.5 364.561523438 c 0
EndSplineSet
EndChar

StartChar: registered
Encoding: 174 174 103
Width: 797
Flags: W
HStem: -9.99805 59.9574<277.204 520.574> 317.252 48.2758<297 457.649> 499.576 48.6797<321.2 465.487> 679.164 59.9574<275.939 521.838>
VStem: 41.5 60.3965<228.27 500.854> 259 62.2<182.752 317.252 365.528 499.576> 297 24.2<317.252 365.528> 484.265 59.6238<379.533 481.469> 695.881 60.3965<228.27 500.854>
LayerCount: 2
Fore
SplineSet
297 365.527734375 m 1xfb80
 385.244335938 365.582421875 l 2
 441.933426702 365.61975388 484.26484375 370.572638318 484.26484375 432.083203125 c 0
 484.26484375 486.915343516 441.933429107 499.482280538 385.244335938 499.525390625 c 2
 321.2 499.576171875 l 1
 321.2 182.751953125 l 1
 259 182.751953125 l 1
 259 548.255859375 l 1xfd80
 402.944335938 548.255859375 l 2
 477.102050781 548.255859375 543.888671875 517.124467062 543.888671875 432.661621094 c 0
 543.888671875 357.355026072 482.54375 338.640625 482.54375 338.640625 c 1
 482.54375 338.640625 512.51610104 329.228485694 530.8515625 271.451171875 c 2
 559 182.751953125 l 1
 496.6 182.751953125 l 1
 472.8 265.251953125 l 2
 458.64036331 314.165881874 432.86557377 317.251953125 385.8 317.251953125 c 2
 297 317.251953125 l 1
 297 365.527734375 l 1xfb80
101.896484375 364.561523438 m 0
 101.896484375 175.909336225 203.844151573 49.959375 398.888671875 49.959375 c 0
 593.933192177 49.959375 695.880859375 175.909336225 695.880859375 364.561523438 c 0
 695.880859375 553.21371065 593.933192177 679.163671875 398.888671875 679.163671875 c 0
 203.844151573 679.163671875 101.896484375 553.21371065 101.896484375 364.561523438 c 0
41.5 364.561523438 m 0
 41.5 591.206054688 176.729001545 739.12109375 398.888671875 739.12109375 c 0
 621.048342205 739.12109375 756.27734375 591.206054688 756.27734375 364.561523438 c 0
 756.27734375 137.916992188 621.048342205 -9.998046875 398.888671875 -9.998046875 c 0
 176.729001545 -9.998046875 41.5 137.916992188 41.5 364.561523438 c 0
EndSplineSet
EndChar

StartChar: uni2117
Encoding: 8471 8471 104
Width: 797
Flags: W
HStem: -9.99805 59.9574<277.204 520.574> 299.752 45.6758<312.494 478.197> 499.576 48.6797<332.844 479.25> 679.164 59.9574<275.939 521.838>
VStem: 41.5 60.3965<228.27 500.854> 269.994 62.85<182.752 299.752 345.428 499.576> 312.494 20.35<299.752 345.428> 500.459 58.9238<368.012 478.127> 695.881 60.3965<228.27 500.854>
LayerCount: 2
Fore
SplineSet
312.494335938 299.751953125 m 1xfb80
 312.494335938 345.427734375 l 1xfb80
 392.938671875 345.482421875 l 2
 454.494074676 345.527280393 500.459179688 359.337209358 500.459179688 422.533203125 c 0
 500.459179688 485.130085077 457.272808055 499.44260654 399.438671875 499.525390625 c 2
 332.844335938 499.576171875 l 1
 332.844335938 182.751953125 l 1
 269.994335938 182.751953125 l 1
 269.994335938 548.255859375 l 1xfd80
 403.438671875 548.255859375 l 2
 485.488545817 548.255859375 559.383007812 514.015255867 559.383007812 422.533203125 c 0
 559.383007812 332.729571234 487.631436295 299.751953125 408.938671875 299.751953125 c 2
 312.494335938 299.751953125 l 1xfb80
101.896484375 364.561523438 m 0
 101.896484375 175.909336225 203.844151573 49.959375 398.888671875 49.959375 c 0
 593.933192177 49.959375 695.880859375 175.909336225 695.880859375 364.561523438 c 0
 695.880859375 553.21371065 593.933192177 679.163671875 398.888671875 679.163671875 c 0
 203.844151573 679.163671875 101.896484375 553.21371065 101.896484375 364.561523438 c 0
41.5 364.561523438 m 0
 41.5 591.206054688 176.729001545 739.12109375 398.888671875 739.12109375 c 0
 621.048342205 739.12109375 756.27734375 591.206054688 756.27734375 364.561523438 c 0
 756.27734375 137.916992188 621.048342205 -9.998046875 398.888671875 -9.998046875 c 0
 176.729001545 -9.998046875 41.5 137.916992188 41.5 364.561523438 c 0
EndSplineSet
EndChar

StartChar: guillemotleft
Encoding: 171 171 105
Width: 590
Flags: W
LayerCount: 2
Fore
SplineSet
64.5 274.5 m 1
 204.5 441 l 1
 282.25 441 l 1
 129 254 l 1
 282.25 67 l 1
 204.5 67 l 1
 64.5 233.5 l 1
 64.5 274.5 l 1
314.5 274.5 m 1
 454.5 441 l 1
 532.25 441 l 1
 379 254 l 1
 532.25 67 l 1
 454.5 67 l 1
 314.5 233.5 l 1
 314.5 274.5 l 1
EndSplineSet
EndChar

StartChar: guillemotright
Encoding: 187 187 106
Width: 590
Flags: W
LayerCount: 2
Fore
SplineSet
525.5 233.5 m 1
 385.5 67 l 1
 307.75 67 l 1
 461 254 l 1
 307.75 441 l 1
 385.5 441 l 1
 525.5 274.5 l 1
 525.5 233.5 l 1
275.5 233.5 m 1
 135.5 67 l 1
 57.75 67 l 1
 211 254 l 1
 57.75 441 l 1
 135.5 441 l 1
 275.5 274.5 l 1
 275.5 233.5 l 1
EndSplineSet
EndChar

StartChar: mu
Encoding: 181 181 107
Width: 595
Flags: W
HStem: -9.92285 63.1494<201.789 378.649> 0 21G<458.577 529.477> 481.011 20G<72.8 143.7 458.577 529.477>
VStem: 72.8 70.9<-180 501.011> 92 51.7<56.9261 321.011> 458.577 70.9<207.449 501.011>
LayerCount: 2
Fore
SplineSet
72.8 -180 m 1x34
 72.8 501.010742188 l 1
 143.7 501.010742188 l 1
 143.7 -180 l 1
 72.8 -180 l 1x34
458.57734375 217.010742188 m 9
 500.57734375 207.44921875 l 17
 476.138776058 57.0107421877 401.246146444 -9.9228515625 273.77734375 -9.9228515625 c 0
 158.682487815 -9.9228515625 92 56.9260601597 92 196.44921875 c 2
 92 321.010742188 l 1xac
 143.7 321.010742188 l 1
 143.7 213.44921875 l 2
 143.7 111.953493191 182.849229157 53.2265625 290.27734375 53.2265625 c 0xb4
 395.17247762 53.2265625 458.57734375 118.796982856 458.57734375 217.010742188 c 9
529.47734375 501.010742188 m 1
 529.47734375 0 l 1
 458.57734375 0 l 1x64
 458.57734375 501.010742188 l 1
 529.47734375 501.010742188 l 1
EndSplineSet
EndChar

StartChar: acute
Encoding: 180 180 108
Width: 242
Flags: W
HStem: 536 205.008
VStem: 24 194
LayerCount: 2
Fore
SplineSet
71.5 536 m 1
 24 556 l 1
 151 741.0078125 l 1
 218 711.0078125 l 1
 71.5 536 l 1
EndSplineSet
EndChar

StartChar: macron
Encoding: 175 175 109
Width: 374
Flags: W
HStem: 670.308 60.7<46.5 327.5>
VStem: 46.5 281<670.308 731.008>
LayerCount: 2
Fore
SplineSet
327.5 670.3078125 m 1
 46.5 670.3078125 l 1
 46.5 731.0078125 l 1
 327.5 731.0078125 l 1
 327.5 670.3078125 l 1
EndSplineSet
EndChar

StartChar: uni00AD
Encoding: 173 173 110
Width: 354
Flags: W
HStem: 247.5 64<50 304>
VStem: 50 254<247.5 311.5>
LayerCount: 2
Fore
SplineSet
304 247.5 m 1
 50 247.5 l 1
 50 311.5 l 1
 304 311.5 l 1
 304 247.5 l 1
EndSplineSet
EndChar

StartChar: logicalnot
Encoding: 172 172 111
Width: 450
Flags: W
HStem: 326.25 63.5<30 340.75>
VStem: 340.75 64.25<168.25 326.25>
LayerCount: 2
Fore
SplineSet
405 168.25 m 1
 340.75 168.25 l 1
 340.75 326.25 l 1
 30 326.25 l 1
 30 389.75 l 1
 405 389.75 l 1
 405 168.25 l 1
EndSplineSet
EndChar

StartChar: minus
Encoding: 8722 8722 112
Width: 450
Flags: W
HStem: 328.2 59.6<30 420>
LayerCount: 2
Fore
SplineSet
420 328.2 m 1
 30 328.2 l 1
 30 387.8 l 1
 420 387.8 l 1
 420 328.2 l 1
EndSplineSet
EndChar

StartChar: notequal
Encoding: 8800 8800 113
Width: 450
Flags: W
HStem: 245.6 56.75<30 420> 413.65 56.75<30 420>
LayerCount: 2
Fore
SplineSet
89.175 108.530273438 m 1
 294.175 601.403320312 l 1
 358.725 601.403320312 l 1
 153.725 108.530273438 l 1
 89.175 108.530273438 l 1
EndSplineSet
Refer: 52 61 N 1 0 0 1 0 0 2
EndChar

StartChar: partialdiff
Encoding: 8706 8706 114
Width: 620
Flags: W
HStem: -9.99805 67.8887<198.529 387.751> 409.391 61.209<212.674 396.175> 673.72 65.2727<187.382 384.214>
VStem: 51.5 73.3166<131.501 322.611> 495.811 72.8537<372.335 528.207>
LayerCount: 2
Fore
SplineSet
471.116601562 246.890625 m 0
 471.116601562 340.812643349 410.68863273 409.390625 309.766601562 409.390625 c 0
 185.607884014 409.390625 124.816601562 332.372276377 124.816601562 226.890625 c 0
 124.816601562 129.211725917 173.003919907 57.890625 289.766601562 57.890625 c 0
 418.138085938 57.890625 471.116601562 137.652092889 471.116601562 246.890625 c 0
495.811328125 371.797070312 m 1
 493.681881666 568.477463782 429.94525268 673.71953125 293.249023438 673.71953125 c 0
 196.122988091 673.71953125 142.395898438 626.388671875 142.395898438 626.388671875 c 1
 113.241210938 688.860351562 l 1
 113.241210938 688.860351562 174.648733922 738.9921875 295.8671875 738.9921875 c 0
 471.227469068 738.9921875 568.665039062 612.671898034 568.665039062 385.331054688 c 0
 568.665039062 105.516837439 464.543487546 -9.998046875 288.8671875 -9.998046875 c 0
 141.662119934 -9.998046875 51.5 75.5176128099 51.5 229 c 0
 51.5 372.20164401 147.264648438 470.599609375 298.401367188 470.599609375 c 0
 447.868073727 470.599609375 495.811328125 371.797070312 495.811328125 371.797070312 c 1
EndSplineSet
EndChar

StartChar: emptyset
Encoding: 8709 8709 115
Width: 797
Flags: W
HStem: -9.99805 65.4119<271.469 522.011> 673.709 65.4119<275.766 526.308>
VStem: 41.5 65.8486<229.447 499.676> 690.429 65.8486<229.447 499.676>
LayerCount: 2
Fore
SplineSet
107.348632812 364.561523438 m 0
 107.348632812 179.180044181 201.163170191 55.4138671875 398.888671875 55.4138671875 c 0
 596.614173559 55.4138671875 690.428710938 179.180044181 690.428710938 364.561523438 c 0
 690.428710938 549.943002691 596.614173559 673.709179688 398.888671875 673.709179688 c 0
 201.163170191 673.709179688 107.348632812 549.943002691 107.348632812 364.561523438 c 0
41.5 364.561523438 m 0
 41.5 591.206054688 176.729001545 739.12109375 398.888671875 739.12109375 c 0
 621.048342205 739.12109375 756.27734375 591.206054688 756.27734375 364.561523438 c 0
 756.27734375 137.916992188 621.048342205 -9.998046875 398.888671875 -9.998046875 c 0
 176.729001545 -9.998046875 41.5 137.916992188 41.5 364.561523438 c 0
131 -90.873046875 m 1
 596 812 l 1
 666 812 l 1
 201 -90.873046875 l 1
 131 -90.873046875 l 1
EndSplineSet
EndChar

StartChar: Delta
Encoding: 8710 8710 116
Width: 719
Flags: W
HStem: 0 71.9<137.65 581.35> 711.008 20G<309.549 399.75>
LayerCount: 2
Fore
SplineSet
667.5 0 m 1
 51.5 0 l 1
 51.5 61.9 l 1
 317.5 731.0078125 l 1
 391.5 731.0078125 l 1
 667.5 61.9 l 1
 667.5 0 l 1
581.35 71.9 m 1
 581.35 71.9 355.393554688 635.813476562 355.393554688 635.813476562 c 1
 355.393554688 635.813476562 137.65 71.9 137.65 71.9 c 1
 137.65 71.9 581.35 71.9 581.35 71.9 c 1
EndSplineSet
EndChar

StartChar: plusminus
Encoding: 177 177 117
Width: 450
Flags: W
HStem: 157.85 56.1<30 420> 355.95 59.6<30 420>
VStem: 195.2 59.6<162.85 558.35>
LayerCount: 2
Fore
SplineSet
420 157.85 m 1
 30 157.85 l 1
 30 213.95 l 1
 420 213.95 l 1
 420 157.85 l 1
195.2 162.85 m 1
 195.2 558.35 l 1
 254.8 558.35 l 1
 254.8 162.85 l 1
 195.2 162.85 l 1
420 355.95 m 1
 30 355.95 l 1
 30 415.55 l 1
 420 415.55 l 1
 420 355.95 l 1
EndSplineSet
EndChar

StartChar: degree
Encoding: 176 176 118
Width: 431
Flags: W
HStem: 413.07 54.0264<141.892 288.911> 706.788 54.2139<141.914 288.933>
VStem: 41.5 59.3121<508.078 666.094> 330.965 59.3121<508.078 666.094>
LayerCount: 2
Fore
SplineSet
100.812109375 587.354492188 m 0
 100.812109375 515.241989215 134.947350596 467.096679688 214.786132812 467.096679688 c 0
 296.170063932 467.096679688 330.965234375 515.241989215 330.965234375 587.354492188 c 0
 330.965234375 658.973260179 296.207394151 706.788085938 214.909179688 706.788085938 c 0
 134.984687504 706.788085938 100.812109375 658.973260179 100.812109375 587.354492188 c 0
41.5 587.129882812 m 0
 41.5 692.339558139 107.106574538 761.001953125 214.888671875 761.001953125 c 0
 323.913937314 761.001953125 390.27734375 692.339558139 390.27734375 587.129882812 c 0
 390.27734375 481.807367072 323.913937314 413.0703125 214.888671875 413.0703125 c 0
 107.106574538 413.0703125 41.5 481.807367072 41.5 587.129882812 c 0
EndSplineSet
EndChar

StartChar: cedilla
Encoding: 184 184 120
Width: 317
VWidth: 999
Flags: W
HStem: -245.25 48.5<58.1791 203.322> -83.4 46.15<114.323 206.386>
VStem: 215.55 58.45<-182.289 -92.7157>
LayerCount: 2
Fore
SplineSet
274 -134.25 m 0
 274 -204.941516507 228.835806599 -245.25 144.7 -245.25 c 0
 81.4814668949 -245.25 36.65 -218.35 36.65 -218.35 c 1
 53.35 -171.85 l 1
 53.35 -171.85 84.942632093 -196.75 135.85 -196.75 c 0
 195.135306803 -196.75 215.55 -172.844147895 215.55 -137.25 c 0
 215.55 -99.7331801466 193.186012028 -83.4 156.85 -83.4 c 0
 114.059589843 -83.4 99.15 -107.75 99.15 -107.75 c 1
 53.5 -92 l 1
 75.5 39 l 1
 129.75 39 l 1
 113.985351562 -52.453515625 l 1
 113.985351562 -52.453515625 129.610967567 -37.25 170 -37.25 c 0
 232.971998762 -37.25 274 -73.8661221591 274 -134.25 c 0
EndSplineSet
EndChar

StartChar: paragraph
Encoding: 182 182 121
Width: 682
Flags: W
HStem: 667.492 63.5<386.389 515.389>
VStem: 40 346.389<398.611 609.82> 319.889 66.5<-179.994 277.142> 515.389 66.5<-179.994 667.492>
LayerCount: 2
Fore
SplineSet
386.388671875 -179.994140625 m 1xb0
 319.888671875 -179.994140625 l 1
 319.888671875 277.1421875 l 1xb0
 149.442486353 280.6421875 40 335.112201983 40 505.932617188 c 0xd0
 40 668.827616601 152 730.9921875 293.888671875 730.9921875 c 2
 581.888671875 730.9921875 l 1
 581.888671875 -179.994140625 l 1
 515.388671875 -179.994140625 l 1
 515.388671875 667.4921875 l 1
 386.388671875 667.4921875 l 1
 386.388671875 -179.994140625 l 1xb0
EndSplineSet
EndChar

StartChar: ordfeminine
Encoding: 170 170 122
Width: 402
Flags: W
HStem: 369.992 48.9<108.528 240.644 328.055 379.649> 546.142 45<123.8 285.1> 688.742 50.25<91.0251 242.695>
VStem: 36.5 58.8<432.208 519.701> 266.6 56.4<422.336 486.992 590.992 664.276> 266.6 27.9<414.512 481.292> 266.6 18.5<546.142 591.142>
LayerCount: 2
Fore
SplineSet
266.6 494.9921875 m 1xf2
 266.6 448.978234011 227.448148148 418.8921875 170.5 418.8921875 c 0
 117.309756097 418.8921875 95.3 441.576058467 95.3 477.4921875 c 0
 95.3 529.443296148 141.419626168 546.1421875 285.1 546.1421875 c 1
 285.1 591.1421875 l 1xf2
 140.176233183 591.1421875 36.5 571.20998411 36.5 475.9921875 c 0
 36.5 411.9921875 82.5 369.9921875 156.5 369.9921875 c 0
 250.296875 369.9921875 294.5 414.5121875 294.5 481.2921875 c 1xf4
 266.6 494.9921875 l 1xf2
266.6 590.9921875 m 2xf8
 266.6 459.9921875 l 2
 266.6 398.9921875 289.767553191 369.9921875 336.85 369.9921875 c 0
 368.557042254 369.9921875 383.75 383.0921875 383.75 383.0921875 c 1
 377.75 424.5921875 l 1
 377.75 424.5921875 368.428947369 419.9421875 352.45 419.9421875 c 0
 331.414285714 419.9421875 323 437.433491847 323 486.9921875 c 2
 323 595.9921875 l 2
 323 682.197861259 282.75625 738.9921875 186 738.9921875 c 0
 110.084642858 738.9921875 57.95 707.9421875 57.95 707.9421875 c 1
 76.85 659.0921875 l 1
 76.85 659.0921875 118.498275862 688.7421875 177.5 688.7421875 c 0
 239.295161289 688.7421875 266.6 658.786542338 266.6 590.9921875 c 2xf8
EndSplineSet
EndChar

StartChar: ordmasculine
Encoding: 186 186 123
Width: 418
Flags: W
HStem: 367.992 54<141.642 276.894> 684.992 54<141.642 276.546>
VStem: 39.5 58.8<466.61 639.739> 319.7 58.8<465.424 639.739>
LayerCount: 2
Fore
SplineSet
98.3 554.9921875 m 0
 98.3 474.113809121 134.068730159 421.9921875 209 421.9921875 c 0
 285.512698414 421.9921875 319.7 474.113809121 319.7 554.9921875 c 0
 319.7 631.893595951 283.931269841 684.9921875 209 684.9921875 c 0
 134.068730159 684.9921875 98.3 631.893595951 98.3 554.9921875 c 0
39.5 555.9921875 m 0
 39.5 667.025895365 104.201612903 738.9921875 209 738.9921875 c 0
 314.709677419 738.9921875 378.5 667.025895365 378.5 555.9921875 c 0
 378.5 441.959400615 314.709677419 367.9921875 209 367.9921875 c 0
 104.201612903 367.9921875 39.5 441.959400615 39.5 555.9921875 c 0
EndSplineSet
EndChar

StartChar: arrowleft
Encoding: 8592 8592 124
Width: 550
Flags: W
HStem: 320.44 76.4<114.911 537.749> 327.84 61.6<90.749 513.587>
LayerCount: 2
Fore
SplineSet
537.749023438 320.439648438 m 1x80
 90.7490234377 327.839648438 l 1
 90.7490234377 389.439648438 l 1x40
 537.749023438 396.839648438 l 1
 537.749023438 320.439648438 l 1x80
98.5615234377 358.638671875 m 1
 288.348632812 176.5671875 l 1
 235.560742188 123.779296875 l 1
 12.2509765625 358.638671875 l 1
 235.560742188 593.5 l 1
 288.348632812 540.71015625 l 1
 98.5615234377 358.638671875 l 1
EndSplineSet
EndChar

StartChar: product
Encoding: 8719 8719 128
Width: 719
Flags: W
HStem: 662.258 68.75<148.5 570.5>
VStem: 71.5 77<-179.994 662.258> 570.5 77<-179.994 662.258>
LayerCount: 2
Fore
SplineSet
647.5 731.0078125 m 1
 647.5 -179.994140625 l 1
 570.5 -179.994140625 l 1
 570.5 662.2578125 l 1
 148.5 662.2578125 l 1
 148.5 -179.994140625 l 1
 71.5 -179.994140625 l 1
 71.5 731.0078125 l 1
 647.5 731.0078125 l 1
EndSplineSet
EndChar

StartChar: summation
Encoding: 8721 8721 129
Width: 634
Flags: W
HStem: -179.994 68.4<148.4 587.5> 662.608 68.4<163.2 587.5>
LayerCount: 2
Back
SplineSet
264 585.0078125 m 5
 394 410 l 5
 394 319 l 5
 244 146 l 5
 544 146 l 5
 544 0 l 5
 55 0 l 5
 55 161 l 5
 235 358 l 5
 55 589 l 5
 55 731.0078125 l 5
 544 731.0078125 l 5
 544 585.0078125 l 5
 264 585.0078125 l 5
EndSplineSet
Fore
SplineSet
163.2 662.6078125 m 1
 405.7 306.6 l 1
 405.7 254.6 l 1
 148.4 -111.594140625 l 1
 587.5 -111.594140625 l 1
 587.5 -179.994140625 l 1
 71.5 -179.994140625 l 1
 71.5 -96.594140625 l 1
 334.5 278 l 1
 71.5 666.6 l 1
 71.5 731.0078125 l 1
 587.5 731.0078125 l 1
 587.5 662.6078125 l 1
 163.2 662.6078125 l 1
EndSplineSet
EndChar

StartChar: approxequal
Encoding: 8776 8776 130
Width: 450
VWidth: 999
Flags: W
HStem: 216.5 59.45<233.734 376.259> 265.5 58.45<79.7714 206.015> 403.9 60.1<236.255 372.255> 452.9 59.1<77.8996 206.048> 485.85 20G<395.15 411.45>
LayerCount: 2
Fore
SplineSet
431.5 268 m 1x80
 431.5 268 379.565429688 216.5 299.5 216.5 c 0x80
 221.961914062 216.5 196.115234375 265.5 139.5 265.5 c 0
 93.789855072 265.5 56.5 225.2 56.5 225.2 c 1
 18.5 273.95 l 1
 18.5 273.95 70.1971398556 323.95 137.5 323.95 c 0x40
 215.23838501 323.95 247.83838501 275.95 300.5 275.95 c 0
 363.544615385 275.95 395.8 313.9 395.8 313.9 c 1
 431.5 268 l 1x80
431.5 461.25 m 1
 431.5 461.25 379.565429688 403.9 299.5 403.9 c 0x28
 221.961914062 403.9 196.115234375 452.9 139.5 452.9 c 0
 93.789855072 452.9 56.5 413.9 56.5 413.9 c 1
 21.1 462 l 1
 21.1 462 72.7971398556 512 140.1 512 c 0x10
 217.83838501 512 250.43838501 464 303.1 464 c 0
 363.994615385 464 395.15 505.85 395.15 505.85 c 1x28
 431.5 461.25 l 1
EndSplineSet
EndChar

StartChar: perthousand
Encoding: 8240 8240 131
Width: 1263
Flags: W
HStem: -9.99805 58.6303<653.443 793.827 961.133 1101.52> 0 21G<220.5 302.675> 303.222 58.6293<649.015 795.177 959.808 1105.97> 367.143 58.6293<162.882 300.398> 680.362 58.6303<161.795 303.652> 711.008 20G<653.325 735.5>
VStem: 51.5 65.2602<473.022 634.226> 348.31 63.1498<473.022 634.226> 542.5 64.2602<94.6627 258.29> 840.21 75.65<84.7631 269.425> 857.5 39.96<74.4222 278.624> 1149.31 63.1498<95.8819 257.086>
LayerCount: 2
Fore
SplineSet
915.86015625 176.481445312 m 0xb3d0
 915.86015625 84.7631188482 968.429296875 48.6322265625 1032.68046875 48.6322265625 c 0
 1095.26267712 48.6322265625 1149.31015625 84.7631188482 1149.31015625 176.481445312 c 0
 1149.31015625 269.425553472 1095.26267712 303.222265625 1032.68046875 303.222265625 c 0
 968.429296875 303.222265625 915.86015625 269.425553472 915.86015625 176.481445312 c 0xb3d0
857.5 176.481445312 m 0xb3b0
 857.5 278.623614564 923.168235106 361.8515625 1037.48046875 361.8515625 c 0
 1154.57574978 361.8515625 1212.45996094 278.623614564 1212.45996094 176.481445312 c 0
 1212.45996094 74.4221678793 1154.57574978 -9.998046875 1037.48046875 -9.998046875 c 0
 923.168235106 -9.998046875 857.5 74.4221678793 857.5 176.481445312 c 0xb3b0
606.76015625 176.481445312 m 0
 606.76015625 84.7627590098 658.743641181 48.6322265625 722.28046875 48.6322265625 c 0
 785.560134603 48.6322265625 840.21015625 84.7627590098 840.21015625 176.481445312 c 0xb3d0
 840.21015625 269.425359939 785.560134603 303.222265625 722.28046875 303.222265625 c 0
 658.743641181 303.222265625 606.76015625 269.425359939 606.76015625 176.481445312 c 0
542.5 176.481445312 m 0
 542.5 278.624023438 600.384231082 361.8515625 717.48046875 361.8515625 c 0
 831.791755753 361.8515625 897.459960938 278.623614564 897.459960938 176.481445312 c 0xb3b0
 897.459960938 74.4221678793 831.791755753 -9.998046875 717.48046875 -9.998046875 c 0
 600.384231082 -9.998046875 542.5 74.4218750004 542.5 176.481445312 c 0
116.76015625 553.622070312 m 0
 116.76015625 461.903836187 171.633645722 425.771875 231.48046875 425.771875 c 0
 290.919887704 425.771875 348.31015625 461.903836187 348.31015625 553.622070312 c 0
 348.31015625 646.564837864 290.919887704 680.361914062 231.48046875 680.361914062 c 0x3b90
 171.633645722 680.361914062 116.76015625 646.564837864 116.76015625 553.622070312 c 0
51.5 553.622070312 m 0
 51.5 655.764648438 117.16842204 738.9921875 231.48046875 738.9921875 c 0
 345.791551316 738.9921875 411.459960938 655.764648438 411.459960938 553.622070312 c 0
 411.459960938 451.5625 345.791551316 367.142578125 231.48046875 367.142578125 c 0
 117.16842204 367.142578125 51.5 451.5625 51.5 553.622070312 c 0
EndSplineSet
Refer: 138 8260 N 1 0 0 1 301 0 2
EndChar

StartChar: uni2031
Encoding: 8241 8241 132
Width: 1573
Flags: W
HStem: -9.99805 58.6303<653.443 793.827 960.47 1104.51 1271.13 1411.52> 0 21G<220.5 302.675> 303.222 58.6293<649.015 795.177 958.857 1106.13 1269.81 1415.97> 367.143 58.6293<162.744 300.535> 680.362 58.6303<159.518 303.787> 711.008 20G<653.325 735.5>
VStem: 51.5 65.2602<471.803 635.43> 348.31 63.1498<473.022 634.226> 542.5 64.2602<94.6627 258.29> 840.21 75.45<84.7631 269.425> 856.4 41.06<74.4222 278.624> 1150.41 75.45<84.7631 269.426> 1167.5 41.06<74.4222 278.624> 1459.31 63.1498<95.8819 257.086>
LayerCount: 2
Fore
SplineSet
1225.86015625 176.481445312 m 0xb394
 1225.86015625 84.7631188482 1278.42929688 48.6322265625 1342.68046875 48.6322265625 c 0
 1405.26267712 48.6322265625 1459.31015625 84.7631188482 1459.31015625 176.481445312 c 0
 1459.31015625 269.425553472 1405.26267712 303.222265625 1342.68046875 303.222265625 c 0
 1278.42929688 303.222265625 1225.86015625 269.425553472 1225.86015625 176.481445312 c 0xb394
1167.5 176.481445312 m 0xb38c
 1167.5 278.623614564 1233.1682351 361.8515625 1347.48046875 361.8515625 c 0
 1464.57574978 361.8515625 1522.45996094 278.623614564 1522.45996094 176.481445312 c 0
 1522.45996094 74.4221678793 1464.57574978 -9.998046875 1347.48046875 -9.998046875 c 0
 1233.1682351 -9.998046875 1167.5 74.4221678793 1167.5 176.481445312 c 0xb38c
915.66015625 176.481445312 m 0xb3d4
 915.66015625 84.7631188482 968.229296875 48.6322265625 1032.48046875 48.6322265625 c 0
 1095.76024283 48.6322265625 1150.41015625 84.7631188482 1150.41015625 176.481445312 c 0
 1150.41015625 269.425553472 1095.76024283 303.222265625 1032.48046875 303.222265625 c 0
 968.229296875 303.222265625 915.66015625 269.425553472 915.66015625 176.481445312 c 0xb3d4
856.4 176.481445312 m 0xb3ac
 856.4 278.623614564 914.648115432 361.8515625 1032.48046875 361.8515625 c 0
 1150.31186352 361.8515625 1208.55996094 278.623614564 1208.55996094 176.481445312 c 0
 1208.55996094 74.4221678793 1150.31186352 -9.998046875 1032.48046875 -9.998046875 c 0
 914.648115432 -9.998046875 856.4 74.4221678793 856.4 176.481445312 c 0xb3ac
606.76015625 176.481445312 m 0
 606.76015625 84.7627590098 658.743641181 48.6322265625 722.28046875 48.6322265625 c 0
 785.560134603 48.6322265625 840.21015625 84.7627590098 840.21015625 176.481445312 c 0xb3c4
 840.21015625 269.425359939 785.560134603 303.222265625 722.28046875 303.222265625 c 0
 658.743641181 303.222265625 606.76015625 269.425359939 606.76015625 176.481445312 c 0
542.5 176.481445312 m 0
 542.5 278.624023438 600.384231082 361.8515625 717.48046875 361.8515625 c 0
 831.791755753 361.8515625 897.459960938 278.623614564 897.459960938 176.481445312 c 0xb3a4
 897.459960938 74.4221678793 831.791755753 -9.998046875 717.48046875 -9.998046875 c 0
 600.384231082 -9.998046875 542.5 74.4218750004 542.5 176.481445312 c 0
116.76015625 553.622070312 m 0
 116.76015625 461.903836187 170.983645722 425.771875 231.48046875 425.771875 c 0
 291.569887704 425.771875 348.31015625 461.903836187 348.31015625 553.622070312 c 0
 348.31015625 646.564837864 291.569887704 680.361914062 231.48046875 680.361914062 c 0x3b84
 170.983645722 680.361914062 116.76015625 646.564837864 116.76015625 553.622070312 c 0
51.5 553.622070312 m 0
 51.5 655.764648438 117.16842204 738.9921875 231.48046875 738.9921875 c 0
 345.791551316 738.9921875 411.459960938 655.764648438 411.459960938 553.622070312 c 0
 411.459960938 451.5625 345.791551316 367.142578125 231.48046875 367.142578125 c 0
 117.16842204 367.142578125 51.5 451.5625 51.5 553.622070312 c 0
EndSplineSet
Refer: 138 8260 N 1 0 0 1 301 0 2
EndChar

StartChar: uni203D
Encoding: 8253 8253 133
Width: 566
Flags: W
HStem: -10 107.449<193.892 282.107> 292 62.9988<268.586 375.037> 672.429 66.5637<116.588 352.165>
VStem: 184.887 106.227<-0.890432 88.3395> 202.1 73.8<362.897 791.008> 211.6 54.8<210 638.111> 443.596 71.7744<424.118 590.64>
LayerCount: 2
Fore
SplineSet
211.6 210 m 1xe6
 202.1 791.0078125 l 1
 275.9 791.0078125 l 1xea
 266.4 210 l 1
 211.6 210 l 1xe6
184.88671875 43.724609375 m 0xf2
 184.88671875 76.2716082791 205.822493241 97.44921875 237.999023438 97.44921875 c 0
 270.176618346 97.44921875 291.11328125 76.2716082791 291.11328125 43.724609375 c 0
 291.11328125 11.1770476857 270.176618346 -10 237.999023438 -10 c 0
 205.822493241 -10 184.88671875 11.1770476857 184.88671875 43.724609375 c 0xf2
218.922851562 305 m 1
 230.65625 363.31875 l 1
 230.65625 363.31875 253.818344966 354.998828125 282.8984375 354.998828125 c 0
 376.490641067 354.998828125 443.595703125 406.718193266 443.595703125 503.145507812 c 0
 443.595703125 620.549452654 364.830231026 672.428515625 234.44453125 672.428515625 c 0
 128.458907985 672.428515625 53.173828125 619.458007812 53.173828125 619.458007812 c 1
 26.7412109375 685.311523438 l 1
 26.7412109375 685.311523438 104.9703125 738.9921875 236.39453125 738.9921875 c 0
 403.716008289 738.9921875 515.370117188 661.327703299 515.370117188 505.010742188 c 0
 515.370117188 357.985517121 395.986395342 292 291 292 c 0
 243.805610323 292 218.922851562 305 218.922851562 305 c 1
EndSplineSet
EndChar

StartChar: lira
Encoding: 8356 8356 134
Width: 553
Flags: W
HStem: 0 68.05<128.319 523> 228 60<60 424> 358 60<60 424> 669.871 69.5908<213.171 429.748>
VStem: 75.8516 81.9785<443.49 617.069> 153.324 72.1572<192.638 355.539>
LayerCount: 2
Fore
SplineSet
523 0 m 1xf4
 30 0 l 1
 30 64.05 l 1
 30 64.05 153.32421875 156.334942234 153.32421875 289.379882812 c 0xf4
 153.32421875 391.588284089 75.8515625 418.16779209 75.8515625 547.185546875 c 0
 75.8515625 671.398535433 170.848165867 739.461914062 306.30859375 739.461914062 c 0
 435.6704466 739.461914062 493.45703125 695.605273438 493.45703125 695.605273438 c 1
 474.9375 628.524414062 l 1
 474.9375 628.524414062 400.274161705 669.87109375 318.30859375 669.87109375 c 0
 229.43940207 669.87109375 157.830078125 644.93316749 157.830078125 536.408544922 c 0xf8
 157.830078125 431.149773149 225.481445312 409.727135385 225.481445312 290.158203125 c 0
 225.481445312 152.529676439 128.319335938 68.05 128.319335938 68.05 c 1
 523 68.05 l 1
 523 0 l 1xf4
424 228 m 1
 60 228 l 1
 60 288 l 1
 424 288 l 1
 424 228 l 1
424 358 m 1
 60 358 l 1
 60 418 l 1
 424 418 l 1
 424 358 l 1
EndSplineSet
EndChar

StartChar: uni20B5
Encoding: 8373 8373 135
Width: 623
Flags: W
HStem: -9.99805 33.9678<341.25 407.75> 700.5 38.6211<341.25 407.75>
VStem: 51.5 80.8986<219.518 510.224> 341.25 66.5<-105 23.9697 700.5 829.47>
LayerCount: 2
Fore
SplineSet
51.5 364.561523438 m 0
 51.5 591.206054688 172.616511998 739.12109375 385.888671875 739.12109375 c 0
 532.791471265 739.12109375 593.181640625 672.891601562 593.181640625 672.891601562 c 1
 560.05546875 616.738671875 l 1
 560.05546875 616.738671875 503.123093562 670.859179688 387.688671875 670.859179688 c 0
 208.857035825 670.859179688 132.398632812 548.233990168 132.398632812 364.561523438 c 0
 132.398632812 182.448155847 209.63572601 60.8638671877 390.288671875 60.8638671877 c 0
 509.421002249 60.8638671877 572.518554688 105.695703125 572.518554688 105.695703125 c 1
 596.327148438 44.595703125 l 1
 596.327148438 44.595703125 532.046813043 -9.998046875 385.888671875 -9.998046875 c 0
 172.616511998 -9.998046875 51.5 137.916992188 51.5 364.561523438 c 0
341.25 -105 m 1
 341.25 23.9697265625 l 1
 407.75 23.9697265625 l 1
 407.75 -105 l 1
 341.25 -105 l 1
341.25 700.5 m 1
 341.25 829.469726562 l 1
 407.75 829.469726562 l 1
 407.75 700.5 l 1
 341.25 700.5 l 1
EndSplineSet
EndChar

StartChar: uni20B2
Encoding: 8370 8370 136
Width: 739
Flags: W
HStem: -9.99805 42.4178<341.25 407.75> 316.5 66.05<386 535.919 607.827 704> 316.5 27.5957<535.919 607.827> 690.75 48.3711<341.25 407.75>
VStem: 51.5 80.8986<215.923 505.117> 341.25 66.5<-105 32.4197 690.75 829.47> 566.781 73.201<136.867 315.516>
LayerCount: 2
Fore
SplineSet
341.25 -105 m 1x9e
 341.25 -105 341.25 32.4197265625 341.25 32.4197265625 c 1
 341.25 32.4197265625 407.75 32.4197265625 407.75 32.4197265625 c 1
 407.75 32.4197265625 407.75 -105 407.75 -105 c 1
 341.25 -105 l 1x9e
341.25 690.75 m 1
 341.25 829.469726562 l 1
 407.75 829.469726562 l 1
 407.75 690.75 l 1
 341.25 690.75 l 1
704 316.5 m 1xde
 386 316.5 l 1
 386 382.55 l 1
 704 382.55 l 1
 704 316.5 l 1xde
51.5 364.561523438 m 0
 51.5 591.206054688 175.377578388 739.12109375 378.888671875 739.12109375 c 0
 523.665209358 739.12109375 583.181640625 672.891601562 583.181640625 672.891601562 c 1
 553.85546875 615.688671875 l 1
 553.85546875 615.688671875 497.435079295 667.859179688 383.038671875 667.859179688 c 0
 215.12359172 667.859179688 132.398632812 546.435029618 132.398632812 364.561523438 c 0
 132.398632812 181.668606275 203.695375242 59.5638671877 369.888671875 59.5638671877 c 0
 510.50608134 59.5638671877 566.781445312 126.953280041 566.781445312 228.1 c 0
 566.781445312 309.227742791 535.918554688 344.095703125 535.918554688 344.095703125 c 1
 607.827148438 344.095703125 l 1xbe
 607.827148438 344.095703125 639.982421875 315.497834355 639.982421875 222 c 0
 639.982421875 93.0859042083 553.056753246 -9.998046875 369.888671875 -9.998046875 c 0
 167.090853687 -9.998046875 51.5 137.916992188 51.5 364.561523438 c 0
EndSplineSet
EndChar

StartChar: uni20BA
Encoding: 8378 8378 137
Width: 648
Flags: W
HStem: 0 72<188.5 407.373> 711.008 20G<111.5 188.5>
VStem: 111.5 77<72 731.008>
LayerCount: 2
Fore
SplineSet
357.5 361.7 m 1
 46.5 261.7 l 1
 46.5 324.3 l 1
 357.5 424.3 l 1
 357.5 361.7 l 1
357.5 491.7 m 1
 46.5 391.7 l 1
 46.5 454.3 l 1
 357.5 554.3 l 1
 357.5 491.7 l 1
188.5 72 m 1
 300 72 l 2
 531.233695652 72 533.05 289 533.05 289 c 1
 612.5 278.5 l 1
 612.5 278.5 601.376457078 -3.44155259846e-14 300 0 c 2
 111.5 0 l 1
 111.5 731.0078125 l 1
 188.5 731.0078125 l 1
 188.5 72 l 1
EndSplineSet
EndChar

StartChar: fraction
Encoding: 8260 8260 138
Width: 304
Flags: W
HStem: 0 21G<-80.5 1.67497> 711.008 20G<352.325 434.5>
LayerCount: 2
Fore
SplineSet
-80.5 0 m 1
 364.5 731.0078125 l 1
 434.5 731.0078125 l 1
 -10.5 0 l 1
 -80.5 0 l 1
EndSplineSet
EndChar

StartChar: endash
Encoding: 8211 8211 139
Width: 570
Flags: W
HStem: 247.5 64<46.5 523.5>
LayerCount: 2
Fore
SplineSet
46.5 247.5 m 1
 46.5 311.5 l 1
 523.5 311.5 l 1
 523.5 247.5 l 1
 46.5 247.5 l 1
EndSplineSet
EndChar

StartChar: emdash
Encoding: 8212 8212 140
Width: 820
Flags: W
HStem: 247.5 64<26.5 793.5>
LayerCount: 2
Fore
SplineSet
26.5 247.5 m 1
 26.5 311.5 l 1
 793.5 311.5 l 1
 793.5 247.5 l 1
 26.5 247.5 l 1
EndSplineSet
EndChar

StartChar: Euro
Encoding: 8364 8364 141
Width: 683
Flags: W
HStem: -9.99805 68.2619<343.525 584.912> 273 60<40 433.007> 403 60<40 462.429> 673.459 65.6619<336.836 563.287>
VStem: 111.5 77.6486<275.973 453.769>
LayerCount: 2
Fore
SplineSet
433.00703125 273 m 1
 40 273 l 1
 40 333 l 1
 448.17109375 333 l 1
 433.00703125 273 l 1
462.42890625 403 m 1
 40 403 l 1
 40 463 l 1
 477.59296875 463 l 1
 462.42890625 403 l 1
111.5 364.561523438 m 0
 111.5 591.206054688 232.616431282 739.12109375 445.888671875 739.12109375 c 0
 592.79110211 739.12109375 653.181640625 672.891601562 653.181640625 672.891601562 c 1
 620.05546875 619.338671875 l 1
 620.05546875 619.338671875 563.551907525 673.459179688 448.988671875 673.459179688 c 0
 266.969326548 673.459179688 189.148632812 549.793089312 189.148632812 364.561523438 c 0
 189.148632812 180.889056703 269.574929742 58.2638671877 457.688671875 58.2638671877 c 0
 571.983007848 58.2638671877 632.518554688 103.095703125 632.518554688 103.095703125 c 1
 656.327148438 44.595703125 l 1
 656.327148438 44.595703125 592.047001392 -9.998046875 445.888671875 -9.998046875 c 0
 232.616431282 -9.998046875 111.5 137.916992188 111.5 364.561523438 c 0
EndSplineSet
EndChar

StartChar: uni20AD
Encoding: 8365 8365 142
Width: 665
Flags: W
HStem: 0 21G<107.5 184.5 520.54 638.5> 322.55 65.9<26.5 597.5> 711.008 20G<107.5 184.5 518.665 628.5>
VStem: 107.5 77<0 731.008>
LayerCount: 2
Fore
SplineSet
597.5 322.55 m 1
 26.5 322.55 l 1
 26.5 388.45 l 1
 597.5 388.45 l 1
 597.5 322.55 l 1
537.95 0 m 1
 251.95 328.55 l 1
 251.95 383.45 l 1
 534.95 731.0078125 l 1
 628.5 731.0078125 l 1
 321 364.85 l 1
 638.5 0 l 1
 537.95 0 l 1
107.5 0 m 1
 107.5 731.0078125 l 1
 184.5 731.0078125 l 1
 184.5 0 l 1
 107.5 0 l 1
EndSplineSet
EndChar

StartChar: uni20B9
Encoding: 8377 8377 143
Width: 574
Flags: W
HStem: 0 21G<407.373 495> 291.5 71.7016<46.5 290.776> 463 60<46.5 527.5> 661.549 69.4584<46.5 298.58>
VStem: 377.929 77.8486<428.786 591.665>
LayerCount: 2
Fore
SplineSet
183 291.5 m 2
 46.5 291.5 l 1
 46.5 363.2015625 l 1
 166.888671875 363.311914062 l 2
 287.393817557 363.421598431 377.928710938 389.56409381 377.928710938 509.311523438 c 0
 377.928710938 633.00047419 287.112490152 661.344858435 167.888671875 661.445898438 c 2
 46.5 661.549414062 l 1
 46.5 731.0078125 l 1
 183.888671875 731.0078125 l 2
 326.745750968 731.0078125 455.77734375 671.105241815 455.77734375 511.061523438 c 0
 455.77734375 361.188473772 322.688476562 328.026367188 322.688476562 328.026367188 c 1
 322.688476562 328.026367188 387.203395445 317.748648051 428.440527344 197.801318359 c 2
 495 0 l 1
 414 0 l 1
 369.616992187 133.948535156 l 2
 327.604181206 255.007679023 311.339570992 291.5 183 291.5 c 2
527.5 463 m 1
 46.5 463 l 1
 46.5 523 l 1
 527.5 523 l 1
 527.5 463 l 1
EndSplineSet
EndChar

StartChar: uni20B4
Encoding: 8372 8372 144
Width: 677
Flags: W
HStem: -10 70.2119<244.151 489.841> 268 60<46.5 630.5> 398 60<46.5 630.5> 667.909 71.2119<192.575 427.605>
VStem: 96.5 77.0316<119.81 262.66> 493.081 77.3115<472.79 609.681>
LayerCount: 2
Fore
SplineSet
630.5 268 m 1
 46.5 268 l 1
 46.5 328 l 1
 630.5 328 l 1
 630.5 268 l 1
630.5 398 m 1
 46.5 398 l 1
 46.5 458 l 1
 630.5 458 l 1
 630.5 398 l 1
354.243945312 334.35625 m 0
 195.766371322 293.261066315 173.531640625 259.097305939 173.531640625 189.45 c 0
 173.531640625 103.77294201 240.634895013 60.2119140623 363.473242188 60.2119140623 c 0
 471.103803729 60.2119140623 556.546875 109.082421875 556.546875 109.082421875 c 1
 580.703125 42.2294921875 l 1
 580.703125 42.2294921875 491.377330591 -10 349.21484375 -10 c 0
 184.484148816 -10 96.5 69.2485703477 96.5 197.85 c 0
 96.5 302.879853881 154.411872329 354.494424982 313.472460938 398.381054688 c 0
 454.91648383 436.863481854 493.081054688 468.507663857 493.081054688 538.2 c 0
 493.081054688 621.510891622 435.671098812 667.909179688 308.00625 667.909179688 c 0
 212.407429792 667.909179688 147.5484375 625.388671875 147.5484375 625.388671875 c 1
 120.774414062 688.891601562 l 1
 120.774414062 688.891601562 185.07303445 739.12109375 317.286132812 739.12109375 c 0
 474.622175338 739.12109375 570.392578125 658.519604968 570.392578125 533.35 c 0
 570.392578125 435.045890565 516.925895155 376.564130243 354.243945312 334.35625 c 0
EndSplineSet
EndChar

StartChar: colonmonetary
Encoding: 8353 8353 145
Width: 623
Flags: W
HStem: -9.99805 40.4678<342.878 399.352> 673.459 65.6619<364.689 442.418>
VStem: 51.5 80.8986<218.899 510.843> 162.114 56.5<-105 -74.8366> 312.114 56.5<-105 -74.1751> 326.886 56.5<798.645 829.47> 476.886 56.5<798.645 829.47>
LayerCount: 2
Fore
SplineSet
312.114257812 -105 m 1xfa
 342.877929688 30.4697265625 l 1
 399.377929688 30.4697265625 l 1
 368.614257812 -105 l 1
 312.114257812 -105 l 1xfa
446.122070312 694 m 1
 476.885742188 829.469726562 l 1
 533.385742188 829.469726562 l 1
 502.622070312 694 l 1
 446.122070312 694 l 1
51.5 364.561523438 m 0
 51.5 591.206054688 172.616511998 739.12109375 385.888671875 739.12109375 c 0
 532.791471265 739.12109375 593.181640625 672.891601562 593.181640625 672.891601562 c 1
 560.05546875 619.338671875 l 1
 560.05546875 619.338671875 503.123093562 673.459179688 387.688671875 673.459179688 c 0
 208.857035825 673.459179688 132.398632812 549.793089312 132.398632812 364.561523438 c 0
 132.398632812 180.889056703 211.462652983 58.2638671877 396.388671875 58.2638671877 c 0
 510.683270747 58.2638671877 571.218554688 105.695703125 571.218554688 105.695703125 c 1
 596.327148438 44.595703125 l 1
 596.327148438 44.595703125 532.046813043 -9.998046875 385.888671875 -9.998046875 c 0
 172.616511998 -9.998046875 51.5 137.916992188 51.5 364.561523438 c 0
162.114257812 -105 m 1
 198.077929688 49.9697265625 l 1
 254.577929688 49.9697265625 l 1
 218.614257812 -105 l 1
 162.114257812 -105 l 1
296.122070312 694 m 1
 326.885742188 829.469726562 l 1
 383.385742188 829.469726562 l 1xf6
 352.622070312 694 l 1
 296.122070312 694 l 1
EndSplineSet
EndChar

StartChar: zero.inferior
Encoding: 8320 8320 148
Width: 454
Flags: W
HStem: -358 58.2792<156.99 299.01> 84.7207 58.2793<156.99 299.01>
VStem: 33.6855 61.5407<-227.366 11.653> 360.774 61.5408<-227.366 11.653>
LayerCount: 2
Fore
SplineSet
95.22625 -108 m 0
 95.22625 -223.3745 134.94 -299.72075 228 -299.72075 c 0
 321.06 -299.72075 360.77375 -223.3745 360.77375 -108 c 0
 360.77375 7.3745 321.06 84.72075 228 84.72075 c 0
 134.94 84.72075 95.22625 7.3745 95.22625 -108 c 0
33.6855 -108 m 0
 33.6855 44 100.86925 143 228 143 c 0
 355.13075 143 422.3145 44 422.3145 -108 c 0
 422.3145 -260 355.13075 -358 228 -358 c 0
 100.86925 -358 33.6855 -260 33.6855 -108 c 0
EndSplineSet
EndChar

StartChar: one.inferior
Encoding: 8321 8321 149
Width: 276
Flags: W
VStem: 161.615 64.4877<-350 63.537>
LayerCount: 2
Fore
SplineSet
226.1025 137 m 1
 226.1025 -350 l 1
 161.61475 -350 l 1
 161.61475 63.537 l 1
 161.61475 63.537 45.4735 5.007 45.4735 5.007 c 1
 45.4735 5.007 23.76675 53.3145 23.76675 53.3145 c 1
 173.14125 137 l 1
 226.1025 137 l 1
EndSplineSet
EndChar

StartChar: two.inferior
Encoding: 8322 8322 150
Width: 404
Flags: W
HStem: -350 56.569<103.145 379.526> 86.59 56.41<98.8317 277.324>
VStem: 37.3428 65.8022<-293.431 -235.379> 309.406 61.4348<-60.0133 54.6072>
LayerCount: 2
Fore
SplineSet
309.40625 -4.1555 m 0
 309.40625 46.66425 279.56175 86.59 192.44875 86.59 c 0
 122.13075 86.59 71.629 49.537 71.629 49.537 c 1
 49.212 102.5795 l 1
 49.212 102.5795 108.212 143 194.6855 143 c 0
 304.4735 143 370.841 94.106 370.841 -3.2085 c 0
 370.841 -89.33925 314.682 -125.523 233 -164.152 c 0
 116.33225 -217.9965 103.38175 -254.71025 103.145 -293.431 c 1
 379.5265 -293.431 l 1
 379.5265 -350 l 1
 37.34275 -350 l 1
 37.34275 -314 l 2
 37.34275 -218.66075 98.76325 -164.29325 209.76325 -110.13775 c 0
 274.24375 -80.1095 309.40625 -56.2155 309.40625 -4.1555 c 0
EndSplineSet
EndChar

StartChar: three.inferior
Encoding: 8323 8323 151
Width: 388
Flags: W
HStem: -358 56.2792<57.1671 258.312> -128.601 53.2015<110.474 259.523> 85.3003 57.6997<67.4691 253.349>
VStem: 282.986 62.6185<-51.9036 57.3371> 292.222 63.6185<-270.238 -157.262>
LayerCount: 2
Fore
SplineSet
172.318 -75.39925 m 2xe8
 248.5335 -75.39925 282.98575 -49.8445 282.98575 1.55475 c 0
 282.98575 49.007 255.325 85.30025 167.39575 85.30025 c 0
 93.02475 85.30025 48.629 53.19425 48.629 53.19425 c 1
 28.81625 105.947 l 1
 28.81625 105.947 80.81625 143 170.5795 143 c 0
 280 143 345.60425 96.053 345.60425 7.6325 c 0xf0
 345.60425 -79.6855 264.417 -101.053 264.417 -101.053 c 1
 264.417 -101.053 355.841 -119.841 355.841 -217.159 c 0
 355.841 -315.947 280.894 -358 168 -358 c 0
 72.28975 -358 15.34275 -323 15.34275 -323 c 1
 34.682 -268.537 l 1
 34.682 -268.537 83.55125 -301.72075 164.6855 -301.72075 c 0
 251.6925 -301.72075 292.2225 -270.34975 292.2225 -214.66075 c 0
 292.2225 -155.39225 250.98225 -128.60075 172.55475 -128.60075 c 2
 110.4735 -128.60075 l 1
 110.4735 -75.39925 l 1
 172.318 -75.39925 l 2xe8
EndSplineSet
EndChar

StartChar: four.inferior
Encoding: 8324 8324 152
Width: 439
Flags: W
HStem: -222.891 54.1485<107.622 409.604>
VStem: 269.823 61.5407<-350 43.8055>
LayerCount: 2
Fore
SplineSet
331.364 137 m 1
 331.364 -350 l 1
 269.82325 -350 l 1
 269.82325 43.8055 l 1
 107.622 -168.742 l 1
 409.60425 -168.742 l 1
 409.60425 -222.8905 l 1
 48.86925 -222.8905 l 1
 35.13425 -176.39925 l 1
 271.06 137 l 1
 331.364 137 l 1
EndSplineSet
EndChar

StartChar: five.inferior
Encoding: 8325 8325 153
Width: 405
Flags: W
HStem: -357 56.6997<63.8117 268.481> -84.5973 51.9117<132.061 277.272> 81.431 55.569<122.148 341.184>
VStem: 312.064 61.6715<-258.937 -119.639>
LayerCount: 2
Fore
SplineSet
182.71025 -357 m 0
 81.106 -357 20.6855 -323 20.6855 -323 c 1
 39.788 -267.82675 l 1
 39.788 -267.82675 98.07775 -300.30025 173.65725 -300.30025 c 0
 271.4805 -300.30025 312.0635 -258.5335 312.0635 -189.92225 c 0
 312.0635 -123.8375 275.82325 -84.59725 203.92225 -84.59725 c 0
 125.86225 -84.59725 101.3605 -141.07775 101.3605 -141.07775 c 1
 46.5265 -127.6325 l 1
 72.28975 137 l 1
 341.18375 137 l 1
 341.18375 81.431 l 1
 122.1485 81.431 l 1
 106.64675 -76.219 l 1
 106.64675 -76.219 133.728 -32.6855 219.49825 -32.6855 c 0
 315.28625 -32.6855 373.735 -91.212 373.735 -188.212 c 0
 373.735 -293.34275 305.629 -357 182.71025 -357 c 0
EndSplineSet
EndChar

StartChar: six.inferior
Encoding: 8326 8326 154
Width: 427
Flags: W
HStem: -358 56.675<145.113 296.759> -83.675 50.728<144.406 297.761> 86.7207 56.2793<159.505 340.713>
VStem: 33.6855 57.4878<-107.459 10.423> 335.484 58.5937<-262.439 -119.783>
LayerCount: 2
Fore
SplineSet
104.69975 -192 m 0
 104.69975 -255.03175 142.33575 -301.325 220.76325 -301.325 c 0
 300.4805 -301.325 335.484 -255.03175 335.484 -192 c 0
 335.484 -128.96825 302.06 -83.675 220.76325 -83.675 c 0
 142.33575 -83.675 104.69975 -128.96825 104.69975 -192 c 0
91.17325 -107.45925 m 1
 91.17325 -107.45925 114.48775 -32.947 230.02475 -32.947 c 0
 331.3675 -32.947 394.07775 -97.4735 394.07775 -191 c 0
 394.07775 -298 327.894 -358 221 -358 c 0
 99.947 -358 33.6855 -285 33.6855 -107 c 0
 33.6855 54 106.81625 143 238.4205 143 c 0
 331.49825 143 378.1555 104.106 378.1555 104.106 c 1
 357.159 55.24725 l 1
 357.159 55.24725 316.81625 86.72075 242.07775 86.72075 c 0
 145.4135 86.72075 93.304 29.66425 91.17325 -107.45925 c 1
EndSplineSet
EndChar

StartChar: seven.inferior
Encoding: 8327 8327 155
Width: 402
Flags: W
HStem: 80.431 56.569<33.2368 298.724>
VStem: 131.191 64.198<-350 -206.714>
LayerCount: 2
Fore
SplineSet
195.38875 -350 m 1
 131.19075 -350 l 1
 139.4805 -98.75275 298.72425 80.431 298.72425 80.431 c 1
 33.23675 80.431 l 1
 33.23675 137 l 1
 369.76325 137 l 1
 369.76325 89.113 l 1
 369.76325 89.113 197.91525 -96.6785 195.38875 -350 c 1
EndSplineSet
EndChar

StartChar: eight.inferior
Encoding: 8328 8328 156
Width: 442
Flags: W
HStem: -358 53.9118<131.948 311.781> -120.074 48.1485<155.862 289.534> -107.841 27.8127<114.632 331> 88.0883 54.9117<144.207 302.915>
VStem: 33.6855 60.0142<-268.781 -155.809> 57.4488 57.8305<-43.8033 60.9349> 331.643 57.8305<-43.8033 60.1974> 350.222 60.0143<-268.781 -155.809>
LayerCount: 2
Fore
SplineSet
222.106 -71.92575 m 0xd6
 289.5335 -71.92575 331.643 -41.55475 331.643 6.50175 c 0
 331.643 58.19075 291.06 88.08825 221.5795 88.08825 c 0
 154.099 88.08825 115.27925 58.19075 115.27925 6.50175 c 0
 115.27925 -41.55475 155.86225 -71.92575 222.106 -71.92575 c 0xd6
221.5795 143 m 0
 326 143 389.4735 93.5265 389.4735 12 c 0
 389.4735 -62.735 331 -107.841 221.5795 -107.841 c 0xb6
 114.6325 -107.841 57.44875 -62.735 57.44875 12 c 0
 57.44875 93.5265 119.159 143 221.5795 143 c 0
221.81625 -304.08825 m 0
 301.19075 -304.08825 350.2225 -271.24375 350.2225 -211.60775 c 0
 350.2225 -155.2085 301.19075 -120.07425 221.81625 -120.07425 c 0
 142.44175 -120.07425 93.69975 -155.2085 93.69975 -211.60775 c 0xd9
 93.69975 -271.24375 142.44175 -304.08825 221.81625 -304.08825 c 0
221.81625 -80.02825 m 0xb9
 343 -80.02825 410.23675 -129.265 410.23675 -217.265 c 0
 410.23675 -302.5795 336 -358 221.81625 -358 c 0
 107.6325 -358 33.6855 -302.5795 33.6855 -217.265 c 0
 33.6855 -129.265 100.6325 -80.02825 221.81625 -80.02825 c 0xb9
EndSplineSet
EndChar

StartChar: nine.inferior
Encoding: 8329 8329 157
Width: 426
Flags: W
HStem: -358 56.2792<85.1413 266.985> -182.526 51.2545<131.802 282.152> 85.8515 57.1485<132.88 281.939>
VStem: 33.6855 59.304<-93.3352 47.4421> 334.406 58.9083<-225.627 -107.831>
LayerCount: 2
Fore
SplineSet
321.9575 -23 m 0
 321.9575 40.03175 284.848 85.8515 206.947 85.8515 c 0
 127.75625 85.8515 92.9895 40.03175 92.9895 -23 c 0
 92.9895 -85.50525 126.17675 -131.272 206.947 -131.272 c 0
 284.848 -131.272 321.9575 -85.50525 321.9575 -23 c 0
334.40625 -107.8305 m 1
 334.40625 -107.8305 311.09175 -182.5265 196.97525 -182.5265 c 0
 95.6325 -182.5265 33.6855 -117.5265 33.6855 -23.76325 c 0
 33.6855 83.23675 99.106 143 206 143 c 0
 327.053 143 393.3145 70 393.3145 -108 c 0
 393.3145 -269 319.65725 -358 188.5795 -358 c 0
 95.50175 -358 48.8445 -319.6325 48.8445 -319.6325 c 1
 68.65725 -270.537 l 1
 68.65725 -270.537 109.76325 -301.72075 184.92225 -301.72075 c 0
 280.6395 -301.72075 332.2755 -244.954 334.40625 -107.8305 c 1
EndSplineSet
EndChar

StartChar: zero.superior
Encoding: 8304 8304 158
Width: 455
Flags: W
HStem: 342 58.2792<156.99 299.14> 784.721 58.2792<156.99 299.14>
VStem: 33.6855 61.5407<472.634 711.653> 361.537 61.5407<472.634 711.653>
LayerCount: 2
Fore
SplineSet
95.22625 592 m 0
 95.22625 476.6255 134.94 400.27925 228 400.27925 c 0
 321.06 400.27925 361.537 476.6255 361.537 592 c 0
 361.537 707.3745 321.06 784.72075 228 784.72075 c 0
 134.94 784.72075 95.22625 707.3745 95.22625 592 c 0
33.6855 592 m 0
 33.6855 744 100.86925 843 228 843 c 0
 355.13075 843 423.07775 744 423.07775 592 c 0
 423.07775 440 355.13075 342 228 342 c 0
 100.86925 342 33.6855 440 33.6855 592 c 0
EndSplineSet
EndChar

StartChar: one.superior
Encoding: 185 185 159
Width: 276
Flags: W
VStem: 161.615 64.4877<350 763.537>
LayerCount: 2
Fore
SplineSet
226.1025 837 m 1
 226.1025 350 l 1
 161.61475 350 l 1
 161.61475 763.537 l 1
 45.4735 705.007 l 1
 23.76675 753.3145 l 1
 173.14125 837 l 1
 226.1025 837 l 1
EndSplineSet
EndChar

StartChar: two.superior
Encoding: 178 178 160
Width: 404
Flags: W
HStem: 350 56.569<103.145 379.526> 786.59 56.41<98.8798 277.392>
VStem: 37.3428 65.8022<406.569 464.621> 309.406 61.4348<639.987 754.607>
LayerCount: 2
Fore
SplineSet
309.40625 695.8445 m 0
 309.40625 746.66425 279.7985 786.59 192.6855 786.59 c 0
 122.3675 786.59 71.629 749.537 71.629 749.537 c 1
 49.212 802.34275 l 1
 49.212 802.34275 108.212 843 194.6855 843 c 0
 304.4735 843 370.841 794.106 370.841 696.7915 c 0
 370.841 610.66075 314.682 574.477 233 535.848 c 0
 116.33225 482.0035 103.38175 445.28975 103.145 406.569 c 1
 379.5265 406.569 l 1
 379.5265 350 l 1
 37.34275 350 l 1
 37.34275 386 l 2
 37.34275 481.33925 99.23675 535.70675 210 589.86225 c 0
 274.4805 619.8905 309.40625 643.7845 309.40625 695.8445 c 0
EndSplineSet
EndChar

StartChar: three.superior
Encoding: 179 179 161
Width: 388
Flags: W
HStem: 342 56.2792<58.018 258.312> 571.399 53.2015<110.474 259.523> 785.3 57.6997<67.4691 253.349>
VStem: 282.986 62.6185<648.096 757.337> 292.222 63.6185<429.867 542.838>
LayerCount: 2
Fore
SplineSet
172.318 624.60075 m 2xe8
 248.5335 624.60075 282.98575 650.1555 282.98575 701.55475 c 0
 282.98575 749.007 255.325 785.30025 167.39575 785.30025 c 0
 93.02475 785.30025 48.629 753.484 48.629 753.484 c 1
 28.81625 805.71025 l 1
 28.81625 805.71025 80.81625 843 170.5795 843 c 0
 280 843 345.60425 796.053 345.60425 707.6325 c 0xf0
 345.60425 620.3145 264.417 598.947 264.417 598.947 c 1
 264.417 598.947 355.841 580.39575 355.841 483.07775 c 0
 355.841 384.28975 280.894 342 168 342 c 0
 72.28975 342 15.34275 376.5265 15.34275 376.5265 c 1
 34.682 431.9895 l 1
 34.682 431.9895 83.55125 398.27925 164.6855 398.27925 c 0
 251.6925 398.27925 292.2225 429.65025 292.2225 485.33925 c 0
 292.2225 544.60775 250.98225 571.39925 172.55475 571.39925 c 2
 110.4735 571.39925 l 1
 110.4735 624.60075 l 1
 172.318 624.60075 l 2xe8
EndSplineSet
EndChar

StartChar: four.superior
Encoding: 8308 8308 162
Width: 439
Flags: W
HStem: 477.11 54.1485<107.622 409.604>
VStem: 269.823 61.5407<350 743.095>
LayerCount: 2
Fore
SplineSet
331.364 837 m 1
 331.364 350 l 1
 269.82325 350 l 1
 269.82325 743.09525 l 1
 107.622 531.258 l 1
 409.60425 531.258 l 1
 409.60425 477.1095 l 1
 48.86925 477.1095 l 1
 35.13425 523.60075 l 1
 271.06 837 l 1
 331.364 837 l 1
EndSplineSet
EndChar

StartChar: five.superior
Encoding: 8309 8309 163
Width: 405
Flags: W
HStem: 343 56.6997<63.8117 268.481> 615.403 51.9118<132.061 277.272> 781.431 55.569<122.148 341.184>
VStem: 312.064 61.6715<441.063 580.361>
LayerCount: 2
Fore
SplineSet
182.71025 343 m 0
 81.106 343 20.6855 377 20.6855 377 c 1
 39.788 432.17325 l 1
 39.788 432.17325 98.07775 399.69975 173.65725 399.69975 c 0
 271.4805 399.69975 312.0635 441.4665 312.0635 510.07775 c 0
 312.0635 576.1625 275.82325 615.40275 203.92225 615.40275 c 0
 125.86225 615.40275 101.3605 558.92225 101.3605 558.92225 c 1
 46.5265 572.3675 l 1
 72.28975 837 l 1
 341.18375 837 l 1
 341.18375 781.431 l 1
 122.1485 781.431 l 1
 106.64675 623.781 l 1
 106.64675 623.781 133.728 667.3145 219.49825 667.3145 c 0
 315.28625 667.3145 373.735 608.788 373.735 511.788 c 0
 373.735 406.65725 305.629 343 182.71025 343 c 0
EndSplineSet
EndChar

StartChar: six.superior
Encoding: 8310 8310 164
Width: 427
Flags: W
HStem: 342 56.675<145.113 296.759> 616.325 50.728<144.406 297.761> 786.721 56.2792<159.505 341.389>
VStem: 33.6855 57.4878<592.067 710.194> 335.484 58.5937<437.561 580.217>
LayerCount: 2
Fore
SplineSet
104.69975 508 m 0
 104.69975 444.96825 142.33575 398.675 220.76325 398.675 c 0
 300.4805 398.675 335.484 444.96825 335.484 508 c 0
 335.484 571.03175 302.06 616.325 220.76325 616.325 c 0
 142.33575 616.325 104.69975 571.03175 104.69975 508 c 0
91.17325 592.06725 m 1
 91.17325 592.06725 114.48775 667.053 230.02475 667.053 c 0
 331.3675 667.053 394.07775 602.5265 394.07775 509 c 0
 394.07775 402 327.894 342 221 342 c 0
 99.947 342 33.6855 415 33.6855 593 c 0
 33.6855 754 106.81625 843 238.4205 843 c 0
 331.49825 843 378.1555 804.106 378.1555 804.106 c 1
 357.159 755.537 l 1
 357.159 755.537 316.81625 786.72075 242.07775 786.72075 c 0
 145.4135 786.72075 93.304 729.4275 91.17325 592.06725 c 1
EndSplineSet
EndChar

StartChar: seven.superior
Encoding: 8311 8311 165
Width: 402
Flags: W
HStem: 780.431 56.569<33.2368 298.724>
VStem: 131.191 64.198<350 493.286>
LayerCount: 2
Fore
SplineSet
195.38875 350 m 1
 131.19075 350 l 1
 139.4805 601.24725 298.72425 780.431 298.72425 780.431 c 1
 33.23675 780.431 l 1
 33.23675 837 l 1
 369.76325 837 l 1
 369.76325 788.87625 l 1
 369.76325 788.87625 197.91525 603.3215 195.38875 350 c 1
EndSplineSet
EndChar

StartChar: eight.superior
Encoding: 8312 8312 166
Width: 443
Flags: W
HStem: 342 53.9118<132.323 312.827> 579.926 48.1485<156.099 290.717> 592.159 27.8128<114.869 332.184> 788.088 54.9117<144.524 304.071>
VStem: 33.6855 60.0142<431.219 544.191> 57.4488 57.8305<656.197 760.935> 333.064 57.8305<656.197 760.197> 351.643 60.0143<431.219 542.614>
LayerCount: 2
Fore
SplineSet
222.81625 628.07425 m 0xd6
 290.71725 628.07425 333.0635 658.44525 333.0635 706.50175 c 0
 333.0635 758.19075 292.24375 788.08825 222.28975 788.08825 c 0
 154.5725 788.08825 115.27925 758.19075 115.27925 706.50175 c 0
 115.27925 658.44525 156.099 628.07425 222.81625 628.07425 c 0xd6
222.28975 843 m 0
 327.18375 843 390.894 793.5265 390.894 712 c 0
 390.894 637.265 332.18375 592.159 222.28975 592.159 c 0xb6
 114.86925 592.159 57.44875 637.265 57.44875 712 c 0
 57.44875 793.5265 119.39575 843 222.28975 843 c 0
222.5265 395.91175 m 0
 302.13775 395.91175 351.643 428.75625 351.643 488.39225 c 0
 351.643 544.7915 302.13775 579.92575 222.5265 579.92575 c 0
 142.91525 579.92575 93.69975 544.7915 93.69975 488.39225 c 0xd9
 93.69975 428.75625 142.91525 395.91175 222.5265 395.91175 c 0
222.5265 619.97175 m 0xb9
 344.18375 619.97175 411.65725 570.735 411.65725 482.735 c 0
 411.65725 397.4205 336.947 342 222.5265 342 c 0
 108.106 342 33.6855 397.4205 33.6855 482.735 c 0
 33.6855 570.735 100.86925 619.97175 222.5265 619.97175 c 0xb9
EndSplineSet
EndChar

StartChar: nine.superior
Encoding: 8313 8313 167
Width: 426
Flags: W
HStem: 342 56.2792<85.8266 266.985> 517.474 51.2545<131.802 282.152> 785.851 57.1485<132.88 281.939>
VStem: 33.6855 59.304<606.665 747.442> 334.406 58.9083<474.911 592.933>
LayerCount: 2
Fore
SplineSet
321.9575 677 m 0
 321.9575 740.03175 284.848 785.8515 206.947 785.8515 c 0
 127.75625 785.8515 92.9895 740.03175 92.9895 677 c 0
 92.9895 614.49475 126.17675 568.728 206.947 568.728 c 0
 284.848 568.728 321.9575 614.49475 321.9575 677 c 0
334.40625 592.93275 m 1
 334.40625 592.93275 311.09175 517.4735 196.97525 517.4735 c 0
 95.6325 517.4735 33.6855 582.4735 33.6855 676.23675 c 0
 33.6855 783.23675 99.106 843 206 843 c 0
 327.053 843 393.3145 770 393.3145 592 c 0
 393.3145 431 319.65725 342 188.5795 342 c 0
 95.50175 342 48.8445 380.894 48.8445 380.894 c 1
 68.65725 429.9895 l 1
 68.65725 429.9895 109.76325 398.27925 184.92225 398.27925 c 0
 280.6395 398.27925 332.2755 455.80925 334.40625 592.93275 c 1
EndSplineSet
EndChar

StartChar: circumflex
Encoding: 710 710 168
Width: 362
Flags: W
HStem: 522.5 208.508
VStem: 27.5 307
LayerCount: 2
Fore
SplineSet
290.5 522.5 m 1
 181 659.932617188 l 1
 71.5 522.5 l 1
 27.5 546 l 1
 144 731.0078125 l 1
 218 731.0078125 l 1
 334.5 546 l 1
 290.5 522.5 l 1
EndSplineSet
EndChar

StartChar: caron
Encoding: 711 711 169
Width: 362
Flags: W
HStem: 532.5 208.508
VStem: 27.5 307
LayerCount: 2
Fore
SplineSet
71.5 741.0078125 m 1
 181 603.575195312 l 1
 290.5 741.0078125 l 1
 334.5 717.5078125 l 1
 218 532.5 l 1
 144 532.5 l 1
 27.5 717.5078125 l 1
 71.5 741.0078125 l 1
EndSplineSet
EndChar

StartChar: breve
Encoding: 728 728 170
Width: 322
VWidth: 999
Flags: W
HStem: 624.937 60.9375<82.8402 239.98> 715 20G<24.319 55.4434 267.377 298.501>
VStem: 11.5 299.82
LayerCount: 2
Fore
SplineSet
161.41015625 624.936523438 m 0
 56.4064051632 624.936523438 11.5 706.762695312 11.5 706.762695312 c 1
 55.443359375 735 l 1
 55.443359375 735 78.8646759801 685.874023438 161.41015625 685.874023438 c 0
 243.95563652 685.874023438 267.376953125 735 267.376953125 735 c 1
 311.3203125 706.762695312 l 1
 311.3203125 706.762695312 266.413907337 624.936523438 161.41015625 624.936523438 c 0
EndSplineSet
EndChar

StartChar: dotaccent
Encoding: 729 729 171
Width: 248
Flags: W
HStem: 631.543 107.449<80.3924 168.607>
VStem: 71.3867 106.227<640.652 729.883>
LayerCount: 2
Fore
SplineSet
71.38671875 685.267578125 m 0
 71.38671875 717.814815101 92.32223492 738.9921875 124.499023438 738.9921875 c 0
 156.67687132 738.9921875 177.61328125 717.814815101 177.61328125 685.267578125 c 0
 177.61328125 652.719753133 156.67687132 631.54296875 124.499023438 631.54296875 c 0
 92.3222349197 631.54296875 71.38671875 652.719753133 71.38671875 685.267578125 c 0
EndSplineSet
EndChar

StartChar: tilde
Encoding: 732 732 172
Width: 371
VWidth: 999
Flags: W
HStem: 638.864 64.4375<199.278 326.263> 687.434 63.5684<48.7338 172.233> 712.364 20G<334.157 347.443>
LayerCount: 2
Fore
SplineSet
366.400390625 683.826953125 m 1xa0
 366.400390625 683.826953125 326.495365363 638.864257812 264.975585938 638.864257812 c 0xa0
 183.915839046 638.864257812 167.349698366 687.43359375 108.163085938 687.43359375 c 0
 67.0272335615 687.43359375 33.46875 653.895507812 33.46875 653.895507812 c 1
 5 708.876953125 l 1
 5 708.876953125 49.0621896369 751.001953125 106.42578125 751.001953125 c 0x40
 186.198734919 751.001953125 209.197666554 703.301757812 263.23828125 703.301757812 c 0
 310.152780853 703.301757812 334.15703125 732.364257812 334.15703125 732.364257812 c 1
 366.400390625 683.826953125 l 1xa0
EndSplineSet
EndChar

StartChar: hungarumlaut
Encoding: 733 733 173
Width: 412
Flags: W
HStem: 536 205.008
LayerCount: 2
Fore
SplineSet
262 536 m 1
 213.5 549.5 l 1
 311 741.0078125 l 1
 384.5 717.5078125 l 1
 262 536 l 1
72 536 m 1
 23.5 549.5 l 1
 121 741.0078125 l 1
 194.5 717.5078125 l 1
 72 536 l 1
EndSplineSet
EndChar

StartChar: multiply
Encoding: 215 215 174
Width: 450
Flags: W
LayerCount: 2
Fore
SplineSet
418.040039062 508.394335938 m 1
 74.6056640625 164.959960938 l 1
 31.9599609375 207.605664062 l 1
 375.394335938 551.040039062 l 1
 418.040039062 508.394335938 l 1
375.394335938 164.959960938 m 1
 31.9599609375 508.394335938 l 1
 74.6056640625 551.040039062 l 1
 418.040039062 207.605664062 l 1
 375.394335938 164.959960938 l 1
EndSplineSet
EndChar

StartChar: divide
Encoding: 247 247 175
Width: 450
Flags: W
HStem: 164.696 101.804<182.537 267.463> 328.2 59.6<30 420> 449.5 101.804<182.537 267.463>
VStem: 174.648 100.703<172.671 258.525 457.475 543.329>
LayerCount: 2
Fore
SplineSet
420 328.2 m 1
 30 328.2 l 1
 30 387.8 l 1
 420 387.8 l 1
 420 328.2 l 1
174.6484375 215.597460938 m 0
 174.6484375 246.43474491 194.495243779 266.499804688 224.999023438 266.499804688 c 0
 255.503861491 266.499804688 275.3515625 246.43474491 275.3515625 215.597460938 c 0
 275.3515625 184.760409657 255.503861491 164.69609375 224.999023438 164.69609375 c 0
 194.495243779 164.69609375 174.6484375 184.760409657 174.6484375 215.597460938 c 0
174.6484375 500.402539062 m 0
 174.6484375 531.238997881 194.495243779 551.30390625 224.999023438 551.30390625 c 0
 255.503861491 551.30390625 275.3515625 531.238997881 275.3515625 500.402539062 c 0
 275.3515625 469.564662623 255.503861491 449.500195312 224.999023438 449.500195312 c 0
 194.495243779 449.500195312 174.6484375 469.564662623 174.6484375 500.402539062 c 0
EndSplineSet
EndChar

StartChar: AE
Encoding: 198 198 176
Width: 1024
Flags: W
HStem: 0 68.75<598.75 977.5> 167.1 67.1<222 570.75> 333 70.5<564 917.5> 662.258 68.75<598.75 977.5>
VStem: 525 45.75<167.1 234.2 682.5 682.5> 564 34.75<333 403.5>
LayerCount: 2
Fore
SplineSet
917.5 333 m 1xf4
 564 333 l 1
 564 403.5 l 1
 917.5 403.5 l 1
 917.5 333 l 1xf4
598.75 662.2578125 m 1
 598.75 68.75 l 1xf4
 977.5 68.75 l 1
 977.5 0 l 1
 525 0 l 1
 525 731.0078125 l 1xf8
 977.5 731.0078125 l 1
 977.5 662.2578125 l 1
 598.75 662.2578125 l 1
570.75 167.1 m 1xf8
 165 167.1 l 1
 222 234.2 l 1
 570.75 234.2 l 1
 570.75 167.1 l 1xf8
566.5 731.0078125 m 1
 566.5 682.5 l 1
 109.45 0 l 1
 21.5 0 l 1
 521.5 731.0078125 l 1
 566.5 731.0078125 l 1
EndSplineSet
EndChar

StartChar: ae
Encoding: 230 230 177
Width: 872
Flags: W
HStem: -9.99805 61.0119<536.332 773.542> -9.99805 62.0119<148.1 312.69> 222.55 57.4<412.75 762.3> 240.684 56.2494<182.795 387.277> 449.684 61.2494<521.134 692.932> 449.761 61.25<115.465 311.436>
VStem: 41.5 76.3486<80.5433 195.077> 366.229 58.2<158 396.772> 412.75 30.1486<222.55 279.95> 762.25 68.7158<279.954 378.102>
LayerCount: 2
Fore
SplineSet
366.228710938 177.561523438 m 1x5340
 430 159 l 1
 411.928602364 45.9949391168 345.365359387 -9.998046875 220.338671875 -9.998046875 c 0
 105.51838818 -9.998046875 41.5 46.6424499748 41.5 132.55 c 0
 41.5 274.342771327 185.592554522 296.801507596 387.428710938 296.93359375 c 1
 387.27734375 240.684179688 l 1
 158.769638269 240.527398254 117.848632812 203.142221506 117.848632812 136.661523438 c 0
 117.848632812 80.513533554 160.729739786 52.0138671875 230.838671875 52.0138671875 c 0
 308.773206878 52.0138671875 366.228710938 93.2145344698 366.228710938 177.561523438 c 1x5340
424.428710938 158 m 1
 366.228710938 165 l 1
 366.228710938 316.010742188 l 2
 366.228710938 409.476475867 307.921516156 449.760742188 229.078710938 449.760742188 c 0
 149.957271727 449.760742188 93.4287109375 418.010742188 93.4287109375 418.010742188 c 1
 75.4287109375 473.510742188 l 1
 75.4287109375 473.510742188 134.257574723 511.010742188 239.65 511.010742188 c 0x0740
 348.980994238 511.010742188 424.428710938 442.926207049 424.428710938 340.010742188 c 2
 424.428710938 158 l 1
EndSplineSet
Refer: 43 101 N 1 0 0 1 321 0 2
EndChar

StartChar: Eth
Encoding: 208 208 178
Width: 789
Flags: W
HStem: 0 69.2016<210.5 491.883> 327.45 66.1<36.5 427.5> 661.799 69.2084<210.5 491.883>
VStem: 133.5 77<69.2016 661.799> 660.429 77.8486<230.49 498.732>
LayerCount: 2
Fore
SplineSet
427.5 327.45 m 1
 36.5 327.45 l 1
 36.5 393.55 l 1
 427.5 393.55 l 1
 427.5 327.45 l 1
EndSplineSet
Refer: 5 68 N 1 0 0 1 62 0 2
EndChar

StartChar: eth
Encoding: 240 240 179
Width: 588
Flags: W
HStem: -9.99805 64.5619<206.887 382.022> 448.634 62.2994<203.963 391.777>
VStem: 54.5713 68.0486<143.617 361.134> 472.25 70.0986<149.259 520.559> 472.25 47.2486<288.062 376.48>
LayerCount: 2
Fore
SplineSet
187.578125 603.658203125 m 1xe0
 514.491210938 697.080078125 l 1
 530.220898438 640.417773438 l 1
 203.306835938 546.994921875 l 1
 187.578125 603.658203125 l 1xe0
472.25 251.561523438 m 0xf0
 472.25 514.78337768 380.304427948 621.903163227 262.43359375 730.548828125 c 1
 322.477148438 771.274414062 l 1
 322.477148438 771.274414062 542.348632812 601 542.348632812 279 c 0xf0
 542.348632812 93.8330078125 448.916210178 -9.998046875 296.959960938 -9.998046875 c 0
 146.286045221 -9.998046875 54.5712890625 94.0830078122 54.5712890625 253.561523438 c 0
 54.5712890625 409.295898438 139.67061568 510.93359375 287.85 510.93359375 c 0
 423.40796548 510.93359375 519.498632812 426.217782642 519.498632812 288.061523438 c 1xe8
 472.25 273.561523438 l 1
 472.25 376.479988863 411.231942985 448.634179688 296.898632812 448.634179688 c 0
 174.814685485 448.634179688 122.619921875 370.537194517 122.619921875 253.561523438 c 0
 122.619921875 134.232576619 174.833402884 54.5638671875 296.959960938 54.5638671875 c 0
 423.326015655 54.5638671875 472.25 151.923896502 472.25 251.561523438 c 0xf0
EndSplineSet
EndChar

StartChar: Thorn
Encoding: 222 222 180
Width: 650
Flags: W
HStem: 0 21G<71.5 148.5> 154 67.1016<121.5 447.676> 529.899 68.5084<122.5 445.222> 711.008 20G<71.5 148.5>
VStem: 71.5 77<0 154 221.102 529.899 598.408 731.008> 122.5 26<154 221.102 529.899 598.408> 522.979 76.2986<287.605 462.295>
LayerCount: 2
Fore
SplineSet
71.5 0 m 1xfa
 71.5 731.0078125 l 1
 148.5 731.0078125 l 1
 148.5 0 l 1
 71.5 0 l 1xfa
121.5 154 m 1
 121.5 221.1015625 l 1
 316.388671875 221.211914062 l 2
 434.661752518 221.302210209 522.978710938 248.785862291 522.978710938 374.561523438 c 0
 522.978710938 500.772153636 434.64864822 529.744175217 316.388671875 529.795898438 c 2
 122.5 529.899414062 l 1
 122.5 598.4078125 l 1xf6
 342.388671875 598.4078125 l 2
 477.55048035 598.4078125 599.27734375 537.443601596 599.27734375 374.561523438 c 0
 599.27734375 213.240207598 483.259109269 154 342.388671875 154 c 2
 121.5 154 l 1
EndSplineSet
EndChar

StartChar: thorn
Encoding: 254 254 181
Width: 602
Flags: W
HStem: -9.99805 62.4619<224.42 404.498> 449.284 61.6494<224.082 407.552> 731.002 20G<72.8 143.7>
VStem: 72.8 70.9<-180 751.002> 108.351 35.3486<66.4395 183.562 283.562 425.747> 483.08 69.3486<138.028 366.193>
LayerCount: 2
Fore
SplineSet
72.8 -180 m 1xf4
 72.8 751.001953125 l 1
 143.7 751.001953125 l 1
 143.7 -180 l 1
 72.8 -180 l 1xf4
143.7 213.561523438 m 1
 143.7 135.075456261 195.913119065 52.4638671875 318.040039062 52.4638671875 c 0
 433.650901808 52.4638671875 483.080078125 132.972152226 483.080078125 253.561523438 c 0
 483.080078125 370.926968192 433.685547756 449.284179688 318.151367188 449.284179688 c 0
 208.94801348 449.284179688 143.7 382.937949538 143.7 283.561523438 c 1xf4
 107.351367188 283.561523438 l 1
 107.351367188 425.747070312 194.413301685 510.93359375 328.5 510.93359375 c 0
 470.740234375 510.93359375 552.428710938 409.295898438 552.428710938 253.561523438 c 0
 552.428710938 94.0830078122 466.95703125 -9.998046875 326.540039062 -9.998046875 c 0
 190.909667861 -9.998046875 108.351367188 66.4394531247 108.351367188 183.561523438 c 1xec
 143.7 213.561523438 l 1
EndSplineSet
EndChar

StartChar: kgreenlandic
Encoding: 312 312 182
Width: 555
Flags: W
HStem: 0 21G<76.3 147.2 418.92 531.5> 228.8 54.4<89 219.2> 481.011 20G<76.3 147.2 409.917 521.5>
VStem: 76.3 70.9<0 228.8 283.2 501.011> 89 58.2<228.8 283.2>
LayerCount: 2
Fore
SplineSet
219.2 283.2 m 1xe8
 219.2 228.8 l 1
 89 228.8 l 1
 89 283.2 l 1
 219.2 283.2 l 1xe8
438.05 0 m 1
 219.2 228.8 l 1
 219.2 283.2 l 1
 429.2 501.010742188 l 1
 521.5 501.010742188 l 1
 285 258.5 l 1
 531.5 0 l 1
 438.05 0 l 1
76.3 0 m 1xf0
 76.3 501.010742188 l 1
 147.2 501.010742188 l 1
 147.2 0 l 1
 76.3 0 l 1xf0
EndSplineSet
EndChar

StartChar: Eng
Encoding: 330 330 183
Width: 719
Flags: W
HStem: -189.994 64.9<358.16 537.833> 0 21G<71.5 147.8> 711.008 20G<71.5 167.715 571.2 647.5>
VStem: 71.5 76.3<0 606.005> 571.2 76.3<-88.2301 -7.33691 131.1 731.008>
LayerCount: 2
Back
SplineSet
75 0 m 5
 75 731.0078125 l 5
 208 731.0078125 l 5
 517 228.599609375 l 5
 517 731.0078125 l 5
 644 731.0078125 l 5
 644 0 l 5
 511 0 l 5
 202 515.004882812 l 5
 202 0 l 5
 75 0 l 5
EndSplineSet
Fore
SplineSet
71.5 0 m 1
 71.5 731.0078125 l 1
 153.8 731.0078125 l 1
 571.2 131.099609375 l 1
 571.2 731.0078125 l 1
 647.5 731.0078125 l 1
 647.5 -3 l 2
 647.5 -125.529296875 597.672413793 -189.994140625 477.5 -189.994140625 c 0
 397.236026913 -189.994140625 350 -169.344140625 350 -169.344140625 c 1
 361.4 -108.144140625 l 1
 361.4 -108.144140625 405.176423059 -125.094140625 466.45 -125.094140625 c 0
 529.784195647 -125.094140625 568.20970533 -97.2473666985 569.6765625 -7.3369140625 c 1
 147.8 606.004882812 l 1
 147.8 0 l 1
 71.5 0 l 1
EndSplineSet
Substitution2: "'ss06' Style Set 6 lookup 7-1" Eng.ss06
EndChar

StartChar: eng
Encoding: 331 331 184
Width: 595
Flags: W
HStem: -189.994 62.3<274.93 424.895> 0 21G<72.8 143.7> 447.784 63.1494<224.819 400.837> 481.011 20G<72.8 143.7>
VStem: 72.8 70.9<0 501.011> 458.577 70.9<-91.3815 386.628>
LayerCount: 2
Fore
SplineSet
72.8 0 m 1xdc
 72.8 501.010742188 l 1
 143.7 501.010742188 l 1
 143.7 0 l 1
 72.8 0 l 1xdc
143.7 284 m 1
 101.7 293.561523438 l 1
 126.892844473 444 200.280586618 510.93359375 335.5 510.93359375 c 0
 463.60014878 510.93359375 529.47734375 439.87366718 529.47734375 291.561523438 c 2
 529.47734375 -9 l 2
 529.47734375 -117.937600252 481.862827421 -189.994140625 367.02734375 -189.994140625 c 0
 307.765978065 -189.994140625 266.77734375 -171.994140625 266.77734375 -171.994140625 c 1
 278.17734375 -113.744140625 l 1
 278.17734375 -113.744140625 309.577469482 -127.694140625 353.52734375 -127.694140625 c 0
 427.487667599 -127.694140625 458.57734375 -91.0375141192 458.57734375 -5.994140625 c 2
 458.57734375 274.561523438 l 2
 458.57734375 397.324267772 414.878114594 447.784179688 312 447.784179688 c 0xec
 207.754866129 447.784179688 143.7 382.213759332 143.7 284 c 1
EndSplineSet
EndChar

StartChar: OE
Encoding: 338 338 185
Width: 991
Flags: W
HStem: 0 68.5619<306.867 532.777> 0 68.75<565.5 949.5> 333 70.5<527.5 889.5> 662.258 68.75<565.5 949.5> 662.796 68.2119<306.414 532.777>
VStem: 61.5 74.7986<231.474 497.813> 527.5 38<333 403.5>
LayerCount: 2
Fore
SplineSet
532.77734375 68.4515625 m 1xae
 532.77734375 0 l 1
 428.888671875 0 l 2
 236.719280305 0 61.5 97.9169921873 61.5 364.561523438 c 0
 61.5 631.206054688 235.587929467 731.0078125 428.888671875 731.0078125 c 2
 532.77734375 731.0078125 l 1
 532.77734375 662.899414062 l 1
 448.888671875 662.795898438 l 2
 289.846288236 662.612966258 136.298632812 607.034721978 136.298632812 364.561523438 c 0
 136.298632812 121.786704478 289.846288513 68.75632399 448.888671875 68.5619140623 c 2
 532.77734375 68.4515625 l 1xae
EndSplineSet
Refer: 10 69 N 1 0 0 1 417 0 2
EndChar

StartChar: oe
Encoding: 339 339 186
Width: 920
Flags: W
HStem: -9.99805 61.0119<203.283 363.43 598.636 821.914> 222.55 57.4<480.25 810.3> 447.934 62.9994<200.99 365.411 581.557 747.599>
VStem: 51.5 69.9986<143.127 360.938> 442.279 69.9986<113.633 389.707> 480.25 30.1486<224.32 278.664> 810.25 68.7158<279.954 378.102>
LayerCount: 2
Fore
SplineSet
121.498632812 253.561523438 m 0xfa
 121.498632812 133.182568359 176.330505029 52.8138671875 284.138671875 52.8138671875 c 0
 389.131036338 52.8138671875 442.278710938 133.182568359 442.278710938 253.561523438 c 0
 442.278710938 370.117578125 389.164736866 447.934179688 284.25 447.934179688 c 0
 176.364012458 447.934179688 121.498632812 370.117578125 121.498632812 253.561523438 c 0xfa
51.5 253.561523438 m 0
 51.5 409.295898438 139.525885775 510.93359375 284.138671875 510.93359375 c 0
 425.954095278 510.93359375 512.27734375 409.295898438 512.27734375 253.561523438 c 0
 512.27734375 94.0830078125 425.954095278 -9.998046875 284.138671875 -9.998046875 c 0
 139.525885775 -9.998046875 51.5 94.0830078125 51.5 253.561523438 c 0
440 253.561523438 m 0
 440 409.295898438 525.755387574 510.93359375 666.638671875 510.93359375 c 0
 828.296070679 510.93359375 878.965820312 378.198291015 878.965820312 283.1609375 c 0
 878.965820312 245.742138672 874.5 222.55 874.5 222.55 c 1
 480.25 222.55 l 1
 480.25 279.95 l 1
 810.3 279.95 l 1
 810.3 279.95 810.822509766 285.271728516 810.25 296 c 0
 807.574755859 376.130810547 766.66009087 449.684179688 664 449.684179688 c 0
 556.401511901 449.684179688 510.398632812 370.366748047 510.398632812 251.561523438 c 0xf6
 510.398632812 120.51147461 569.609684456 51.0138671875 703.9 51.0138671875 c 0
 787.868811746 51.0138671875 835.718554688 79.145703125 835.718554688 79.145703125 c 1
 849.327148438 18.595703125 l 1
 849.327148438 18.595703125 795.732837544 -9.998046875 702.638671875 -9.998046875 c 0
 521.194868798 -9.998046875 440 94.0830078125 440 253.561523438 c 0
EndSplineSet
EndChar

StartChar: longs
Encoding: 383 383 187
Width: 269
Flags: W
HStem: 0 21G<99.05 169.95> 702.411 58.6<204.765 348.42>
VStem: 99.05 70.9<0 667.572>
LayerCount: 2
Fore
SplineSet
169.95 576.510742188 m 2
 169.95 0 l 1
 99.05 0 l 1
 99.05 589.510742188 l 2
 99.05 692.735706908 145.785208548 761.010742188 258.5 761.010742188 c 0
 315.840174279 761.010742188 355.5 745.010742188 355.5 745.010742188 c 1
 345.4 688.810742188 l 1
 345.4 688.810742188 316.06265625 702.410742188 275 702.410742188 c 0
 201.03967615 702.410742188 169.95 664.488487264 169.95 576.510742188 c 2
EndSplineSet
EndChar

StartChar: uni018F
Encoding: 399 399 188
Width: 765
Flags: W
HStem: -9.99805 72.2619<266.117 493.896> 343.973 67.1<127.108 672.558> 668.459 70.6619<181.708 470.955>
VStem: 46.5 79.85<207.117 343.858> 642.36 32.1986<343.973 411.073>
LayerCount: 2
Back
SplineSet
35 364.561523438 m 0
 35 591.206054688 163.541887394 739.12109375 389.888671875 739.12109375 c 0
 653.541980974 739.12109375 740.108398438 551.971330386 740.108398438 365.891601562 c 0
 740.108398438 303.039520695 732 284 732 284 c 1
 162 284 l 1
 160 424 l 1
 562 424 l 1
 562 424 560.13712938 586.659179688 391 586.659179688 c 0
 261.796380576 586.659179688 205.848632812 497.743164062 205.848632812 364.561523438 c 4
 205.848632812 231.379882812 273.845797251 142.463867188 432.888671875 142.463867188 c 0
 580.720714467 142.463867188 659.018554688 179.595703125 659.018554688 179.595703125 c 1
 682.827148438 32.595703125 l 1
 682.827148438 32.595703125 604.343305548 -9.998046875 425.888671875 -9.998046875 c 0
 176.581210181 -9.998046875 35 137.916992188 35 364.561523438 c 0
EndSplineSet
Fore
SplineSet
718.608398438 364.561523438 m 0
 718.608398438 137.916992187 596.042867321 -9.998046875 380.219726562 -9.998046875 c 0
 128.987989608 -9.998046875 46.5 163.86372925 46.5 336.731445312 c 0
 46.5 387.921772966 54.6083984375 411.073046875 54.6083984375 411.073046875 c 1
 672.558398438 411.073046875 l 1
 674.558398438 343.973046875 l 1
 127.108398438 343.973046875 l 1
 127.108398438 343.973046875 126.35 339.035665268 126.35 321.45 c 0
 126.35 193.427595306 192.795287561 62.2638671877 378.808398438 62.2638671877 c 0
 559.460255643 62.2638671877 642.359765625 183.28767077 642.359765625 364.561523438 c 0
 642.359765625 546.79482173 545.640134954 668.459179688 341.119726562 668.459179688 c 0
 198.55035836 668.459179688 123.03984375 624.07734375 123.03984375 624.07734375 c 1
 103.78125 692.52734375 l 1
 103.78125 692.52734375 177.225040404 739.12109375 344.219726562 739.12109375 c 0
 583.003544533 739.12109375 718.608398438 591.206054687 718.608398438 364.561523438 c 0
EndSplineSet
EndChar

StartChar: florin
Encoding: 402 402 190
Width: 398
Flags: W
HStem: -190.011 61.65<-30.8363 111.997> 441.15 59.8607<34 362> 699.811 61.2<242.665 388.42>
VStem: 139.05 70.9<-98.764 663.746>
LayerCount: 2
Fore
SplineSet
34 501.010742188 m 1
 362 501.010742188 l 1
 362 441.15 l 1
 34 441.15 l 1
 34 501.010742188 l 1
139.05 -15.1107421875 m 2
 139.05 -15.1107421875 139.05 589.510742188 139.05 589.510742188 c 2
 139.05 692.735706908 185.785208548 761.010742188 298.5 761.010742188 c 0
 355.840174279 761.010742188 395.5 745.010742188 395.5 745.010742188 c 1
 385.4 686.210742188 l 1
 385.4 686.210742188 356.06265625 699.810742188 315 699.810742188 c 0
 241.03967615 699.810742188 209.95 662.671631528 209.95 576.510742188 c 2
 209.95 -15.5107421875 l 2
 209.95 -120.541547875 167.479310345 -190.010742188 65.05 -190.010742188 c 0
 3.09895674542 -190.010742188 -39.75 -171.360742188 -39.75 -171.360742188 c 1
 -27.05 -111.810742188 l 1
 -27.05 -111.810742188 3.80810687723 -128.360742188 47 -128.360742188 c 0
 111.808054199 -128.360742188 139.05 -94.2492964045 139.05 -15.1107421875 c 2
EndSplineSet
EndChar

StartChar: uni01B7
Encoding: 439 439 191
Width: 584
Flags: W
HStem: -9.99805 66.6375<101.252 375.473> 355.937 60.3627<280.95 390.04> 662.6 68.4<46.5 414.55>
VStem: 463.627 74.784<131.863 292.207>
LayerCount: 2
Fore
SplineSet
280.95 416.3 m 1
 404.701738341 416.3 538.411132812 383.080939568 538.411132812 217.720898438 c 0
 538.411132812 55.1278495042 423.117211297 -9.998046875 250 -9.998046875 c 0
 107.010162165 -9.998046875 21.951171875 39.6091796875 21.951171875 39.6091796875 c 1
 42.2244140625 101.312695312 l 1
 42.2244140625 101.312695312 121.149845164 56.639453125 244.95 56.639453125 c 0
 396.222084745 56.639453125 463.627148438 110.241871015 463.627148438 219.436083985 c 0
 463.627148438 313.348404574 394.732566424 355.586116092 262.638671875 355.937304688 c 2
 174 356.2 l 1
 174 399.3 l 1
 414.55 662.6 l 1
 46.5 662.6 l 1
 46.5 731 l 1
 507.5 731 l 1
 507.5 666.6 l 1
 280.95 416.3 l 1
EndSplineSet
EndChar

StartChar: uni0292
Encoding: 658 658 192
Width: 524
Flags: W
HStem: -189.994 65.4375<73.2691 327.011> 141.941 59.2588<254.65 340.809> 436.761 64.25<44 377.8>
VStem: 404.527 73.884<-58.191 86.6706>
LayerCount: 2
Fore
SplineSet
254.65 201.2 m 1
 343.05946937 201.2 478.411132812 165.3965283 478.411132812 20.4861816406 c 0
 478.411132812 -126.884490934 371.112320251 -189.994140625 210 -189.994140625 c 0
 98.3608687239 -189.994140625 31.951171875 -159.086914062 31.951171875 -159.086914062 c 1
 49.0744140625 -93.2333984378 l 1
 49.0744140625 -93.2333984378 109.000955508 -124.556640625 203 -124.556640625 c 0
 342.408402271 -124.556640625 404.527148438 -69.4141532004 404.527148438 16.3513671875 c 0
 404.527148438 105.229102042 339.95073647 141.461342713 216.138671875 141.941210938 c 2
 147 142.20390625 l 1
 147 182.20390625 l 1
 377.8 436.760742188 l 1
 44 436.760742188 l 1
 44 501.010742188 l 1
 467.5 501.010742188 l 1
 467.5 440.760742188 l 1
 254.65 201.2 l 1
EndSplineSet
EndChar

StartChar: Oslash
Encoding: 216 216 193
Width: 797
Flags: W
HStem: -9.99805 72.6119<283.525 514.253> 666.509 72.6119<283.525 514.253>
VStem: 51.5 77.8486<227.636 501.487> 668.429 77.8486<227.636 501.487>
LayerCount: 2
Fore
SplineSet
171 -91.4697265625 m 1
 556 801.403320312 l 1
 626 801.403320312 l 1
 241 -91.4697265625 l 1
 171 -91.4697265625 l 1
EndSplineSet
Refer: 1 79 N 1 0 0 1 0 0 2
EndChar

StartChar: oslash
Encoding: 248 248 194
Width: 589
Flags: W
HStem: -9.99805 62.8119<209.644 381.739> 447.934 62.9994<203.601 385.141>
VStem: 51.5 69.9986<145.172 358.958> 468.279 69.9986<145.172 358.958>
LayerCount: 2
Fore
SplineSet
83.1 -91.4697265625 m 1
 444.1 581.403320312 l 1
 505.9 581.403320312 l 1
 144.9 -91.4697265625 l 1
 83.1 -91.4697265625 l 1
EndSplineSet
Refer: 29 111 N 1 0 0 1 0 0 2
EndChar

StartChar: ring
Encoding: 730 730 197
Width: 355
Flags: W
HStem: 512.57 50.8965<125.089 229.908> 709.918 51.084<125.101 231.339>
VStem: 54.5 55.0031<578.421 695.198> 246.274 55.0031<580.348 694.685>
LayerCount: 2
Fore
SplineSet
109.503125 638.646484375 m 0
 109.503125 593.565043713 129.717281695 563.466796875 176.99609375 563.466796875 c 0
 225.525700858 563.466796875 246.27421875 593.565043713 246.27421875 638.646484375 c 0
 246.27421875 681.384676736 225.555526023 709.91796875 177.094726562 709.91796875 c 0
 129.747109171 709.91796875 109.503125 681.384676736 109.503125 638.646484375 c 0
54.5 638.879882812 m 0
 54.5 712.77572672 100.809262521 761.001953125 176.888671875 761.001953125 c 0
 254.211271013 761.001953125 301.27734375 712.77572672 301.27734375 638.879882812 c 0
 301.27734375 562.450636874 254.211271013 512.5703125 176.888671875 512.5703125 c 0
 100.809262521 512.5703125 54.5 562.450636874 54.5 638.879882812 c 0
EndSplineSet
EndChar

StartChar: ogonek
Encoding: 731 731 198
Width: 307
VWidth: 999
Flags: W
HStem: -245.25 51.2<126.498 268.976>
VStem: 46.5 62.5<-176.365 -48.0491>
LayerCount: 2
Fore
SplineSet
46.5 -130 m 0
 46.5 -30.5220125786 141 39 141 39 c 1
 205 39 l 1
 205 39 109 -35.3949044585 109 -121 c 0
 109 -173.519246253 139.768551199 -194.05 193.9 -194.05 c 0
 241.486087741 -194.05 262.9 -175.5 262.9 -175.5 c 1
 277 -222.25 l 1
 277 -222.25 244.426287616 -245.25 179 -245.25 c 0
 97.4111033185 -245.25 46.5 -204.247211371 46.5 -130 c 0
EndSplineSet
EndChar

StartChar: minute
Encoding: 8242 8242 203
Width: 235
Flags: W
HStem: 456 275.008
VStem: 36.5 164
LayerCount: 2
Fore
SplineSet
36.5 456 m 1
 123 731.0078125 l 1
 200.5 731.0078125 l 1
 90.25 456 l 1
 36.5 456 l 1
EndSplineSet
EndChar

StartChar: bullet
Encoding: 8226 8226 206
Width: 325
Flags: W
HStem: 250 226.449<92.6443 232.581>
VStem: 50 225.227<292.876 433.573>
LayerCount: 2
Fore
SplineSet
50 363.224609375 m 0
 50 431.817406607 94.3894466578 476.44921875 162.612304688 476.44921875 c 0
 230.836094646 476.44921875 275.2265625 431.817406607 275.2265625 363.224609375 c 0
 275.2265625 294.630626073 230.836094646 250 162.612304688 250 c 0
 94.3894466578 250 50 294.630626073 50 363.224609375 c 0
EndSplineSet
EndChar

StartChar: dagger
Encoding: 8224 8224 207
Width: 530
Flags: W
HStem: 399.511 62<30 500>
VStem: 235 60<116.682 759.47>
LayerCount: 2
Fore
SplineSet
221.5 -171.469726562 m 1
 235 427 l 1
 228.25 759.469726562 l 1
 301.75 759.469726562 l 1
 295 426 l 1
 308.5 -171.469726562 l 1
 221.5 -171.469726562 l 1
30 399.510742188 m 1
 30 461.510742188 l 1
 500 461.510742188 l 1
 500 399.510742188 l 1
 30 399.510742188 l 1
EndSplineSet
EndChar

StartChar: daggerdbl
Encoding: 8225 8225 208
Width: 530
Flags: W
HStem: 109.511 62<30 500> 449.511 62<30 500>
VStem: 225 80<-171.47 43.7591 191 428.6 561.741 759.47> 235 60<-78.9288 307.27 326.541 759.47>
LayerCount: 2
Fore
SplineSet
30 109.510742188 m 1xc0
 30 171.510742188 l 1
 500 171.510742188 l 1
 500 109.510742188 l 1
 30 109.510742188 l 1xc0
225 -171.469726562 m 1xe0
 235 137 l 1
 227.6 317 l 1
 235 477 l 1
 228.25 759.469726562 l 1
 301.75 759.469726562 l 1
 295 476 l 1
 302.4 318 l 1
 295 136 l 1xd0
 305 -171.469726562 l 1
 225 -171.469726562 l 1xe0
30 449.510742188 m 1
 30 511.510742188 l 1
 500 511.510742188 l 1
 500 449.510742188 l 1
 30 449.510742188 l 1
EndSplineSet
EndChar

StartChar: uni2116
Encoding: 8470 8470 209
Width: 1126
Flags: W
HStem: 0 21G<71.5 147.8 551.425 647.5> 264.6 59.1<738.5 1067.5> 391.061 62.7264<841.611 973.411> 676.078 62.9139<840.731 974.351> 711.008 20G<71.5 167.715 571.2 647.5>
VStem: 71.5 76.3<0 606.005> 571.2 76.3<131.1 731.008> 741.111 66.6621<489.763 642.126> 1008.23 66.6621<489.763 642.126>
LayerCount: 2
Fore
SplineSet
738.5 323.7 m 1xe780
 1067.5 323.7 l 1
 1067.5 264.6 l 1
 738.5 264.6 l 1
 738.5 323.7 l 1xe780
807.7734375 567.344726562 m 0
 807.7734375 499.24987334 838.65399402 453.786914062 906.897460938 453.786914062 c 0
 976.6841027 453.786914062 1008.2265625 499.24987334 1008.2265625 567.344726562 c 0
 1008.2265625 632.547202514 976.721476583 676.078320312 907.020507812 676.078320312 c 0xf780
 838.691376364 676.078320312 807.7734375 632.547202514 807.7734375 567.344726562 c 0
741.111328125 567.120117188 m 0
 741.111328125 671.119596129 803.880062661 738.9921875 907 738.9921875 c 0
 1011.36310863 738.9921875 1074.88867188 671.119596129 1074.88867188 567.120117188 c 0
 1074.88867188 460.587412136 1011.36310863 391.060546875 907 391.060546875 c 0
 803.880062661 391.060546875 741.111328125 460.587412136 741.111328125 567.120117188 c 0
EndSplineSet
Refer: 11 78 N 1 0 0 1 0 0 2
EndChar

StartChar: uni20BF
Encoding: 8383 8383 210
Width: 640
Flags: W
HStem: -105 148.47<181.25 247.75 361.25 427.75> 0 67.91<143.5 452.323> 334.156 62.6953<115 425.558> 663.199 67.8084<143.5 424.6> 681 148.47<181.25 247.75 361.25 427.75>
VStem: 115 28.5<334.156 396.852> 181.25 66.5<-105 43.4697 681 829.47> 361.25 66.5<-105 43.4697 681 829.47> 497.429 72.8486<455.223 602.725> 520.429 72.8486<126.718 274.52>
LayerCount: 2
Fore
SplineSet
361.25 -105 m 1xa7
 361.25 43.4697265625 l 1
 427.75 43.4697265625 l 1
 427.75 -105 l 1
 361.25 -105 l 1xa7
361.25 681 m 1x2f
 361.25 829.469726562 l 1
 427.75 829.469726562 l 1
 427.75 681 l 1
 361.25 681 l 1x2f
181.25 -105 m 1xa7
 181.25 43.4697265625 l 1
 247.75 43.4697265625 l 1
 247.75 -105 l 1
 181.25 -105 l 1xa7
181.25 681 m 1x2f
 181.25 829.469726562 l 1
 247.75 829.469726562 l 1
 247.75 681 l 1
 181.25 681 l 1x2f
EndSplineSet
Refer: 19 66 N 1 0 0 1 0 0 2
EndChar

StartChar: uni20A6
Encoding: 8358 8358 211
Width: 874
Flags: W
HStem: 0 21G<159.5 234.5 623.448 721.5> 269.4 63.25<46.5 208.5 665.5 827.5> 401.35 63.25<46.5 208.5 665.5 827.5> 711.008 20G<159.5 257.682 646.5 721.5>
VStem: 46.5 188<269.4 332.65 401.35 464.6> 159.5 75<0 269.4 332.65 401.35 464.6 616.005> 159.5 49<269.4 332.65 401.35 464.6> 646.5 181<269.4 332.65 401.35 464.6> 646.5 75<121.1 269.4 332.65 401.35 464.6 731.008> 665.5 56<269.4 332.65 401.35 464.6>
LayerCount: 2
Fore
SplineSet
827.5 269.4 m 1xf1
 665.5 269.4 l 1
 665.5 332.65 l 1xf040
 827.5 332.65 l 1
 827.5 269.4 l 1xf1
827.5 401.35 m 1xf1
 665.5 401.35 l 1
 665.5 464.6 l 1xf040
 827.5 464.6 l 1
 827.5 401.35 l 1xf1
208.5 269.4 m 1xf2
 46.5 269.4 l 1
 46.5 332.65 l 1xf8
 208.5 332.65 l 1
 208.5 269.4 l 1xf2
208.5 401.35 m 1xf2
 46.5 401.35 l 1
 46.5 464.6 l 1xf8
 208.5 464.6 l 1
 208.5 401.35 l 1xf2
159.5 0 m 1xf440
 159.5 731.0078125 l 1
 244.5 731.0078125 l 1
 646.5 121.099609375 l 1
 646.5 731.0078125 l 1
 721.5 731.0078125 l 1xf280
 721.5 0 l 1
 636.5 0 l 1
 234.5 616.004882812 l 1
 234.5 0 l 1
 159.5 0 l 1xf440
EndSplineSet
EndChar

StartChar: uni20BD
Encoding: 8381 8381 212
Width: 703
Flags: W
HStem: 0 21G<147.5 224.5> 171.352 60<30 544> 311.352 62<30 510.039> 661.249 69.7584<224.5 496.319>
VStem: 147.5 77<0 661.249> 576.179 76.0986<433.691 593.172>
LayerCount: 2
Fore
SplineSet
544 171.3515625 m 1
 30 171.3515625 l 1
 30 231.3515625 l 1
 544 231.3515625 l 1
 544 171.3515625 l 1
30 311.3515625 m 1
 30 373.3515625 l 1
 383.088671875 373.461914062 l 2
 493.632667757 373.612365894 576.178710938 400.063218336 576.178710938 510.561523438 c 0
 576.178710938 631.041405334 485.296412557 660.992280932 363.588671875 661.145898438 c 2
 224.5 661.249414062 l 1
 224.5 0 l 1
 147.5 0 l 1
 147.5 731.0078125 l 1
 368.388671875 731.0078125 l 2
 551.002929688 731.0078125 652.27734375 665.891204904 652.27734375 510.561523438 c 0
 652.27734375 381.702748086 560.897460938 311.3515625 406.5 311.3515625 c 2
 30 311.3515625 l 1
EndSplineSet
EndChar

StartChar: dong
Encoding: 8363 8363 213
Width: 645
Flags: W
HStem: 0 63.25<36.5 587.5> 137.002 64.6494<222.224 397.124> 505.472 62.4619<223.657 397.419> 620.05 58.9<307.5 598.5> 731.002 20G<456.3 533.7>
VStem: 87.5713 72.5986<264.854 439.485> 456.3 77.4<342.374 751.002> 456.3 54.8486<380.874 490.112>
LayerCount: 2
Fore
SplineSet
587.5 0 m 1xfc
 36.5 0 l 1
 36.5 63.25 l 1
 587.5 63.25 l 1
 587.5 0 l 1xfc
598.5 620.05 m 1
 307.5 620.05 l 1
 307.5 678.95 l 1
 598.5 678.95 l 1
 598.5 620.05 l 1
533.7 147 m 1xfe
 456.3 147 l 1xfd
 456.3 751.001953125 l 1
 533.7 751.001953125 l 1
 533.7 147 l 1xfe
456.3 378.874023438 m 1xfe
 456.3 440.552008934 417.448691813 505.471679688 306.959960938 505.471679688 c 0
 209.780152614 505.471679688 160.169921875 443.580062566 160.169921875 350.874023438 c 0
 160.169921875 261.391905496 209.748085473 201.651367188 306.848632812 201.651367188 c 0
 417.410983256 201.651367188 456.3 257.989729848 456.3 342.374023438 c 1xfe
 506.148632812 354.374023438 l 1
 506.148632812 224.6953125 431.521295622 137.001953125 288 137.001953125 c 0
 150.858706358 137.001953125 87.5712890625 227.414929831 87.5712890625 350.874023438 c 0
 87.5712890625 478.047041469 157.287560581 567.93359375 292.959960938 567.93359375 c 0
 441.941958097 567.93359375 511.148632812 490.112411377 511.148632812 380.874023438 c 1xfd
 456.3 378.874023438 l 1xfe
EndSplineSet
EndChar

StartChar: uni1E9E
Encoding: 7838 7838 220
Width: 743
Flags: W
HStem: -10 66.124<357.773 561.866> 0 21G<71.5 148.5> 341.1 60.9<448.3 556.072> 663.258 67.75<220.061 559.5>
VStem: 71.5 77<0 594.652> 626.85 74.65<119.031 280.704>
LayerCount: 2
Fore
SplineSet
71.5 504 m 2x7c
 71.5 663.708074726 154.645454545 731.0078125 340.5 731.0078125 c 2
 655 731.0078125 l 1
 655 676.7578125 l 1
 448.3 402 l 1
 571.110493592 402 701.5 365.376811594 701.5 202.5 c 0
 701.5 58.9692982456 614.737804878 -10 472 -10 c 0
 369.601103588 -10 311.5 26 311.5 26 c 1
 335 89 l 1
 335 89 385.061375367 56.1240234375 468.515625 56.1240234375 c 0xbc
 564.946860349 56.1240234375 626.85 104.793612776 626.85 202.5 c 0
 626.85 298.234020618 564.937234043 341.1 419 341.1 c 2
 347.5 341.1 l 1
 347.5 382.5 l 1
 559.5 663.2578125 l 1
 341.5 663.2578125 l 2
 181.140084604 663.2578125 148.5 605.572084263 148.5 471.0078125 c 2
 148.5 0 l 1
 71.5 0 l 1
 71.5 504 l 2x7c
EndSplineSet
EndChar

StartChar: germandbls
Encoding: 223 223 221
Width: 725
Flags: W
HStem: -9.99805 60.4795<348.769 571.921> 0 21G<95.55 166.45> 451.004 60.9293<411.797 583.247> 699.261 61.75<249.157 496.492>
VStem: 95.55 70.9<0 617.353> 304.704 70.5576<316.391 418.173> 584.35 65.7682<501.5 612.339> 605.521 68.6689<81.7805 181.328>
LayerCount: 2
Fore
SplineSet
468.786962891 223.317919922 m 0xbd
 337.965344738 248.91011761 304.704101562 292.757220593 304.704101562 361.5 c 0
 304.704101562 455.209848478 379.465925039 511.93359375 487 511.93359375 c 0
 548.710151633 511.93359375 584.35 501.5 584.35 501.5 c 1
 583.220752647 634.430726151 531.919365577 699.260742188 370 699.260742188 c 0
 203.869001726 699.260742188 166.45 629.90596632 166.45 493.010742188 c 2
 166.45 0 l 1
 95.55 0 l 1
 95.55 506.010742188 l 2
 95.55 661.735588483 162.989230208 761.010742188 361 761.010742188 c 0
 612.501411702 761.010742188 650.118164062 625.789887228 650.118164062 504.6 c 0x7e
 650.118164062 457.77175027 642.294921875 421.244335938 642.294921875 421.244335938 c 1
 642.294921875 421.244335938 589.706683648 451.004296875 512.193164062 451.004296875 c 0
 417.739654661 451.004296875 375.26171875 418.092397446 375.26171875 365.018554688 c 0
 375.26171875 319.071613982 402.689433593 297.544116331 500.529248047 278.930468749 c 0
 630.787182645 253.270554747 674.189453125 209.217466389 674.189453125 136.90234375 c 0
 674.189453125 46.3693122123 605.486247076 -9.998046875 476.856445312 -9.998046875 c 0
 367.082448768 -9.998046875 297.5 26.5625 297.5 26.5625 c 1
 314.314453125 86.361328125 l 1
 314.314453125 86.361328125 381.554998645 50.4814453125 463.993164062 50.4814453125 c 0
 559.873105048 50.4814453125 605.520507812 78.1563940621 605.520507812 131.836914062 c 0
 605.520507812 173.76890595 582.955487481 201.371199677 468.786962891 223.317919922 c 0xbd
EndSplineSet
EndChar

StartChar: uni2113
Encoding: 8467 8467 222
Width: 619
Flags: W
HStem: -10 70.0299<292.9 504.242> 694.422 66.5799<318.507 458.667>
VStem: 132.5 75.2795<219.004 518.689> 493.744 72.8961<476.206 657.523>
LayerCount: 2
Fore
SplineSet
132.5 297.099609375 m 0
 132.5 602.539295295 222.510738679 761.001953125 392.000390625 761.001953125 c 0
 517.184491801 761.001953125 566.639648438 668.077159935 566.639648438 581.40703125 c 0
 566.639648438 224.383276164 29.65 167.3 29.65 167.3 c 1
 22.15 236.1 l 1
 22.15 236.1 493.743554688 282.878336782 493.743554688 576.701953125 c 0
 493.743554688 650.690506873 459.616520726 694.422070312 394.000390625 694.422070312 c 0
 262.766687572 694.422070312 207.779492188 539.307792123 207.779492188 312.875 c 0
 207.779492188 148.722462276 246.242353627 60.0298828123 394.55 60.0298828123 c 0
 485.091826581 60.0298828123 542.458007812 101.624804688 542.458007812 101.624804688 c 1
 563 42 l 1
 563 42 506.117740531 -10 380.400390625 -10 c 0
 220.2686521 -10 132.5 91.1202304892 132.5 297.099609375 c 0
EndSplineSet
EndChar

StartChar: uni20B8
Encoding: 8376 8376 223
Width: 614
Flags: W
HStem: 0 21G<268.5 345.5> 481.25 68.75<40 268.5 345.5 574> 481.25 38.75<268.5 345.5> 662.25 68.75<40 574>
VStem: 268.5 77<0 520>
LayerCount: 2
Fore
SplineSet
574 662.25 m 1x98
 40 662.25 l 1
 40 731 l 1
 574 731 l 1
 574 662.25 l 1x98
574 481.25 m 1xd8
 40 481.25 l 1
 40 550 l 1
 574 550 l 1
 574 481.25 l 1xd8
268.5 0 m 1
 268.5 520 l 1
 345.5 520 l 1xb8
 345.5 0 l 1
 268.5 0 l 1
EndSplineSet
EndChar

StartChar: uni20BC
Encoding: 8380 8380 224
Width: 839
Flags: W
HStem: 0 21G<71.5 148.5 381 458 687.277 764.277> 480.144 70.8619<279.268 556.51> 711.008 20G<381 458>
VStem: 71.5 77<0 352.824> 381 77<0 731.008> 687.277 77<0 352.824>
LayerCount: 2
Fore
SplineSet
417.888671875 551.005859375 m 0
 676.575088727 551.005859375 764.27734375 423.033084783 764.27734375 226.946289062 c 2
 764.27734375 0 l 1
 687.27734375 0 l 1
 687.27734375 196.946289062 l 2
 687.27734375 366.766268308 650.135259284 480.143945312 417.888671875 480.143945312 c 0
 185.642084466 480.143945312 148.5 366.766268308 148.5 196.946289062 c 2
 148.5 0 l 1
 71.5 0 l 1
 71.5 226.946289062 l 2
 71.5 423.033084783 159.202255023 551.005859375 417.888671875 551.005859375 c 0
381 0 m 1
 381 731.0078125 l 1
 458 731.0078125 l 1
 458 0 l 1
 381 0 l 1
EndSplineSet
EndChar

StartChar: Ohorn
Encoding: 416 416 225
Width: 797
Flags: W
HStem: -9.99805 72.6119<283.525 514.253> 666.509 72.6119<283.525 514.253>
VStem: 51.5 77.8486<227.636 501.487> 638.66 71.2598<676.867 813.507> 668.429 77.8486<227.636 501.487>
LayerCount: 2
Fore
SplineSet
608.580078125 825.799804688 m 1xf0
 687.759765625 825.799804688 l 1
 687.759765625 825.799804688 709.919921875 795.200195312 709.919921875 738.9921875 c 0
 709.919921875 654.183908184 631.499609375 606.939648438 631.499609375 606.939648438 c 1
 587.16015625 641.360351562 l 1
 587.16015625 641.360351562 638.66015625 688 638.66015625 733.729492188 c 0
 638.66015625 790.55078125 608.580078125 825.799804688 608.580078125 825.799804688 c 1xf0
EndSplineSet
Refer: 1 79 N 1 0 0 1 0 0 2
EndChar

StartChar: ohorn
Encoding: 417 417 226
Width: 589
Flags: W
HStem: -9.99805 62.8119<209.644 381.739> 447.934 62.9994<203.601 385.141>
VStem: 51.5 69.9986<145.172 358.958> 460.76 69.1598<466.867 603.507> 468.279 69.9986<145.172 358.958>
LayerCount: 2
Fore
SplineSet
430.680078125 615.799804688 m 1xf0
 507.759765625 615.799804688 l 1
 507.759765625 615.799804688 529.919921875 585.200195312 529.919921875 528.9921875 c 0
 529.919921875 444.183908184 451.499609375 396.939648438 451.499609375 396.939648438 c 1
 409.26015625 431.360351562 l 1
 409.26015625 431.360351562 460.76015625 478 460.76015625 523.729492188 c 0
 460.76015625 580.55078125 430.680078125 615.799804688 430.680078125 615.799804688 c 1xf0
EndSplineSet
Refer: 29 111 N 1 0 0 1 0 0 2
EndChar

StartChar: Uhorn
Encoding: 431 431 227
Width: 777
Flags: W
HStem: -9.99805 73.2619<243.071 472.706> 680.5 50.5078<611.5 651.709> 711.008 20G<71.5 148.5 567.277 644.277>
VStem: 71.5 77<165.108 731.008> 567.277 77<165.108 731.008> 656 74.5<737.861 815.438>
LayerCount: 2
Fore
SplineSet
622.080078125 825.799804688 m 1xbc
 701.259765625 825.799804688 l 1
 701.259765625 825.799804688 730.5 802.272346535 730.5 758.5 c 0
 730.5 707.071428572 682.5 680.5 611.5 680.5 c 1xdc
 583 731.0078125 l 1
 617 731.0078125 656 732.480474404 656 770 c 0
 656 804 622.080078125 825.799804688 622.080078125 825.799804688 c 1xbc
EndSplineSet
Refer: 6 85 N 1 0 0 1 0 0 2
EndChar

StartChar: uhorn
Encoding: 432 432 228
Width: 660
Flags: W
HStem: -9.92285 63.1494<201.44 377.747> 0 21G<458.577 529.477> 450.503 50.5078<507.5 532.904> 481.011 20G<72.8 143.7 458.577 529.477>
VStem: 72.8 70.9<114.396 501.011> 458.577 70.9<207.449 501.011> 539 74.5<509.03 596.913>
LayerCount: 2
Fore
SplineSet
496.759765625 615.799804688 m 1x1e
 575.939453125 615.799804688 l 1
 575.939453125 615.799804688 613.5 587.02949411 613.5 533.502929688 c 0
 613.5 478.777654962 570.743697479 450.502929688 507.5 450.502929688 c 1x2e
 466 501.010742188 l 1
 500 501.010742188 539 502.672238349 539 545.002929688 c 0
 539 588.140961503 496.759765625 615.799804688 496.759765625 615.799804688 c 1x1e
EndSplineSet
Refer: 50 117 N 1 0 0 1 0 0 2
EndChar

StartChar: integral
Encoding: 8747 8747 229
Width: 448
Flags: W
HStem: -190.011 68.25<-35.767 94.6718> 694.261 66.75<300.996 435.182>
LayerCount: 2
Fore
SplineSet
137.75 31.9892578125 m 2
 187.75 570.010742188 l 2
 198.040960581 684.831092032 236.771408778 761.010742188 355 761.010742188 c 0
 408.497791467 761.010742188 445.5 745.010742188 445.5 745.010742188 c 1
 431.5 683.260742188 l 1
 431.5 683.260742188 406.704943847 694.260742188 372 694.260742188 c 0
 294.026598131 694.260742188 270.271110898 653.720927278 261.25 557.010742188 c 2
 211.25 20.9892578125 l 2
 199.848582765 -105.747824035 162.228448276 -190.010742188 44 -190.010742188 c 0
 -9.49779975704 -190.010742188 -46.5 -174.010742188 -46.5 -174.010742188 c 1
 -32.5 -110.760742188 l 1
 -32.5 -110.760742188 -7.70516733022 -121.760742188 27 -121.760742188 c 0
 104.973840332 -121.760742188 127.691842741 -76.2408361651 137.75 31.9892578125 c 2
EndSplineSet
EndChar

StartChar: dotlessi
Encoding: 305 305 231
Width: 269
Flags: W
HStem: 0 21G<99.05 169.95> 481.011 20G<99.05 169.95>
VStem: 99.05 70.9<0 501.011>
LayerCount: 2
Fore
SplineSet
99.05 0 m 1
 99.05 501.010742188 l 1
 169.95 501.010742188 l 1
 169.95 0 l 1
 99.05 0 l 1
EndSplineSet
EndChar

StartChar: uni0237
Encoding: 567 567 232
Width: 269
Flags: W
HStem: -190 61.65<-70.7888 70.7275> 481.011 20G<99.05 169.95>
VStem: 99.05 70.9<-98.7532 501.011>
LayerCount: 2
Fore
SplineSet
99.05 -15.1 m 2
 99.05 -15.1 99.05 501.010742188 99.05 501.010742188 c 1
 169.95 501.010742188 l 1
 169.95 -15.5 l 2
 169.95 -120.530805687 128.050862069 -190 27 -190 c 0
 -36.1037582769 -190 -79.75 -171.35 -79.75 -171.35 c 1
 -67.05 -111.8 l 1
 -67.05 -111.8 -36.1918931227 -128.35 7 -128.35 c 0
 71.8080541992 -128.35 99.05 -94.2385542167 99.05 -15.1 c 2
EndSplineSet
EndChar

StartChar: uni20B3
Encoding: 8371 8371 233
Width: 824
Flags: W
HStem: 0 21G<77.5 164.664 658.428 746.5> 152 60<46.5 777.5> 282 60<76.5 747.5> 711.008 20G<361.681 451.96>
LayerCount: 2
Fore
SplineSet
443.675 731.0078125 m 1
 746.5 0 l 1
 666.575 0 l 1
 407.568554688 635.813476562 l 1
 156.775 0 l 1
 77.5 0 l 1
 369.675 731.0078125 l 1
 443.675 731.0078125 l 1
747.5 282 m 1
 76.5 282 l 1
 76.5 342 l 1
 747.5 342 l 1
 747.5 282 l 1
777.5 152 m 1
 46.5 152 l 1
 46.5 212 l 1
 777.5 212 l 1
 777.5 152 l 1
EndSplineSet
EndChar

StartChar: hookabovecomb
Encoding: 777 777 234
Width: 0
Flags: W
HStem: 517.75 43.1488<85.6432 170.734> 686.229 52.7637<9.73323 164.601>
VStem: 62.0816 58.7561<468 518.403> 183.754 63.0744<574.979 666.776>
LayerCount: 2
Fore
SplineSet
119.345507812 518.403320312 m 1
 120.837695312 468 l 1
 62.081640625 468 l 1
 63.8150390625 565.31875 l 1
 63.8150390625 565.31875 83.1642475573 560.898828125 107.457226562 560.898828125 c 0
 159.062302031 560.898828125 183.754492188 581.84376055 183.754492188 620.895507812 c 0
 183.754492188 666.206113644 147.195893194 686.228515625 93.5533203125 686.228515625 c 0
 46.8087250157 686.228515625 16.1826171875 666.958007812 16.1826171875 666.958007812 c 1
 0 715.311523438 l 1
 0 715.311523438 37.4070491068 738.9921875 101.653320312 738.9921875 c 0
 186.735102347 738.9921875 246.82890625 704.832567838 246.82890625 621.160742188 c 0
 246.82890625 551.335893579 195.922223183 517.75 139 517.75 c 0
 126.161633885 517.75 119.345507812 518.403320312 119.345507812 518.403320312 c 1
EndSplineSet
EndChar

StartChar: uni20B1
Encoding: 8369 8369 235
Width: 844
Flags: W
HStem: 0 21G<167.5 244.5> 241.55 72.2516<221 525.349> 350.7 63.25<46.5 208 629.5 797.5> 480.7 63.25<46.5 208 636 797.5> 658.649 72.3584<244.5 519.334>
VStem: 46.5 198<350.7 413.95 480.7 543.95> 167.5 40.5<350.7 413.95 480.7 543.95> 221 23.5<241.55 313.802> 636 59.2773<480.7 543.95>
LayerCount: 2
Fore
SplineSet
797.5 350.7 m 1xf880
 629.5 350.7 l 1
 629.5 413.95 l 1
 797.5 413.95 l 1
 797.5 350.7 l 1xf880
797.5 480.7 m 1
 636 480.7 l 1
 636 543.95 l 1
 797.5 543.95 l 1
 797.5 480.7 l 1
208 350.7 m 1xfa80
 46.5 350.7 l 1
 46.5 413.95 l 1xfc80
 208 413.95 l 1
 208 350.7 l 1xfa80
208 480.7 m 1xfa80
 46.5 480.7 l 1
 46.5 543.95 l 1xfc80
 208 543.95 l 1
 208 480.7 l 1xfa80
221 241.55 m 1xfb80
 221 313.8015625 l 1
 383.888671875 313.911914062 l 2
 516.159448007 313.994221165 614.928710938 343.967254234 614.928710938 481.061523438 c 0
 614.928710938 625.362132238 516.159443127 658.454738838 383.888671875 658.545898438 c 2
 244.5 658.649414062 l 1
 244.5 0 l 1
 167.5 0 l 1
 167.5 731.0078125 l 1
 401.888671875 731.0078125 l 2
 556.254931732 731.0078125 695.27734375 662.935304598 695.27734375 481.061523438 c 0
 695.27734375 305.879952702 555.351118773 241.55 401.888671875 241.55 c 2
 221 241.55 l 1xfb80
EndSplineSet
EndChar

StartChar: uni20A9
Encoding: 8361 8361 236
Width: 1114
Flags: W
HStem: 0 21G<308.277 414.949 707.911 814.887> 271.35 63.25<66.5 254 860 1047.5> 401.35 63.25<46.5 254 879.5 1067.5> 711.008 20G<131.5 215.065 913.88 997.5>
LayerCount: 2
Fore
SplineSet
1047.5 271.35 m 1
 860 271.35 l 1
 860 334.6 l 1
 1047.5 334.6 l 1
 1047.5 271.35 l 1
1067.5 401.35 m 1
 879.5 401.35 l 1
 879.5 464.6 l 1
 1067.5 464.6 l 1
 1067.5 401.35 l 1
254 271.35 m 1
 66.5 271.35 l 1
 66.5 334.6 l 1
 254 334.6 l 1
 254 271.35 l 1
254 401.35 m 1
 46.5 401.35 l 1
 46.5 464.6 l 1
 254 464.6 l 1
 254 401.35 l 1
313.25 0 m 1
 131.5 731.0078125 l 1
 210.25 731.0078125 l 1
 365.606445312 85.6943359377 l 1
 514.5 671.0078125 l 1
 604.5 671.0078125 l 1
 761.606445312 85.6943359377 l 1
 918.75 731.0078125 l 1
 997.5 731.0078125 l 1
 809.75 0 l 1
 713.3 0 l 1
 559.5 570.771484375 l 1
 409.7 0 l 1
 313.25 0 l 1
EndSplineSet
EndChar

StartChar: franc
Encoding: 8355 8355 237
Width: 584
Flags: W
HStem: 0 21G<111.5 188.5> 135.25 58.5<36.5 377.5> 353.25 66.25<150.5 487.5> 662.258 68.75<188.5 547.5>
VStem: 111.5 77<0 353.25 419.5 662.258> 150.5 38<353.25 419.5>
LayerCount: 2
Fore
SplineSet
377.5 135.25 m 1xf0
 36.5 135.25 l 1
 36.5 193.75 l 1
 377.5 193.75 l 1
 377.5 135.25 l 1xf0
487.5 353.25 m 1
 150.5 353.25 l 1
 150.5 419.5 l 1xf4
 487.5 419.5 l 1
 487.5 353.25 l 1
188.5 662.2578125 m 1xf8
 188.5 0 l 1
 111.5 0 l 1
 111.5 731.0078125 l 1
 547.5 731.0078125 l 1
 547.5 662.2578125 l 1
 188.5 662.2578125 l 1xf8
EndSplineSet
EndChar

StartChar: peseta
Encoding: 8359 8359 238
Width: 844
Flags: W
HStem: 0 21G<167.5 244.5> 241.55 72.2516<221 525.349> 440.7 61.95<36.5 807.5> 658.649 72.3584<244.5 527.13>
VStem: 167.5 77<0 241.55 313.802 658.649> 221 23.5<241.55 313.802> 614.929 80.3486<391.501 578.173>
LayerCount: 2
Fore
SplineSet
807.5 440.7 m 1xf2
 629 440.7 l 1
 585 440.7 l 1
 265 440.7 l 1
 209 440.7 l 1
 36.5 440.7 l 1
 36.5 502.65 l 1
 211 502.65 l 1
 267 502.65 l 1
 583 502.65 l 1
 627 502.65 l 1
 807.5 502.65 l 1
 807.5 440.7 l 1xf2
221 241.55 m 1xf6
 221 313.8015625 l 1xf6
 383.888671875 313.911914062 l 2
 516.159420663 314.019238751 614.928710938 343.967254234 614.928710938 481.061523438 c 0
 614.928710938 625.362132238 521.716892662 658.418530711 396.888671875 658.545898438 c 2
 244.5 658.649414062 l 1
 244.5 0 l 1
 167.5 0 l 1
 167.5 731.0078125 l 1xfa
 414.888671875 731.0078125 l 2
 562.414990144 731.0078125 695.27734375 662.935304598 695.27734375 481.061523438 c 0
 695.27734375 305.879952702 555.351118773 241.55 401.888671875 241.55 c 2
 221 241.55 l 1xf6
EndSplineSet
EndChar

StartChar: uni20BE
Encoding: 8382 8382 239
Width: 781
Flags: W
HStem: 0 68.75<40 395.889 459 737.5> 22.002 46.748<198.798 395.889> 667.159 71.9619<342.865 495.158>
VStem: 71.5 79.5986<252.583 512.514> 322 63.25<388 812> 452 63.25<388 812> 665.355 74.8262<417.392 522.093>
LayerCount: 2
Fore
SplineSet
515.25 812 m 1x3e
 515.25 388 l 1
 452 388 l 1
 452 812 l 1
 515.25 812 l 1x3e
385.25 812 m 1
 385.25 388 l 1
 322 388 l 1
 322 812 l 1
 385.25 812 l 1
737.5 0 m 1xbe
 40 0 l 1
 40 68.75 l 1
 737.5 68.75 l 1
 737.5 0 l 1xbe
395.888671875 22.001953125 m 1x7e
 198.79796504 22.001953125 71.5 169.12700078 71.5 394.561523438 c 0
 71.5 603.05352116 196.238456831 739.12109375 415.888671875 739.12109375 c 0
 611.538780231 739.12109375 732.094356916 619.392846927 740.181640625 417.391601562 c 1
 665.35546875 409.388671875 l 1
 655.431868394 591.298982415 573.160452324 667.159179688 422.888671875 667.159179688 c 0
 232.498287257 667.159179688 151.098632812 554.022789963 151.098632812 384.561523438 c 0
 151.098632812 195.184633417 255.672429281 68.75 459 68.75 c 1xbe
 395.888671875 22.001953125 l 1x7e
EndSplineSet
EndChar

StartChar: uni030F
Encoding: 783 783 251
Width: 0
Flags: W
HStem: 529 212.008
LayerCount: 2
Fore
SplineSet
147.05 529 m 1
 24.55 717.5078125 l 1
 98.05 741.0078125 l 1
 195.55 542.5 l 1
 147.05 529 l 1
337.05 529 m 1
 214.55 717.5078125 l 1
 288.05 741.0078125 l 1
 385.55 542.5 l 1
 337.05 529 l 1
EndSplineSet
EndChar

StartChar: uni0326
Encoding: 806 806 254
Width: 0
Flags: W
HStem: -186.5 186.949
VStem: 20 106.227<-97.3462 -10.3039>
LayerCount: 2
Fore
SplineSet
20 -53.732421875 m 0
 20 -20.9085529506 40.1920386653 0.44921875 71.2255859375 0.44921875 c 0
 104.546278334 0.44921875 126.2265625 -23.637464017 126.2265625 -67.232421875 c 0
 126.2265625 -134.021766775 45.61328125 -186.5 45.61328125 -186.5 c 1
 15.21328125 -158.05 l 1
 15.21328125 -158.05 52.4663925781 -132.555100236 69.11328125 -107 c 1
 39.1115071871 -104.255985015 20 -83.8870473895 20 -53.732421875 c 0
EndSplineSet
EndChar

StartChar: uni031B
Encoding: 795 795 258
Width: 0
Flags: W
HStem: 512.148 218.86
VStem: 78 64.2598<582.075 718.715>
LayerCount: 2
Fore
SplineSet
47.919921875 731.0078125 m 1
 120.099609375 731.0078125 l 1
 120.099609375 731.0078125 142.259765625 700.408203124 142.259765625 644.200195312 c 0
 142.259765625 559.391915996 63.839453125 512.14765625 63.839453125 512.14765625 c 1
 26.5 546.568359375 l 1
 26.5 546.568359375 78 593.208007812 78 638.9375 c 0
 78 695.758789062 47.919921875 731.0078125 47.919921875 731.0078125 c 1
EndSplineSet
EndChar

StartChar: dcaron
Encoding: 271 271 406
Width: 763
Flags: W
HStem: -9.99805 62.2994<205.8 385.875> 0 21G<463.3 534.2> 447.822 63.1119<208.908 385.926> 731 20G<662.874 752> 731.002 20G<463.3 534.2>
VStem: 54.5713 69.3486<141.789 355.683> 463.3 36.3486<75.1885 217.374 317.374 434.496> 463.3 70.9<217.374 751.002>
LayerCount: 2
Fore
SplineSet
670.5 751 m 25x34
 752 751 l 25
 650.5 553 l 25
 595 553 l 25
 670.5 751 l 25x34
EndSplineSet
Refer: 44 100 N 1 0 0 1 0 0 2
EndChar

StartChar: tcaron
Encoding: 357 357 407
Width: 463
Flags: W
HStem: -10 62.25<237.029 362.973> 441.5 59.5107<30.5 365.5> 731 20G<372.874 462>
VStem: 139.05 70.9<80.824 655.611>
LayerCount: 2
Fore
SplineSet
380.5 751 m 1
 462 751 l 1
 360.5 553 l 1
 305 553 l 1
 380.5 751 l 1
EndSplineSet
Refer: 41 116 N 1 0 0 1 0 0 2
EndChar

StartChar: dcroat
Encoding: 273 273 409
Width: 622
Flags: W
HStem: -9.99805 62.2994<205.8 385.875> 0 21G<463.3 534.2> 447.822 63.1119<208.908 385.926> 581.25 58.5<304.5 605.5> 731.002 20G<463.3 534.2>
VStem: 54.5713 69.3486<141.789 355.683> 463.3 36.3486<75.1885 217.374 317.374 434.496> 463.3 70.9<217.374 751.002>
LayerCount: 2
Fore
SplineSet
605.5 581.25 m 1x3c
 304.5 581.25 l 1
 304.5 639.75 l 1
 605.5 639.75 l 1
 605.5 581.25 l 1x3c
EndSplineSet
Refer: 44 100 N 1 0 0 1 0 0 2
EndChar

StartChar: Tbar
Encoding: 358 358 410
Width: 614
Flags: W
HStem: 0 21G<268.5 345.5> 278.2 64.6<121.5 492.5> 662.25 38.75<268.5 345.5> 662.25 68.75<40 268.5 345.5 574>
VStem: 268.5 77<0 701>
LayerCount: 2
Fore
SplineSet
492.5 278.2 m 1xc8
 121.5 278.2 l 1
 121.5 342.8 l 1
 492.5 342.8 l 1
 492.5 278.2 l 1xc8
EndSplineSet
Refer: 17 84 N 1 0 0 1 0 0 2
EndChar

StartChar: tbar
Encoding: 359 359 411
Width: 412
Flags: W
HStem: -10 62.25<237.029 362.973> 235.9 57.85<45.5 336.5> 441.5 59.5107<30.5 365.5>
VStem: 139.05 70.9<80.824 655.611>
LayerCount: 2
Fore
SplineSet
336.5 235.9 m 1
 45.5 235.9 l 1
 45.5 293.75 l 1
 336.5 293.75 l 1
 336.5 235.9 l 1
EndSplineSet
Refer: 41 116 N 1 0 0 1 0 0 2
EndChar

StartChar: Hbar
Encoding: 294 294 412
Width: 859
Flags: W
HStem: 0 21G<141.5 218.5 640.5 717.5> 324.5 67<174 670> 538.561 65.25<46.5 812.5> 711.008 20G<141.5 218.5 640.5 717.5>
VStem: 141.5 77<0 324.5 391.5 731.008> 174 44.5<324.5 391.5> 640.5 29.5<324.5 391.5> 640.5 77<0 324.5 391.5 731.008>
LayerCount: 2
Fore
SplineSet
812.5 538.560742188 m 1xf0
 46.5 535.55 l 1
 46.5 600.8 l 1
 812.5 603.810742188 l 1
 812.5 538.560742188 l 1xf0
EndSplineSet
Refer: 2 72 N 1 0 0 1 70 0 2
EndChar

StartChar: hbar
Encoding: 295 295 413
Width: 637
Flags: W
HStem: 0 21G<114.8 185.7 500.577 571.477> 447.784 63.1494<266.531 442.837> 581.25 58.5<36.5 357.5> 731.002 20G<114.8 185.7>
VStem: 114.8 70.9<0 751.002> 500.577 70.9<0 386.615>
LayerCount: 2
Fore
SplineSet
357.5 581.25 m 1
 36.5 581.25 l 1
 36.5 639.75 l 1
 357.5 639.75 l 1
 357.5 581.25 l 1
EndSplineSet
Refer: 36 104 N 1 0 0 1 42 0 2
EndChar

StartChar: uogonek
Encoding: 371 371 423
Width: 595
Flags: W
HStem: -264.25 51.2<441.998 584.476> -9.92285 63.1494<201.44 377.747> 0 21G<458.577 529.477> 481.011 20G<72.8 143.7 458.577 529.477>
VStem: 72.8 70.9<114.396 501.011> 362 62.5<-195.365 -72.7517> 458.577 70.9<207.449 501.011>
LayerCount: 2
Fore
SplineSet
362 -149 m 0x9e
 362 -49.5224609375 469.5 20 469.5 20 c 1
 469.5 20 520.5 10.9 520.5 10.9 c 1
 520.5 10.9 424.5 -59.2636286022 424.5 -140 c 0
 424.5 -192.519335938 455.268408203 -213.05 509.4 -213.05 c 0
 556.986181641 -213.05 578.4 -194.5 578.4 -194.5 c 1
 592.5 -241.25 l 1
 592.5 -241.25 559.926757812 -264.25 494.5 -264.25 c 0
 412.911035156 -264.25 362 -223.247314453 362 -149 c 0x9e
EndSplineSet
Refer: 50 117 N 1 0 0 1 0 0 3
EndChar

StartChar: Lslash
Encoding: 321 321 429
Width: 612
Flags: W
HStem: 0 68.75<192.5 588> 711.008 20G<115.5 192.5>
VStem: 115.5 77<68.75 731.008>
LayerCount: 2
Fore
SplineSet
415.5 403.25 m 1
 34.5 314.25 l 1
 28.5 375.5 l 1
 409.5 464.5 l 1
 415.5 403.25 l 1
EndSplineSet
Refer: 7 76 N 1 0 0 1 44 0 2
EndChar

StartChar: lslash
Encoding: 322 322 430
Width: 425
Flags: W
HStem: -10.0088 65<224.668 358.456> 731.002 20G<120.3 191.2>
VStem: 120.3 70.9<88.4062 751.002>
LayerCount: 2
Fore
SplineSet
352 425.2 m 1
 28 336.2 l 1
 22 396.8 l 1
 346 485.8 l 1
 352 425.2 l 1
EndSplineSet
Refer: 35 108 N 1 0 0 1 44 0 2
EndChar

StartChar: guilsinglleft
Encoding: 8249 8249 530
Width: 340
Flags: W
VStem: 64.5 217.75
LayerCount: 2
Fore
SplineSet
64.5 274.5 m 1
 204.5 441 l 1
 282.25 441 l 1
 129 254 l 1
 282.25 67 l 1
 204.5 67 l 1
 64.5 233.5 l 1
 64.5 274.5 l 1
EndSplineSet
EndChar

StartChar: guilsinglright
Encoding: 8250 8250 531
Width: 340
Flags: W
VStem: 57.75 217.75
LayerCount: 2
Fore
SplineSet
275.5 233.5 m 1
 135.5 67 l 1
 57.75 67 l 1
 211 254 l 1
 57.75 441 l 1
 135.5 441 l 1
 275.5 274.5 l 1
 275.5 233.5 l 1
EndSplineSet
EndChar

